<svg version="1.1" xmlns:xlink="http://www.w3.org/1999/xlink" xmlns="http://www.w3.org/2000/svg" width="370" height="217" viewBox="104 223 496 292" style="stroke-width: 2px; background-color: white;">
<defs>
	<marker id="mCircle" refX="5" refY="5" markerWidth="10" markerHeight="10">
		<circle cx="5" cy="5" r="3" style="fill: white; stroke: black; stroke-width: 1px;"/>
	</marker>
	<marker id="mTriangle" refX="0" refY="3.5" markerWidth="10" markerHeight="10" orient="auto">
		<path d="M 0 0 8 3.5 0 7 Z" style="fill: blue"/>
	</marker>
	<marker id="mTriangleRay" refX="0" refY="3.5" markerWidth="10" markerHeight="10" orient="auto">
		<path d="M 0 0 8 3.5 0 7 Z" style="fill: rgb(234, 183, 6)"/>
	</marker>
</defs>
<g transform="translate(0, 0)">
	<line x1="143.497" y1="442.853" x2="543.26" y2="442.853" style="marker: url(#mCircle); stroke:rgb(0,0,0);stroke-width:2" />
	<text x="113.497" y="448.853" style="font-size: 12pt; font-weight: bold; font-family:sans-serif">v0</text>
	<text x="553.26" y="448.853" style="font-size: 12pt; font-weight: bold; font-family:sans-serif">v1</text>
	<path d="M347.239,442.853 277.239,442.853 a 70,70 0 0,1 140,0 z" style="fill:rgba(234, 183, 6,0.5);"/>
	<line x1="347.239" y1="442.853" x2="347.239" y2="362.853" style="marker-end: url(#mTriangle); stroke:rgb(0,0,255); stroke-width:2" />
	<text x="341.239" y="338.853" style="fill: blue; font-size: 14pt; font-weight: bold; font-family:sans-serif">N</text>
	<circle cx="347.239" cy="442.853" r="6" style="fill: blue;"/>
	<text x="341.239" y="468.853" style="font-size: 14pt; font-weight: bold; font-family:sans-serif">P</text>
	<line x1="139.686" y1="295.906" x2="333.114" y2="432.853" style="marker-end: url(#mTriangleRay); stroke:rgb(234, 183, 6); stroke-width:2" />
	<text x="122.259" y="293.816" style="font-size: 14pt; font-weight: bold; font-family:sans-serif">I</text>
	<line x1="347.239" y1="442.852" x2="513.49" y2="359.445" style="marker-end: url(#mTriangleRay); stroke:rgb(234, 183, 6); stroke-width:2" />
	<line x1="347.239" y1="442.852" x2="201.636" y2="327.113" style="marker-end: url(#mTriangleRay); stroke:rgb(234, 183, 6); stroke-width:2" />
	<line x1="347.239" y1="442.852" x2="248.602" y2="285.16" style="marker-end: url(#mTriangleRay); stroke:rgb(234, 183, 6); stroke-width:2" />
	<line x1="347.239" y1="442.852" x2="169.148" y2="389.19" style="marker-end: url(#mTriangleRay); stroke:rgb(234, 183, 6); stroke-width:2" />
	<line x1="347.239" y1="442.852" x2="434.592" y2="278.641" style="marker-end: url(#mTriangleRay); stroke:rgb(234, 183, 6); stroke-width:2" />
	<line x1="347.239" y1="442.852" x2="384.502" y2="260.623" style="marker-end: url(#mTriangleRay); stroke:rgb(234, 183, 6); stroke-width:2" />
	<line x1="347.239" y1="442.852" x2="502.398" y2="340.278" style="marker-end: url(#mTriangleRay); stroke:rgb(234, 183, 6); stroke-width:2" />
	<line x1="347.239" y1="442.852" x2="179.594" y2="362.284" style="marker-end: url(#mTriangleRay); stroke:rgb(234, 183, 6); stroke-width:2" />
	<text x="145.252" y="354.663" style="font-size: 14pt; font-weight: bold; font-family:sans-serif">R</text>
	<a xlink:href="../../../raygraph.html" xlink:show="new">
	<text x="109" y="509" style="fill: rgb(73, 139, 234); font-size: 12pt; font-family:sans-serif">Powered by RayGraph</text>
	</a>
	<text x="430" y="509" style="font-size: 12pt; font-family:sans-serif">www.scratchapixel.com</text>
</g>
</svg>
