<?xml version="1.0" standalone="no"?>
<svg version="1.1" xmlns:xlink="http://www.w3.org/1999/xlink" xmlns="http://www.w3.org/2000/svg" width="370" height="176" viewBox="144 324 416 199" style="stroke-width: 2px; background-color: white;">
<defs>
	<marker id="mCircle" refX="5" refY="5" markerWidth="10" markerHeight="10">
		<circle cx="5" cy="5" r="3" style="fill: white; stroke: black; stroke-width: 1px;"/>
	</marker>
	<marker id="mTriangle" refX="0" refY="3.5" markerWidth="10" markerHeight="10" orient="auto">
		<path d="M 0 0 8 3.5 0 7 Z" style="fill: blue"/>
	</marker>
	<marker id="mTriangleRay" refX="0" refY="3.5" markerWidth="10" markerHeight="10" orient="auto">
		<path d="M 0 0 8 3.5 0 7 Z" style="fill: rgb(234, 183, 6)"/>
	</marker>
</defs>
<g transform="translate(0, 0)">
	<line x1="190.963" y1="469.579" x2="512" y2="469.579" style="marker: url(#mCircle); stroke:rgb(0,0,0);stroke-width:2" />
	<text x="160.963" y="475.579" style="font-size: 12pt; font-weight: bold; font-family:sans-serif">v0</text>
	<text x="522" y="475.579" style="font-size: 12pt; font-weight: bold; font-family:sans-serif">v1</text>
	<path d="M357.503,469.579 302.68,426.054 a 70,70 0 0,1 109.647,0 z" style="fill:rgba(234, 183, 6,0.5);"/>
	<text x="328.007" y="426.925" style="font-size: 14pt; font-weight: bold; font-family:sans-serif">&#952;</text>
	<text x="374.999" y="426.925" style="font-size: 14pt; font-weight: bold; font-family:sans-serif">&#952;</text>
	<line x1="357.503" y1="469.579" x2="357.503" y2="389.579" style="marker-end: url(#mTriangle); stroke:rgb(0,0,255); stroke-width:2" />
	<text x="351.503" y="365.579" style="fill: blue; font-size: 14pt; font-weight: bold; font-family:sans-serif">N</text>
	<circle cx="357.503" cy="469.579" r="6" style="fill: blue;"/>
	<text x="351.503" y="495.579" style="font-size: 14pt; font-weight: bold; font-family:sans-serif">P</text>
	<line x1="219.617" y1="360.11" x2="344.144" y2="458.973" style="marker-end: url(#mTriangleRay); stroke:rgb(234, 183, 6); stroke-width:2" />
	<text x="202.652" y="357.405" style="font-size: 14pt; font-weight: bold; font-family:sans-serif">I</text>
	<line x1="357.503" y1="469.578" x2="482.03" y2="370.715" style="marker-end: url(#mTriangleRay); stroke:rgb(234, 183, 6); stroke-width:2" />
	<text x="500.354" y="357.404" style="font-size: 14pt; font-weight: bold; font-family:sans-serif">R</text>
	<a xlink:href="../../../raygraph.html" xlink:show="new">
	<text x="149" y="517" style="fill: rgb(73, 139, 234); font-size: 10pt; font-family:sans-serif">Powered by RayGraph</text>
	</a>
	<text x="400" y="517" style="font-size: 10pt; font-family:sans-serif">www.scratchapixel.com</text>
	
</g>
</svg>
