<svg version="1.1" xmlns="http://www.w3.org/2000/svg" width="370" height="157" viewBox="67 253 573 244" style="stroke-width: 2px; background-color: white;">
<defs>
	<marker id="mCircle" refX="5" refY="5" markerWidth="10" markerHeight="10">
		<circle cx="5" cy="5" r="3" style="fill: white; stroke: black; stroke-width: 1px;"/>
	</marker>
	<marker id="mTriangle" refX="0" refY="3.5" markerWidth="10" markerHeight="10" orient="auto">
		<path d="M 0 0 8 3.5 0 7 Z" style="fill: blue"/>
	</marker>
	<marker id="mTriangleRay" refX="0" refY="3.5" markerWidth="10" markerHeight="10" orient="auto">
		<path d="M 0 0 8 3.5 0 7 Z" style="fill: rgb(234, 183, 6)"/>
	</marker>
</defs>
<g transform="translate(0, 0)">
	<line x1="130" y1="433.717" x2="567" y2="433.717" style="marker: url(#mCircle); stroke:rgb(0,0,0);stroke-width:2" />
	<text x="100" y="439.717" style="font-size: 12pt; font-weight: bold; font-family:sans-serif">v0</text>
	<text x="577" y="439.717" style="font-size: 12pt; font-weight: bold; font-family:sans-serif">v1</text>
	<path d="M345.194,433.717 C633.716,139.175 738.38,309.602 345.194,433.717" style="fill: none; stroke:rgba(234, 183, 6,0.5); stroke-width:2"/>
	<line x1="345.194" y1="433.717" x2="345.194" y2="353.717" style="marker-end: url(#mTriangle); stroke:rgb(0,0,255); stroke-width:2" />
	<text x="339.194" y="329.717" style="fill: blue; font-size: 14pt; font-weight: bold; font-family:sans-serif">N</text>
	<circle cx="345.194" cy="433.717" r="6" style="fill: blue;"/>
	<text x="339.194" y="459.717" style="font-size: 14pt; font-weight: bold; font-family:sans-serif">P</text>
	<line x1="147" y1="312" x2="330.209" y2="424.514" style="marker-end: url(#mTriangleRay); stroke:rgb(234, 183, 6); stroke-width:2" />
	<text x="129.07" y="310.673" style="font-size: 14pt; font-weight: bold; font-family:sans-serif">I</text>
	<line x1="345.194" y1="433.716" x2="528.403" y2="321.202" style="marker-end: url(#mTriangleRay); stroke:rgb(234, 183, 6); stroke-width:2" />
	<line x1="345.194" y1="433.716" x2="475.762" y2="326.418" style="marker-end: url(#mTriangleRay); stroke:rgb(234, 183, 6); stroke-width:2" />
	<line x1="345.194" y1="433.716" x2="480.445" y2="332.385" style="marker-end: url(#mTriangleRay); stroke:rgb(234, 183, 6); stroke-width:2" />
	<line x1="345.194" y1="433.716" x2="496.531" y2="358.495" style="marker-end: url(#mTriangleRay); stroke:rgb(234, 183, 6); stroke-width:2" />
	<line x1="345.194" y1="433.716" x2="476.562" y2="327.399" style="marker-end: url(#mTriangleRay); stroke:rgb(234, 183, 6); stroke-width:2" />
	<text x="494.712" y="313.854" style="font-size: 14pt; font-weight: bold; font-family:sans-serif">R</text>
	<text x="72" y="487.708" style="font-size: 14pt; font-family:sans-serif">Powered by RayGraph</text>
	<text x="446" y="487.708" style="font-size: 14pt; font-family:sans-serif">www.scratchapixel.com</text>
</g>
</svg>
