999
DXF by Paul Bourke
  0
SECTION
  2
HEADER
  9
$ACADVER
  1
AC1006
  9
$INSBASE
 10
0.0
 20
0.0
 30
0.0
  9
$EXTMIN
 10
0.0
 20
0.0
  9
$EXTMAX
 10
1000.0
 20
1000.0
  9
$LINMIN
 10
0.0
 20
0.0
  9
$LINMAX
 10
1000.0
 20
1000.0
  0
ENDSEC
  0
SECTION
  2
TABLES
  0
TABLE
  2
LTYPE
 70
1
  0
LTYPE
  2
CONTINUOUS
 70
64
  3
Solid line
 72
65
 73
0
 40
0.000000
  0
ENDTAB
  0
TABLE
  2
LAYER
 70
6
  0
LAYER
  2
1
 70
64
 62
7
  6
CONTINUOUS
  0
ENDTAB
  0
TABLE
  2
STYLE
 70
0
  0
ENDTAB
  0
ENDSEC
  0
SECTION
  2
BLOCKS
  0
ENDSEC
  0
SECTION
  2
ENTITIES
  0
3DFACE
  8
2
10
2.93612e-16
20
0.124938
30
1.5
11
0.866018
21
-0.125038
31
0.999987
12
-2.4614e-16
22
-0.213402
32
0.499986
13
-2.4614e-16
23
-0.213402
33
0.499986
  0
3DFACE
  8
2
10
0.866018
20
-0.125038
30
0.999987
11
0.866018
21
0.125038
31
1.29938e-05
12
-2.4614e-16
22
-0.213402
32
0.499986
13
-2.4614e-16
23
-0.213402
33
0.499986
  0
3DFACE
  8
2
10
0.866018
20
0.125038
30
1.29938e-05
11
-8.6134e-16
21
-0.124938
31
-0.5
12
-2.4614e-16
22
-0.213402
32
0.499986
13
-2.4614e-16
23
-0.213402
33
0.499986
  0
3DFACE
  8
2
10
-8.6134e-16
20
-0.124938
30
-0.5
11
-0.866018
21
0.125038
31
1.29938e-05
12
-2.4614e-16
22
-0.213402
32
0.499986
13
-2.4614e-16
23
-0.213402
33
0.499986
  0
3DFACE
  8
2
10
-0.866018
20
0.125038
30
1.29938e-05
11
-0.866018
21
-0.125038
31
0.999987
12
-2.4614e-16
22
-0.213402
32
0.499986
13
-2.4614e-16
23
-0.213402
33
0.499986
  0
3DFACE
  8
2
10
-0.866018
20
-0.125038
30
0.999987
11
2.93612e-16
21
0.124938
31
1.5
12
-2.4614e-16
22
-0.213402
32
0.499986
13
-2.4614e-16
23
-0.213402
33
0.499986
  0
3DFACE
  8
2
10
2.93612e-16
20
0.124938
30
1.5
11
-2.60729e-16
21
0.213402
31
0.500014
12
0.866018
22
-0.125038
32
0.999987
13
0.866018
23
-0.125038
33
0.999987
  0
3DFACE
  8
2
10
0.866018
20
-0.125038
30
0.999987
11
-2.60729e-16
21
0.213402
31
0.500014
12
0.866018
22
0.125038
32
1.29938e-05
13
0.866018
23
0.125038
33
1.29938e-05
  0
3DFACE
  8
2
10
0.866018
20
0.125038
30
1.29938e-05
11
-2.60729e-16
21
0.213402
31
0.500014
12
-8.6134e-16
22
-0.124938
32
-0.5
13
-8.6134e-16
23
-0.124938
33
-0.5
  0
3DFACE
  8
2
10
-8.6134e-16
20
-0.124938
30
-0.5
11
-2.60729e-16
21
0.213402
31
0.500014
12
-0.866018
22
0.125038
32
1.29938e-05
13
-0.866018
23
0.125038
33
1.29938e-05
  0
3DFACE
  8
2
10
-0.866018
20
0.125038
30
1.29938e-05
11
-2.60729e-16
21
0.213402
31
0.500014
12
-0.866018
22
-0.125038
32
0.999987
13
-0.866018
23
-0.125038
33
0.999987
  0
3DFACE
  8
2
10
-0.866018
20
-0.125038
30
0.999987
11
-2.60729e-16
21
0.213402
31
0.500014
12
2.93612e-16
22
0.124938
32
1.5
13
2.93612e-16
23
0.124938
33
1.5
  0
3DFACE
  8
2
10
0
20
-1.87506
30
1.74988
11
0.866018
21
-1.37505
31
1.4999
12
0
22
-0.875048
32
1.41154
13
0
23
-0.875048
33
1.41154
  0
3DFACE
  8
2
10
0.866018
20
-1.37505
30
1.4999
11
0.866018
21
-0.375075
31
1.74998
12
0
22
-0.875048
32
1.41154
13
0
23
-0.875048
33
1.41154
  0
3DFACE
  8
2
10
0.866018
20
-0.375075
30
1.74998
11
0
21
0.124938
31
1.5
12
0
22
-0.875048
32
1.41154
13
0
23
-0.875048
33
1.41154
  0
3DFACE
  8
2
10
0
20
0.124938
30
1.5
11
-0.866018
21
-0.375075
31
1.74998
12
0
22
-0.875048
32
1.41154
13
0
23
-0.875048
33
1.41154
  0
3DFACE
  8
2
10
-0.866018
20
-0.375075
30
1.74998
11
-0.866018
21
-1.37505
31
1.4999
12
0
22
-0.875048
32
1.41154
13
0
23
-0.875048
33
1.41154
  0
3DFACE
  8
2
10
-0.866018
20
-1.37505
30
1.4999
11
0
21
-1.87506
31
1.74988
12
0
22
-0.875048
32
1.41154
13
0
23
-0.875048
33
1.41154
  0
3DFACE
  8
2
10
0
20
-1.87506
30
1.74988
11
0
21
-0.875076
31
1.83834
12
0.866018
22
-1.37505
32
1.4999
13
0.866018
23
-1.37505
33
1.4999
  0
3DFACE
  8
2
10
0.866018
20
-1.37505
30
1.4999
11
0
21
-0.875076
31
1.83834
12
0.866018
22
-0.375075
32
1.74998
13
0.866018
23
-0.375075
33
1.74998
  0
3DFACE
  8
2
10
0.866018
20
-0.375075
30
1.74998
11
0
21
-0.875076
31
1.83834
12
0
22
0.124938
32
1.5
13
0
23
0.124938
33
1.5
  0
3DFACE
  8
2
10
0
20
0.124938
30
1.5
11
0
21
-0.875076
31
1.83834
12
-0.866018
22
-0.375075
32
1.74998
13
-0.866018
23
-0.375075
33
1.74998
  0
3DFACE
  8
2
10
-0.866018
20
-0.375075
30
1.74998
11
0
21
-0.875076
31
1.83834
12
-0.866018
22
-1.37505
32
1.4999
13
-0.866018
23
-1.37505
33
1.4999
  0
3DFACE
  8
2
10
-0.866018
20
-1.37505
30
1.4999
11
0
21
-0.875076
31
1.83834
12
0
22
-1.87506
32
1.74988
13
0
23
-1.87506
33
1.74988
  0
3DFACE
  8
2
10
-1.73204
20
0.124938
30
1.5
11
-0.866018
21
-0.125038
31
0.999987
12
-1.73204
22
-0.213402
32
0.499986
13
-1.73204
23
-0.213402
33
0.499986
  0
3DFACE
  8
2
10
-0.866018
20
-0.125038
30
0.999987
11
-0.866018
21
0.125038
31
1.29938e-05
12
-1.73204
22
-0.213402
32
0.499986
13
-1.73204
23
-0.213402
33
0.499986
  0
3DFACE
  8
2
10
-0.866018
20
0.125038
30
1.29938e-05
11
-1.73204
21
-0.124938
31
-0.5
12
-1.73204
22
-0.213402
32
0.499986
13
-1.73204
23
-0.213402
33
0.499986
  0
3DFACE
  8
2
10
-1.73204
20
-0.124938
30
-0.5
11
-2.59805
21
0.125038
31
1.29938e-05
12
-1.73204
22
-0.213402
32
0.499986
13
-1.73204
23
-0.213402
33
0.499986
  0
3DFACE
  8
2
10
-2.59805
20
0.125038
30
1.29938e-05
11
-2.59805
21
-0.125038
31
0.999987
12
-1.73204
22
-0.213402
32
0.499986
13
-1.73204
23
-0.213402
33
0.499986
  0
3DFACE
  8
2
10
-2.59805
20
-0.125038
30
0.999987
11
-1.73204
21
0.124938
31
1.5
12
-1.73204
22
-0.213402
32
0.499986
13
-1.73204
23
-0.213402
33
0.499986
  0
3DFACE
  8
2
10
-1.73204
20
0.124938
30
1.5
11
-1.73204
21
0.213402
31
0.500014
12
-0.866018
22
-0.125038
32
0.999987
13
-0.866018
23
-0.125038
33
0.999987
  0
3DFACE
  8
2
10
-0.866018
20
-0.125038
30
0.999987
11
-1.73204
21
0.213402
31
0.500014
12
-0.866018
22
0.125038
32
1.29938e-05
13
-0.866018
23
0.125038
33
1.29938e-05
  0
3DFACE
  8
2
10
-0.866018
20
0.125038
30
1.29938e-05
11
-1.73204
21
0.213402
31
0.500014
12
-1.73204
22
-0.124938
32
-0.5
13
-1.73204
23
-0.124938
33
-0.5
  0
3DFACE
  8
2
10
-1.73204
20
-0.124938
30
-0.5
11
-1.73204
21
0.213402
31
0.500014
12
-2.59805
22
0.125038
32
1.29938e-05
13
-2.59805
23
0.125038
33
1.29938e-05
  0
3DFACE
  8
2
10
-2.59805
20
0.125038
30
1.29938e-05
11
-1.73204
21
0.213402
31
0.500014
12
-2.59805
22
-0.125038
32
0.999987
13
-2.59805
23
-0.125038
33
0.999987
  0
3DFACE
  8
2
10
-2.59805
20
-0.125038
30
0.999987
11
-1.73204
21
0.213402
31
0.500014
12
-1.73204
22
0.124938
32
1.5
13
-1.73204
23
0.124938
33
1.5
  0
3DFACE
  8
2
10
-1.73204
20
-1.87506
30
1.74988
11
-0.866018
21
-1.37505
31
1.4999
12
-1.73204
22
-0.875048
32
1.41154
13
-1.73204
23
-0.875048
33
1.41154
  0
3DFACE
  8
2
10
-0.866018
20
-1.37505
30
1.4999
11
-0.866018
21
-0.375075
31
1.74998
12
-1.73204
22
-0.875048
32
1.41154
13
-1.73204
23
-0.875048
33
1.41154
  0
3DFACE
  8
2
10
-0.866018
20
-0.375075
30
1.74998
11
-1.73204
21
0.124938
31
1.5
12
-1.73204
22
-0.875048
32
1.41154
13
-1.73204
23
-0.875048
33
1.41154
  0
3DFACE
  8
2
10
-1.73204
20
0.124938
30
1.5
11
-2.59805
21
-0.375075
31
1.74998
12
-1.73204
22
-0.875048
32
1.41154
13
-1.73204
23
-0.875048
33
1.41154
  0
3DFACE
  8
2
10
-2.59805
20
-0.375075
30
1.74998
11
-2.59805
21
-1.37505
31
1.4999
12
-1.73204
22
-0.875048
32
1.41154
13
-1.73204
23
-0.875048
33
1.41154
  0
3DFACE
  8
2
10
-2.59805
20
-1.37505
30
1.4999
11
-1.73204
21
-1.87506
31
1.74988
12
-1.73204
22
-0.875048
32
1.41154
13
-1.73204
23
-0.875048
33
1.41154
  0
3DFACE
  8
2
10
-1.73204
20
-1.87506
30
1.74988
11
-1.73204
21
-0.875076
31
1.83834
12
-0.866018
22
-1.37505
32
1.4999
13
-0.866018
23
-1.37505
33
1.4999
  0
3DFACE
  8
2
10
-0.866018
20
-1.37505
30
1.4999
11
-1.73204
21
-0.875076
31
1.83834
12
-0.866018
22
-0.375075
32
1.74998
13
-0.866018
23
-0.375075
33
1.74998
  0
3DFACE
  8
2
10
-0.866018
20
-0.375075
30
1.74998
11
-1.73204
21
-0.875076
31
1.83834
12
-1.73204
22
0.124938
32
1.5
13
-1.73204
23
0.124938
33
1.5
  0
3DFACE
  8
2
10
-1.73204
20
0.124938
30
1.5
11
-1.73204
21
-0.875076
31
1.83834
12
-2.59805
22
-0.375075
32
1.74998
13
-2.59805
23
-0.375075
33
1.74998
  0
3DFACE
  8
2
10
-2.59805
20
-0.375075
30
1.74998
11
-1.73204
21
-0.875076
31
1.83834
12
-2.59805
22
-1.37505
32
1.4999
13
-2.59805
23
-1.37505
33
1.4999
  0
3DFACE
  8
2
10
-2.59805
20
-1.37505
30
1.4999
11
-1.73204
21
-0.875076
31
1.83834
12
-1.73204
22
-1.87506
32
1.74988
13
-1.73204
23
-1.87506
33
1.74988
  0
3DFACE
  8
2
10
-3.46407
20
0.124938
30
1.5
11
-2.59805
21
-0.125038
31
0.999987
12
-3.46407
22
-0.213402
32
0.499986
13
-3.46407
23
-0.213402
33
0.499986
  0
3DFACE
  8
2
10
-2.59805
20
-0.125038
30
0.999987
11
-2.59805
21
0.125038
31
1.29938e-05
12
-3.46407
22
-0.213402
32
0.499986
13
-3.46407
23
-0.213402
33
0.499986
  0
3DFACE
  8
2
10
-2.59805
20
0.125038
30
1.29938e-05
11
-3.46407
21
-0.124938
31
-0.5
12
-3.46407
22
-0.213402
32
0.499986
13
-3.46407
23
-0.213402
33
0.499986
  0
3DFACE
  8
2
10
-3.46407
20
-0.124938
30
-0.5
11
-4.33009
21
0.125038
31
1.29938e-05
12
-3.46407
22
-0.213402
32
0.499986
13
-3.46407
23
-0.213402
33
0.499986
  0
3DFACE
  8
2
10
-4.33009
20
0.125038
30
1.29938e-05
11
-4.33009
21
-0.125038
31
0.999987
12
-3.46407
22
-0.213402
32
0.499986
13
-3.46407
23
-0.213402
33
0.499986
  0
3DFACE
  8
2
10
-4.33009
20
-0.125038
30
0.999987
11
-3.46407
21
0.124938
31
1.5
12
-3.46407
22
-0.213402
32
0.499986
13
-3.46407
23
-0.213402
33
0.499986
  0
3DFACE
  8
2
10
-3.46407
20
0.124938
30
1.5
11
-3.46407
21
0.213402
31
0.500014
12
-2.59805
22
-0.125038
32
0.999987
13
-2.59805
23
-0.125038
33
0.999987
  0
3DFACE
  8
2
10
-2.59805
20
-0.125038
30
0.999987
11
-3.46407
21
0.213402
31
0.500014
12
-2.59805
22
0.125038
32
1.29938e-05
13
-2.59805
23
0.125038
33
1.29938e-05
  0
3DFACE
  8
2
10
-2.59805
20
0.125038
30
1.29938e-05
11
-3.46407
21
0.213402
31
0.500014
12
-3.46407
22
-0.124938
32
-0.5
13
-3.46407
23
-0.124938
33
-0.5
  0
3DFACE
  8
2
10
-3.46407
20
-0.124938
30
-0.5
11
-3.46407
21
0.213402
31
0.500014
12
-4.33009
22
0.125038
32
1.29938e-05
13
-4.33009
23
0.125038
33
1.29938e-05
  0
3DFACE
  8
2
10
-4.33009
20
0.125038
30
1.29938e-05
11
-3.46407
21
0.213402
31
0.500014
12
-4.33009
22
-0.125038
32
0.999987
13
-4.33009
23
-0.125038
33
0.999987
  0
3DFACE
  8
2
10
-4.33009
20
-0.125038
30
0.999987
11
-3.46407
21
0.213402
31
0.500014
12
-3.46407
22
0.124938
32
1.5
13
-3.46407
23
0.124938
33
1.5
  0
3DFACE
  8
2
10
-3.46407
20
-1.87506
30
1.74988
11
-2.59805
21
-1.37505
31
1.4999
12
-3.46407
22
-0.875048
32
1.41154
13
-3.46407
23
-0.875048
33
1.41154
  0
3DFACE
  8
2
10
-2.59805
20
-1.37505
30
1.4999
11
-2.59805
21
-0.375075
31
1.74998
12
-3.46407
22
-0.875048
32
1.41154
13
-3.46407
23
-0.875048
33
1.41154
  0
3DFACE
  8
2
10
-2.59805
20
-0.375075
30
1.74998
11
-3.46407
21
0.124938
31
1.5
12
-3.46407
22
-0.875048
32
1.41154
13
-3.46407
23
-0.875048
33
1.41154
  0
3DFACE
  8
2
10
-3.46407
20
0.124938
30
1.5
11
-4.33009
21
-0.375075
31
1.74998
12
-3.46407
22
-0.875048
32
1.41154
13
-3.46407
23
-0.875048
33
1.41154
  0
3DFACE
  8
2
10
-4.33009
20
-0.375075
30
1.74998
11
-4.33009
21
-1.37505
31
1.4999
12
-3.46407
22
-0.875048
32
1.41154
13
-3.46407
23
-0.875048
33
1.41154
  0
3DFACE
  8
2
10
-4.33009
20
-1.37505
30
1.4999
11
-3.46407
21
-1.87506
31
1.74988
12
-3.46407
22
-0.875048
32
1.41154
13
-3.46407
23
-0.875048
33
1.41154
  0
3DFACE
  8
2
10
-3.46407
20
-1.87506
30
1.74988
11
-3.46407
21
-0.875076
31
1.83834
12
-2.59805
22
-1.37505
32
1.4999
13
-2.59805
23
-1.37505
33
1.4999
  0
3DFACE
  8
2
10
-2.59805
20
-1.37505
30
1.4999
11
-3.46407
21
-0.875076
31
1.83834
12
-2.59805
22
-0.375075
32
1.74998
13
-2.59805
23
-0.375075
33
1.74998
  0
3DFACE
  8
2
10
-2.59805
20
-0.375075
30
1.74998
11
-3.46407
21
-0.875076
31
1.83834
12
-3.46407
22
0.124938
32
1.5
13
-3.46407
23
0.124938
33
1.5
  0
3DFACE
  8
2
10
-3.46407
20
0.124938
30
1.5
11
-3.46407
21
-0.875076
31
1.83834
12
-4.33009
22
-0.375075
32
1.74998
13
-4.33009
23
-0.375075
33
1.74998
  0
3DFACE
  8
2
10
-4.33009
20
-0.375075
30
1.74998
11
-3.46407
21
-0.875076
31
1.83834
12
-4.33009
22
-1.37505
32
1.4999
13
-4.33009
23
-1.37505
33
1.4999
  0
3DFACE
  8
2
10
-4.33009
20
-1.37505
30
1.4999
11
-3.46407
21
-0.875076
31
1.83834
12
-3.46407
22
-1.87506
32
1.74988
13
-3.46407
23
-1.87506
33
1.74988
  0
3DFACE
  8
2
10
-0.866018
20
0.125038
30
1.29938e-05
11
0
21
-0.124938
31
-0.5
12
-0.866018
22
-0.213302
32
-1
13
-0.866018
23
-0.213302
33
-1
  0
3DFACE
  8
2
10
0
20
-0.124938
30
-0.5
11
0
21
0.125138
31
-1.49997
12
-0.866018
22
-0.213302
32
-1
13
-0.866018
23
-0.213302
33
-1
  0
3DFACE
  8
2
10
0
20
0.125138
30
-1.49997
11
-0.866018
21
-0.124838
31
-1.99999
12
-0.866018
22
-0.213302
32
-1
13
-0.866018
23
-0.213302
33
-1
  0
3DFACE
  8
2
10
-0.866018
20
-0.124838
30
-1.99999
11
-1.73204
21
0.125138
31
-1.49997
12
-0.866018
22
-0.213302
32
-1
13
-0.866018
23
-0.213302
33
-1
  0
3DFACE
  8
2
10
-1.73204
20
0.125138
30
-1.49997
11
-1.73204
21
-0.124938
31
-0.5
12
-0.866018
22
-0.213302
32
-1
13
-0.866018
23
-0.213302
33
-1
  0
3DFACE
  8
2
10
-1.73204
20
-0.124938
30
-0.5
11
-0.866018
21
0.125038
31
1.29938e-05
12
-0.866018
22
-0.213302
32
-1
13
-0.866018
23
-0.213302
33
-1
  0
3DFACE
  8
2
10
-0.866018
20
0.125038
30
1.29938e-05
11
-0.866018
21
0.213502
31
-0.999973
12
0
22
-0.124938
32
-0.5
13
0
23
-0.124938
33
-0.5
  0
3DFACE
  8
2
10
0
20
-0.124938
30
-0.5
11
-0.866018
21
0.213502
31
-0.999973
12
0
22
0.125138
32
-1.49997
13
0
23
0.125138
33
-1.49997
  0
3DFACE
  8
2
10
0
20
0.125138
30
-1.49997
11
-0.866018
21
0.213502
31
-0.999973
12
-0.866018
22
-0.124838
32
-1.99999
13
-0.866018
23
-0.124838
33
-1.99999
  0
3DFACE
  8
2
10
-0.866018
20
-0.124838
30
-1.99999
11
-0.866018
21
0.213502
31
-0.999973
12
-1.73204
22
0.125138
32
-1.49997
13
-1.73204
23
0.125138
33
-1.49997
  0
3DFACE
  8
2
10
-1.73204
20
0.125138
30
-1.49997
11
-0.866018
21
0.213502
31
-0.999973
12
-1.73204
22
-0.124938
32
-0.5
13
-1.73204
23
-0.124938
33
-0.5
  0
3DFACE
  8
2
10
-1.73204
20
-0.124938
30
-0.5
11
-0.866018
21
0.213502
31
-0.999973
12
-0.866018
22
0.125038
32
1.29938e-05
13
-0.866018
23
0.125038
33
1.29938e-05
  0
3DFACE
  8
2
10
-2.59805
20
0.125038
30
1.29938e-05
11
-1.73204
21
-0.124938
31
-0.5
12
-2.59805
22
-0.213302
32
-1
13
-2.59805
23
-0.213302
33
-1
  0
3DFACE
  8
2
10
-1.73204
20
-0.124938
30
-0.5
11
-1.73204
21
0.125138
31
-1.49997
12
-2.59805
22
-0.213302
32
-1
13
-2.59805
23
-0.213302
33
-1
  0
3DFACE
  8
2
10
-1.73204
20
0.125138
30
-1.49997
11
-2.59805
21
-0.124838
31
-1.99999
12
-2.59805
22
-0.213302
32
-1
13
-2.59805
23
-0.213302
33
-1
  0
3DFACE
  8
2
10
-2.59805
20
-0.124838
30
-1.99999
11
-3.46407
21
0.125138
31
-1.49997
12
-2.59805
22
-0.213302
32
-1
13
-2.59805
23
-0.213302
33
-1
  0
3DFACE
  8
2
10
-3.46407
20
0.125138
30
-1.49997
11
-3.46407
21
-0.124938
31
-0.5
12
-2.59805
22
-0.213302
32
-1
13
-2.59805
23
-0.213302
33
-1
  0
3DFACE
  8
2
10
-3.46407
20
-0.124938
30
-0.5
11
-2.59805
21
0.125038
31
1.29938e-05
12
-2.59805
22
-0.213302
32
-1
13
-2.59805
23
-0.213302
33
-1
  0
3DFACE
  8
2
10
-2.59805
20
0.125038
30
1.29938e-05
11
-2.59805
21
0.213502
31
-0.999973
12
-1.73204
22
-0.124938
32
-0.5
13
-1.73204
23
-0.124938
33
-0.5
  0
3DFACE
  8
2
10
-1.73204
20
-0.124938
30
-0.5
11
-2.59805
21
0.213502
31
-0.999973
12
-1.73204
22
0.125138
32
-1.49997
13
-1.73204
23
0.125138
33
-1.49997
  0
3DFACE
  8
2
10
-1.73204
20
0.125138
30
-1.49997
11
-2.59805
21
0.213502
31
-0.999973
12
-2.59805
22
-0.124838
32
-1.99999
13
-2.59805
23
-0.124838
33
-1.99999
  0
3DFACE
  8
2
10
-2.59805
20
-0.124838
30
-1.99999
11
-2.59805
21
0.213502
31
-0.999973
12
-3.46407
22
0.125138
32
-1.49997
13
-3.46407
23
0.125138
33
-1.49997
  0
3DFACE
  8
2
10
-3.46407
20
0.125138
30
-1.49997
11
-2.59805
21
0.213502
31
-0.999973
12
-3.46407
22
-0.124938
32
-0.5
13
-3.46407
23
-0.124938
33
-0.5
  0
3DFACE
  8
2
10
-3.46407
20
-0.124938
30
-0.5
11
-2.59805
21
0.213502
31
-0.999973
12
-2.59805
22
0.125038
32
1.29938e-05
13
-2.59805
23
0.125038
33
1.29938e-05
  0
3DFACE
  8
2
10
-4.33009
20
0.125038
30
1.29938e-05
11
-3.46407
21
-0.124938
31
-0.5
12
-4.33009
22
-0.213302
32
-1
13
-4.33009
23
-0.213302
33
-1
  0
3DFACE
  8
2
10
-3.46407
20
-0.124938
30
-0.5
11
-3.46407
21
0.125138
31
-1.49997
12
-4.33009
22
-0.213302
32
-1
13
-4.33009
23
-0.213302
33
-1
  0
3DFACE
  8
2
10
-3.46407
20
0.125138
30
-1.49997
11
-4.33009
21
-0.124838
31
-1.99999
12
-4.33009
22
-0.213302
32
-1
13
-4.33009
23
-0.213302
33
-1
  0
3DFACE
  8
2
10
0.866018
20
-0.375075
30
3.74998
11
0
21
0.124938
31
3.5
12
0
22
-0.875048
32
3.41154
13
0
23
-0.875048
33
3.41154
  0
3DFACE
  8
2
10
0.866018
20
-0.125038
30
0.999987
11
0.866018
21
-0.375075
31
1.74998
12
0
22
-0.875048
32
1.41154
13
0
23
-0.875048
33
1.41154
  0
3DFACE
  8
2
10
0
20
0.124938
30
1.5
11
0
21
-0.875048
31
1.41154
12
0.866018
22
-0.125038
32
0.999987
13
0.866018
23
-0.125038
33
0.999987
  0
3DFACE
  8
2
10
-4.33009
20
0.125038
30
1.29938e-05
11
-4.33009
21
0.213502
31
-0.999973
12
-3.46407
22
-0.124938
32
-0.5
13
-3.46407
23
-0.124938
33
-0.5
  0
3DFACE
  8
2
10
-3.46407
20
-0.124938
30
-0.5
11
-4.33009
21
0.213502
31
-0.999973
12
-3.46407
22
0.125138
32
-1.49997
13
-3.46407
23
0.125138
33
-1.49997
  0
3DFACE
  8
2
10
-3.46407
20
0.125138
30
-1.49997
11
-4.33009
21
0.213502
31
-0.999973
12
-4.33009
22
-0.124838
32
-1.99999
13
-4.33009
23
-0.124838
33
-1.99999
  0
3DFACE
  8
2
10
0.866018
20
-0.125038
30
2.99999
11
0.866018
21
-0.375075
31
3.74998
12
0
22
-0.875048
32
3.41154
13
0
23
-0.875048
33
3.41154
  0
3DFACE
  8
2
10
0
20
0.124938
30
3.5
11
0
21
-0.875048
31
3.41154
12
0.866018
22
-0.125038
32
2.99999
13
0.866018
23
-0.125038
33
2.99999
  0
3DFACE
  8
2
10
0.866018
20
-0.375075
30
3.74998
11
0
21
0.124938
31
3.5
12
0.866018
22
-0.125038
32
2.99999
13
0.866018
23
-0.125038
33
2.99999
  0
3DFACE
  8
2
10
-0.866018
20
-0.125038
30
2.99999
11
0
21
-0.875048
31
3.41154
12
0
22
0.124938
32
3.5
13
0
23
0.124938
33
3.5
  0
3DFACE
  8
2
10
-1.73204
20
0.124938
30
3.5
11
0
21
0.124938
31
3.5
12
-0.866018
22
-0.125038
32
2.99999
13
-0.866018
23
-0.125038
33
2.99999
  0
3DFACE
  8
2
10
-1.73204
20
0.124938
30
3.5
11
-1.73204
21
-0.875048
31
3.41154
12
-0.866018
22
-0.125038
32
2.99999
13
-0.866018
23
-0.125038
33
2.99999
  0
3DFACE
  8
2
10
0.866018
20
-0.124838
30
-1.99999
11
5.96046e-08
21
0.125138
31
-1.49997
12
0.866018
22
-0.213302
32
-1
13
0.866018
23
-0.213302
33
-1
  0
3DFACE
  8
2
10
5.96046e-08
20
0.125138
30
-1.49997
11
5.96046e-08
21
-0.124938
31
-0.5
12
0.866018
22
-0.213302
32
-1
13
0.866018
23
-0.213302
33
-1
  0
3DFACE
  8
2
10
5.96046e-08
20
-0.124938
30
-0.5
11
0.866018
21
0.125038
31
1.29938e-05
12
0.866018
22
-0.213302
32
-1
13
0.866018
23
-0.213302
33
-1
  0
3DFACE
  8
2
10
0
20
-0.875048
30
3.41154
11
-1.73204
21
-0.875048
31
3.41154
12
-0.866018
22
-0.125038
32
2.99999
13
-0.866018
23
-0.125038
33
2.99999
  0
3DFACE
  8
2
10
-1.73204
20
-0.875048
30
3.41154
11
-0.866018
21
-0.375075
31
3.74998
12
0
22
-0.875048
32
3.41154
13
0
23
-0.875048
33
3.41154
  0
3DFACE
  8
2
10
0
20
0.124938
30
3.5
11
-0.866018
21
-0.375075
31
3.74998
12
-1.73204
22
0.124938
32
3.5
13
-1.73204
23
0.124938
33
3.5
  0
3DFACE
  8
2
10
0.866018
20
-0.124838
30
-1.99999
11
0.866018
21
0.213502
31
-0.999973
12
5.96046e-08
22
0.125138
32
-1.49997
13
5.96046e-08
23
0.125138
33
-1.49997
  0
3DFACE
  8
2
10
5.96046e-08
20
0.125138
30
-1.49997
11
0.866018
21
0.213502
31
-0.999973
12
5.96046e-08
22
-0.124938
32
-0.5
13
5.96046e-08
23
-0.124938
33
-0.5
  0
3DFACE
  8
2
10
5.96046e-08
20
-0.124938
30
-0.5
11
0.866018
21
0.213502
31
-0.999973
12
0.866018
22
0.125038
32
1.29938e-05
13
0.866018
23
0.125038
33
1.29938e-05
  0
3DFACE
  8
2
10
-2.59805
20
-0.375075
30
1.74998
11
-3.46407
21
0.124938
31
1.5
12
-2.59805
22
-0.125038
32
0.999987
13
-2.59805
23
-0.125038
33
0.999987
  0
3DFACE
  8
2
10
-2.59805
20
-0.375075
30
3.74998
11
-3.46407
21
0.124938
31
3.5
12
-3.46407
22
-0.875048
32
3.41154
13
-3.46407
23
-0.875048
33
3.41154
  0
3DFACE
  8
2
10
-3.46407
20
0.124938
30
1.5
11
-3.46407
21
-0.875048
31
1.41154
12
-2.59805
22
-0.125038
32
0.999987
13
-2.59805
23
-0.125038
33
0.999987
  0
3DFACE
  8
2
10
-2.59805
20
-0.125038
30
0.999987
11
-2.59805
21
-0.375075
31
1.74998
12
-3.46407
22
-0.875048
32
1.41154
13
-3.46407
23
-0.875048
33
1.41154
  0
3DFACE
  8
2
10
-2.59805
20
-0.125038
30
0.999987
11
-1.73204
21
-0.875048
31
1.41154
12
-1.73204
22
0.124938
32
1.5
13
-1.73204
23
0.124938
33
1.5
  0
3DFACE
  8
2
10
-1.73204
20
0.124938
30
1.5
11
-2.59805
21
-0.375075
31
1.74998
12
-2.59805
22
-0.125038
32
0.999987
13
-2.59805
23
-0.125038
33
0.999987
  0
3DFACE
  8
2
10
-1.73204
20
-0.875048
30
1.41154
11
-2.59805
21
-0.375075
31
1.74998
12
-2.59805
22
-0.125038
32
0.999987
13
-2.59805
23
-0.125038
33
0.999987
  0
3DFACE
  8
2
10
-2.59805
20
-0.375075
30
3.74998
11
-3.46407
21
0.124938
31
3.5
12
-2.59805
22
-0.125038
32
2.99999
13
-2.59805
23
-0.125038
33
2.99999
  0
3DFACE
  8
2
10
-3.46407
20
0.124938
30
3.5
11
-3.46407
21
-0.875048
31
3.41154
12
-2.59805
22
-0.125038
32
2.99999
13
-2.59805
23
-0.125038
33
2.99999
  0
3DFACE
  8
2
10
-2.59805
20
-0.125038
30
2.99999
11
-2.59805
21
-0.375075
31
3.74998
12
-3.46407
22
-0.875048
32
3.41154
13
-3.46407
23
-0.875048
33
3.41154
  0
3DFACE
  8
2
10
-2.59805
20
-0.125038
30
2.99999
11
-1.73204
21
-0.875048
31
3.41154
12
-1.73204
22
0.124938
32
3.5
13
-1.73204
23
0.124938
33
3.5
  0
3DFACE
  8
2
10
-1.73204
20
0.124938
30
3.5
11
-2.59805
21
-0.375075
31
3.74998
12
-2.59805
22
-0.125038
32
2.99999
13
-2.59805
23
-0.125038
33
2.99999
  0
3DFACE
  8
2
10
-1.73204
20
-0.875048
30
3.41154
11
-2.59805
21
-0.375075
31
3.74998
12
-2.59805
22
-0.125038
32
2.99999
13
-2.59805
23
-0.125038
33
2.99999
  0
3DFACE
  8
2
10
-1.73204
20
-0.875048
30
3.41154
11
-1.73204
21
0.124938
31
3.5
12
-2.59805
22
-0.375075
32
3.74998
13
-2.59805
23
-0.375075
33
3.74998
  0
3DFACE
  8
2
10
-0.866018
20
-0.375075
30
1.74998
11
-1.73204
21
0.124938
31
1.5
12
-1.73204
22
-0.875048
32
1.41154
13
-1.73204
23
-0.875048
33
1.41154
  0
3DFACE
  8
2
10
0
20
-0.875048
30
1.41154
11
0
21
0.124938
31
1.5
12
-0.866018
22
-0.375075
32
1.74998
13
-0.866018
23
-0.375075
33
1.74998
  0
3DFACE
  8
2
10
-1.73204
20
0.124938
30
1.5
11
-1.73204
21
-0.875048
31
1.41154
12
-0.866018
22
-0.125038
32
0.999987
13
-0.866018
23
-0.125038
33
0.999987
  0
3DFACE
  8
2
10
-1.73204
20
0.124938
30
1.5
11
0
21
0.124938
31
1.5
12
-0.866018
22
-0.125038
32
0.999987
13
-0.866018
23
-0.125038
33
0.999987
  0
3DFACE
  8
2
10
-0.866018
20
-0.125038
30
0.999987
11
0
21
-0.875048
31
1.41154
12
0
22
0.124938
32
1.5
13
0
23
0.124938
33
1.5
  0
3DFACE
  8
2
10
0
20
0.124938
30
1.5
11
-1.73204
21
0.124938
31
1.5
12
-0.866018
22
-0.375075
32
1.74998
13
-0.866018
23
-0.375075
33
1.74998
  0
3DFACE
  8
2
10
-1.73204
20
-0.875048
30
1.41154
11
-0.866018
21
-0.375075
31
1.74998
12
0
22
-0.875048
32
1.41154
13
0
23
-0.875048
33
1.41154
  0
3DFACE
  8
2
10
0
20
-0.875048
30
1.41154
11
-1.73204
21
-0.875048
31
1.41154
12
-0.866018
22
-0.125038
32
0.999987
13
-0.866018
23
-0.125038
33
0.999987
  0
3DFACE
  8
2
10
-0.866018
20
-0.375075
30
3.74998
11
-1.73204
21
0.124938
31
3.5
12
-1.73204
22
-0.875048
32
3.41154
13
-1.73204
23
-0.875048
33
3.41154
  0
3DFACE
  8
2
10
0
20
-0.875048
30
3.41154
11
0
21
0.124938
31
3.5
12
-0.866018
22
-0.375075
32
3.74998
13
-0.866018
23
-0.375075
33
3.74998
  0
3DFACE
  8
2
10
0.866018
20
-0.213302
30
-1
11
0.866018
21
0.213502
31
-0.999973
12
0.866018
22
-0.124838
32
-1.99999
13
0.866018
23
-0.124838
33
-1.99999
  0
3DFACE
  8
2
10
0.866018
20
-0.213302
30
-1
11
0.866018
21
0.213502
31
-0.999973
12
0.866018
22
0.125038
32
1.29938e-05
13
0.866018
23
0.125038
33
1.29938e-05
  0
3DFACE
  8
2
10
0.866018
20
-0.375075
30
1.74998
11
0
21
0.124938
31
1.5
12
0
22
-0.875048
32
1.41154
13
0
23
-0.875048
33
1.41154
  0
3DFACE
  8
2
10
0.866018
20
-0.375075
30
1.74998
11
0
21
0.124938
31
1.5
12
0.866018
22
-0.125038
32
0.999987
13
0.866018
23
-0.125038
33
0.999987
  0
3DFACE
  8
2
10
-4.33009
20
0.125038
30
1.29938e-05
11
-4.33009
21
0.213502
31
-0.999973
12
-4.33009
22
-0.213302
32
-1
13
-4.33009
23
-0.213302
33
-1
  0
3DFACE
  8
2
10
-4.33009
20
0.213502
30
-0.999973
11
-4.33009
21
-0.213302
31
-1
12
-4.33009
22
-0.124838
32
-1.99999
13
-4.33009
23
-0.124838
33
-1.99999
  0
3DFACE
  8
2
10
-3.46407
20
-0.875048
30
1.41154
11
-3.46407
21
0.124938
31
1.5
12
-4.33009
22
-0.375075
32
1.74998
13
-4.33009
23
-0.375075
33
1.74998
  0
3DFACE
  8
2
10
-3.46407
20
-0.875048
30
1.41154
11
-4.33009
21
-0.375075
31
1.74998
12
-4.33009
22
-0.125038
32
0.999987
13
-4.33009
23
-0.125038
33
0.999987
  0
3DFACE
  8
2
10
-4.33009
20
-0.125038
30
0.999987
11
-3.46407
21
-0.875048
31
1.41154
12
-3.46407
22
0.124938
32
1.5
13
-3.46407
23
0.124938
33
1.5
  0
3DFACE
  8
2
10
-3.46407
20
0.124938
30
1.5
11
-4.33009
21
-0.375075
31
1.74998
12
-4.33009
22
-0.125038
32
0.999987
13
-4.33009
23
-0.125038
33
0.999987
  0
3DFACE
  8
2
10
-3.46407
20
-0.875048
30
3.41154
11
-3.46407
21
0.124938
31
3.5
12
-4.33009
22
-0.375075
32
3.74998
13
-4.33009
23
-0.375075
33
3.74998
  0
3DFACE
  8
2
10
-3.46407
20
-0.875048
30
3.41154
11
-4.33009
21
-0.375075
31
3.74998
12
-4.33009
22
-0.125038
32
2.99999
13
-4.33009
23
-0.125038
33
2.99999
  0
3DFACE
  8
2
10
-4.33009
20
-0.125038
30
2.99999
11
-3.46407
21
-0.875048
31
3.41154
12
-3.46407
22
0.124938
32
3.5
13
-3.46407
23
0.124938
33
3.5
  0
3DFACE
  8
2
10
-3.46407
20
0.124938
30
3.5
11
-4.33009
21
-0.375075
31
3.74998
12
-4.33009
22
-0.125038
32
2.99999
13
-4.33009
23
-0.125038
33
2.99999
  0
3DFACE
  8
2
10
-2.59805
20
-3.37505
30
1.74978
11
-1.73204
21
-2.87504
31
1.4998
12
-2.59805
22
-2.37503
32
1.41144
13
-2.59805
23
-2.37503
33
1.41144
  0
3DFACE
  8
2
10
-1.73204
20
-2.87504
30
1.4998
11
-1.73204
21
-1.87506
31
1.74988
12
-2.59805
22
-2.37503
32
1.41144
13
-2.59805
23
-2.37503
33
1.41144
  0
3DFACE
  8
2
10
-1.73204
20
-1.87506
30
1.74988
11
-2.59805
21
-1.37505
31
1.4999
12
-2.59805
22
-2.37503
32
1.41144
13
-2.59805
23
-2.37503
33
1.41144
  0
3DFACE
  8
2
10
-2.59805
20
-1.37505
30
1.4999
11
-3.46407
21
-1.87506
31
1.74988
12
-2.59805
22
-2.37503
32
1.41144
13
-2.59805
23
-2.37503
33
1.41144
  0
3DFACE
  8
2
10
-3.46407
20
-1.87506
30
1.74988
11
-3.46407
21
-2.87504
31
1.4998
12
-2.59805
22
-2.37503
32
1.41144
13
-2.59805
23
-2.37503
33
1.41144
  0
3DFACE
  8
2
10
-3.46407
20
-2.87504
30
1.4998
11
-2.59805
21
-3.37505
31
1.74978
12
-2.59805
22
-2.37503
32
1.41144
13
-2.59805
23
-2.37503
33
1.41144
  0
3DFACE
  8
2
10
-2.59805
20
-3.37505
30
1.74978
11
-2.59805
21
-2.37506
31
1.83824
12
-1.73204
22
-2.87504
32
1.4998
13
-1.73204
23
-2.87504
33
1.4998
  0
3DFACE
  8
2
10
-1.73204
20
-2.87504
30
1.4998
11
-2.59805
21
-2.37506
31
1.83824
12
-1.73204
22
-1.87506
32
1.74988
13
-1.73204
23
-1.87506
33
1.74988
  0
3DFACE
  8
2
10
-1.73204
20
-1.87506
30
1.74988
11
-2.59805
21
-2.37506
31
1.83824
12
-2.59805
22
-1.37505
32
1.4999
13
-2.59805
23
-1.37505
33
1.4999
  0
3DFACE
  8
2
10
-2.59805
20
-1.37505
30
1.4999
11
-2.59805
21
-2.37506
31
1.83824
12
-3.46407
22
-1.87506
32
1.74988
13
-3.46407
23
-1.87506
33
1.74988
  0
3DFACE
  8
2
10
-3.46407
20
-1.87506
30
1.74988
11
-2.59805
21
-2.37506
31
1.83824
12
-3.46407
22
-2.87504
32
1.4998
13
-3.46407
23
-2.87504
33
1.4998
  0
3DFACE
  8
2
10
-3.46407
20
-2.87504
30
1.4998
11
-2.59805
21
-2.37506
31
1.83824
12
-2.59805
22
-3.37505
32
1.74978
13
-2.59805
23
-3.37505
33
1.74978
  0
3DFACE
  8
2
10
-0.866018
20
-3.37505
30
1.74978
11
0
21
-2.87504
31
1.4998
12
-0.866018
22
-2.37503
32
1.41144
13
-0.866018
23
-2.37503
33
1.41144
  0
3DFACE
  8
2
10
0
20
-2.87504
30
1.4998
11
0
21
-1.87506
31
1.74988
12
-0.866018
22
-2.37503
32
1.41144
13
-0.866018
23
-2.37503
33
1.41144
  0
3DFACE
  8
2
10
0
20
-1.87506
30
1.74988
11
-0.866018
21
-1.37505
31
1.4999
12
-0.866018
22
-2.37503
32
1.41144
13
-0.866018
23
-2.37503
33
1.41144
  0
3DFACE
  8
2
10
-0.866018
20
-1.37505
30
1.4999
11
-1.73204
21
-1.87506
31
1.74988
12
-0.866018
22
-2.37503
32
1.41144
13
-0.866018
23
-2.37503
33
1.41144
  0
3DFACE
  8
2
10
-1.73204
20
-1.87506
30
1.74988
11
-1.73204
21
-2.87504
31
1.4998
12
-0.866018
22
-2.37503
32
1.41144
13
-0.866018
23
-2.37503
33
1.41144
  0
3DFACE
  8
2
10
-1.73204
20
-2.87504
30
1.4998
11
-0.866018
21
-3.37505
31
1.74978
12
-0.866018
22
-2.37503
32
1.41144
13
-0.866018
23
-2.37503
33
1.41144
  0
3DFACE
  8
2
10
-0.866018
20
-3.37505
30
1.74978
11
-0.866018
21
-2.37506
31
1.83824
12
0
22
-2.87504
32
1.4998
13
0
23
-2.87504
33
1.4998
  0
3DFACE
  8
2
10
0
20
-2.87504
30
1.4998
11
-0.866018
21
-2.37506
31
1.83824
12
0
22
-1.87506
32
1.74988
13
0
23
-1.87506
33
1.74988
  0
3DFACE
  8
2
10
0
20
-1.87506
30
1.74988
11
-0.866018
21
-2.37506
31
1.83824
12
-0.866018
22
-1.37505
32
1.4999
13
-0.866018
23
-1.37505
33
1.4999
  0
3DFACE
  8
2
10
-0.866018
20
-1.37505
30
1.4999
11
-0.866018
21
-2.37506
31
1.83824
12
-1.73204
22
-1.87506
32
1.74988
13
-1.73204
23
-1.87506
33
1.74988
  0
3DFACE
  8
2
10
-1.73204
20
-1.87506
30
1.74988
11
-0.866018
21
-2.37506
31
1.83824
12
-1.73204
22
-2.87504
32
1.4998
13
-1.73204
23
-2.87504
33
1.4998
  0
3DFACE
  8
2
10
-1.73204
20
-2.87504
30
1.4998
11
-0.866018
21
-2.37506
31
1.83824
12
-0.866018
22
-3.37505
32
1.74978
13
-0.866018
23
-3.37505
33
1.74978
  0
3DFACE
  8
2
10
0.866018
20
-1.37505
30
1.4999
11
0.866018
21
-2.37506
31
1.83824
12
0
22
-1.87506
32
1.74988
13
0
23
-1.87506
33
1.74988
  0
3DFACE
  8
2
10
0
20
-1.87506
30
1.74988
11
0.866018
21
-2.37506
31
1.83824
12
0
22
-2.87504
32
1.4998
13
0
23
-2.87504
33
1.4998
  0
3DFACE
  8
2
10
0
20
-2.87504
30
1.4998
11
0.866018
21
-2.37506
31
1.83824
12
0.866018
22
-3.37505
32
1.74978
13
0.866018
23
-3.37505
33
1.74978
  0
3DFACE
  8
2
10
0.866018
20
-1.37505
30
1.4999
11
0
21
-1.87506
31
1.74988
12
0.866018
22
-2.37503
32
1.41144
13
0.866018
23
-2.37503
33
1.41144
  0
3DFACE
  8
2
10
0
20
-1.87506
30
1.74988
11
0
21
-2.87504
31
1.4998
12
0.866018
22
-2.37503
32
1.41144
13
0.866018
23
-2.37503
33
1.41144
  0
3DFACE
  8
2
10
0
20
-2.87504
30
1.4998
11
0.866018
21
-3.37505
31
1.74978
12
0.866018
22
-2.37503
32
1.41144
13
0.866018
23
-2.37503
33
1.41144
  0
3DFACE
  8
2
10
0.866018
20
-3.37505
30
1.74978
11
0.866018
21
-2.37503
31
1.41144
12
0.866018
22
-2.37506
32
1.83824
13
0.866018
23
-2.37506
33
1.83824
  0
3DFACE
  8
2
10
0.866018
20
-2.37503
30
1.41144
11
0.866018
21
-2.37506
31
1.83824
12
0.866018
22
-1.37505
32
1.4999
13
0.866018
23
-1.37505
33
1.4999
  0
3DFACE
  8
2
10
-4.33009
20
-3.37505
30
1.74978
11
-3.46407
21
-2.87504
31
1.4998
12
-4.33009
22
-2.37503
32
1.41144
13
-4.33009
23
-2.37503
33
1.41144
  0
3DFACE
  8
2
10
-3.46407
20
-2.87504
30
1.4998
11
-3.46407
21
-1.87506
31
1.74988
12
-4.33009
22
-2.37503
32
1.41144
13
-4.33009
23
-2.37503
33
1.41144
  0
3DFACE
  8
2
10
-3.46407
20
-1.87506
30
1.74988
11
-4.33009
21
-1.37505
31
1.4999
12
-4.33009
22
-2.37503
32
1.41144
13
-4.33009
23
-2.37503
33
1.41144
  0
3DFACE
  8
2
10
-3.46407
20
-1.87506
30
1.74988
11
-4.33009
21
-2.37506
31
1.83824
12
-4.33009
22
-1.37505
32
1.4999
13
-4.33009
23
-1.37505
33
1.4999
  0
3DFACE
  8
2
10
-3.46407
20
-2.87504
30
1.4998
11
-4.33009
21
-2.37506
31
1.83824
12
-3.46407
22
-1.87506
32
1.74988
13
-3.46407
23
-1.87506
33
1.74988
  0
3DFACE
  8
2
10
-4.33009
20
-3.37505
30
1.74978
11
-4.33009
21
-2.37506
31
1.83824
12
-3.46407
22
-2.87504
32
1.4998
13
-3.46407
23
-2.87504
33
1.4998
  0
3DFACE
  8
2
10
-4.33009
20
-2.37506
30
1.83824
11
-4.33009
21
-2.37503
31
1.41144
12
-4.33009
22
-3.37505
32
1.74978
13
-4.33009
23
-3.37505
33
1.74978
  0
3DFACE
  8
2
10
-4.33009
20
-2.37506
30
1.83824
11
-4.33009
21
-2.37503
31
1.41144
12
-4.33009
22
-1.37505
32
1.4999
13
-4.33009
23
-1.37505
33
1.4999
  0
ENDSEC
  0
EOF
