999
DXF by Paul Bourke
  0
SECTION
  2
HEADER
  9
$ACADVER
  1
AC1006
  9
$INSBASE
 10
0.0
 20
0.0
 30
0.0
  9
$EXTMIN
 10
0.0
 20
0.0
  9
$EXTMAX
 10
1000.0
 20
1000.0
  9
$LINMIN
 10
0.0
 20
0.0
  9
$LINMAX
 10
1000.0
 20
1000.0
  0
ENDSEC
  0
SECTION
  2
TABLES
  0
TABLE
  2
LTYPE
 70
1
  0
LTYPE
  2
CONTINUOUS
 70
64
  3
Solid line
 72
65
 73
0
 40
0.000000
  0
ENDTAB
  0
TABLE
  2
LAYER
 70
6
  0
LAYER
  2
1
 70
64
 62
7
  6
CONTINUOUS
  0
ENDTAB
  0
TABLE
  2
STYLE
 70
0
  0
ENDTAB
  0
ENDSEC
  0
SECTION
  2
BLOCKS
  0
ENDSEC
  0
SECTION
  2
ENTITIES
  0
3DFACE
  8
2
10
1.08369
20
1.00017
30
5.66452
11
0.584043
21
0.499823
31
6.53054
12
0.421942
22
-0.000291049
32
5.66452
13
0.421942
23
-0.000291049
33
5.66452
  0
3DFACE
  8
2
10
0.584043
20
0.499823
30
6.53054
11
1.08475
21
-0.499823
31
6.53054
12
0.421942
22
-0.000291049
32
5.66452
13
0.421942
23
-0.000291049
33
5.66452
  0
3DFACE
  8
2
10
1.08475
20
-0.499823
30
6.53054
11
0.585101
21
-1.00017
31
5.66452
12
0.421942
22
-0.000291049
32
5.66452
13
0.421942
23
-0.000291049
33
5.66452
  0
3DFACE
  8
2
10
0.585101
20
-1.00017
30
5.66452
11
1.08475
21
-0.499823
31
4.79849
12
0.421942
22
-0.000291049
32
5.66452
13
0.421942
23
-0.000291049
33
5.66452
  0
3DFACE
  8
2
10
1.08475
20
-0.499823
30
4.79849
11
0.584043
21
0.499823
31
4.79849
12
0.421942
22
-0.000291049
32
5.66452
13
0.421942
23
-0.000291049
33
5.66452
  0
3DFACE
  8
2
10
0.584043
20
0.499823
30
4.79849
11
1.08369
21
1.00017
31
5.66452
12
0.421942
22
-0.000291049
32
5.66452
13
0.421942
23
-0.000291049
33
5.66452
  0
3DFACE
  8
2
10
1.08369
20
1.00017
30
5.66452
11
1.24685
21
0.000291049
31
5.66452
12
0.584043
22
0.499823
32
6.53054
13
0.584043
23
0.499823
33
6.53054
  0
3DFACE
  8
2
10
0.584043
20
0.499823
30
6.53054
11
1.24685
21
0.000291049
31
5.66452
12
1.08475
22
-0.499823
32
6.53054
13
1.08475
23
-0.499823
33
6.53054
  0
3DFACE
  8
2
10
1.08475
20
-0.499823
30
6.53054
11
1.24685
21
0.000291049
31
5.66452
12
0.585101
22
-1.00017
32
5.66452
13
0.585101
23
-1.00017
33
5.66452
  0
3DFACE
  8
2
10
0.585101
20
-1.00017
30
5.66452
11
1.24685
21
0.000291049
31
5.66452
12
1.08475
22
-0.499823
32
4.79849
13
1.08475
23
-0.499823
33
4.79849
  0
3DFACE
  8
2
10
1.08475
20
-0.499823
30
4.79849
11
1.24685
21
0.000291049
31
5.66452
12
0.584043
22
0.499823
32
4.79849
13
0.584043
23
0.499823
33
4.79849
  0
3DFACE
  8
2
10
0.584043
20
0.499823
30
4.79849
11
1.24685
21
0.000291049
31
5.66452
12
1.08369
22
1.00017
32
5.66452
13
1.08369
23
1.00017
33
5.66452
  0
3DFACE
  8
2
10
1.08263
20
2.50016
30
4.79849
11
0.582984
21
1.99982
31
5.66452
12
0.420884
22
1.4997
32
4.79849
13
0.420884
23
1.4997
33
4.79849
  0
3DFACE
  8
2
10
0.582984
20
1.99982
30
5.66452
11
1.08369
21
1.00017
31
5.66452
12
0.420884
22
1.4997
32
4.79849
13
0.420884
23
1.4997
33
4.79849
  0
3DFACE
  8
2
10
1.08369
20
1.00017
30
5.66452
11
0.584043
21
0.499823
31
4.79849
12
0.420884
22
1.4997
32
4.79849
13
0.420884
23
1.4997
33
4.79849
  0
3DFACE
  8
2
10
0.584043
20
0.499823
30
4.79849
11
1.08369
21
1.00017
31
3.93247
12
0.420884
22
1.4997
32
4.79849
13
0.420884
23
1.4997
33
4.79849
  0
3DFACE
  8
2
10
1.08369
20
1.00017
30
3.93247
11
0.582984
21
1.99982
31
3.93247
12
0.420884
22
1.4997
32
4.79849
13
0.420884
23
1.4997
33
4.79849
  0
3DFACE
  8
2
10
0.582984
20
1.99982
30
3.93247
11
1.08263
21
2.50016
31
4.79849
12
0.420884
22
1.4997
32
4.79849
13
0.420884
23
1.4997
33
4.79849
  0
3DFACE
  8
2
10
1.08263
20
2.50016
30
4.79849
11
1.24579
21
1.50028
31
4.79849
12
0.582984
22
1.99982
32
5.66452
13
0.582984
23
1.99982
33
5.66452
  0
3DFACE
  8
2
10
0.582984
20
1.99982
30
5.66452
11
1.24579
21
1.50028
31
4.79849
12
1.08369
22
1.00017
32
5.66452
13
1.08369
23
1.00017
33
5.66452
  0
3DFACE
  8
2
10
1.08369
20
1.00017
30
5.66452
11
1.24579
21
1.50028
31
4.79849
12
0.584043
22
0.499823
32
4.79849
13
0.584043
23
0.499823
33
4.79849
  0
3DFACE
  8
2
10
0.584043
20
0.499823
30
4.79849
11
1.24579
21
1.50028
31
4.79849
12
1.08369
22
1.00017
32
3.93247
13
1.08369
23
1.00017
33
3.93247
  0
3DFACE
  8
2
10
1.08369
20
1.00017
30
3.93247
11
1.24579
21
1.50028
31
4.79849
12
0.582984
22
1.99982
32
3.93247
13
0.582984
23
1.99982
33
3.93247
  0
3DFACE
  8
2
10
0.582984
20
1.99982
30
3.93247
11
1.24579
21
1.50028
31
4.79849
12
1.08263
22
2.50016
32
4.79849
13
1.08263
23
2.50016
33
4.79849
  0
3DFACE
  8
2
10
1.08369
20
1.00017
30
3.93247
11
0.584043
21
0.499823
31
4.79849
12
0.421942
22
-0.000291049
32
3.93247
13
0.421942
23
-0.000291049
33
3.93247
  0
3DFACE
  8
2
10
0.584043
20
0.499823
30
4.79849
11
1.08475
21
-0.499823
31
4.79849
12
0.421942
22
-0.000291049
32
3.93247
13
0.421942
23
-0.000291049
33
3.93247
  0
3DFACE
  8
2
10
1.08475
20
-0.499823
30
4.79849
11
0.585101
21
-1.00017
31
3.93247
12
0.421942
22
-0.000291049
32
3.93247
13
0.421942
23
-0.000291049
33
3.93247
  0
3DFACE
  8
2
10
0.585101
20
-1.00017
30
3.93247
11
1.08475
21
-0.499823
31
3.06644
12
0.421942
22
-0.000291049
32
3.93247
13
0.421942
23
-0.000291049
33
3.93247
  0
3DFACE
  8
2
10
1.08475
20
-0.499823
30
3.06644
11
0.584043
21
0.499823
31
3.06644
12
0.421942
22
-0.000291049
32
3.93247
13
0.421942
23
-0.000291049
33
3.93247
  0
3DFACE
  8
2
10
0.584043
20
0.499823
30
3.06644
11
1.08369
21
1.00017
31
3.93247
12
0.421942
22
-0.000291049
32
3.93247
13
0.421942
23
-0.000291049
33
3.93247
  0
3DFACE
  8
2
10
1.08369
20
1.00017
30
3.93247
11
1.24685
21
0.000291049
31
3.93247
12
0.584043
22
0.499823
32
4.79849
13
0.584043
23
0.499823
33
4.79849
  0
3DFACE
  8
2
10
0.584043
20
0.499823
30
4.79849
11
1.24685
21
0.000291049
31
3.93247
12
1.08475
22
-0.499823
32
4.79849
13
1.08475
23
-0.499823
33
4.79849
  0
3DFACE
  8
2
10
1.08475
20
-0.499823
30
4.79849
11
1.24685
21
0.000291049
31
3.93247
12
0.585101
22
-1.00017
32
3.93247
13
0.585101
23
-1.00017
33
3.93247
  0
3DFACE
  8
2
10
0.585101
20
-1.00017
30
3.93247
11
1.24685
21
0.000291049
31
3.93247
12
1.08475
22
-0.499823
32
3.06644
13
1.08475
23
-0.499823
33
3.06644
  0
3DFACE
  8
2
10
1.08475
20
-0.499823
30
3.06644
11
1.24685
21
0.000291049
31
3.93247
12
0.584043
22
0.499823
32
3.06644
13
0.584043
23
0.499823
33
3.06644
  0
3DFACE
  8
2
10
0.584043
20
0.499823
30
3.06644
11
1.24685
21
0.000291049
31
3.93247
12
1.08369
22
1.00017
32
3.93247
13
1.08369
23
1.00017
33
3.93247
  0
3DFACE
  8
2
10
1.08263
20
2.50016
30
3.06644
11
0.582984
21
1.99982
31
3.93247
12
0.420884
22
1.4997
32
3.06644
13
0.420884
23
1.4997
33
3.06644
  0
3DFACE
  8
2
10
0.582984
20
1.99982
30
3.93247
11
1.08369
21
1.00017
31
3.93247
12
0.420884
22
1.4997
32
3.06644
13
0.420884
23
1.4997
33
3.06644
  0
3DFACE
  8
2
10
1.08369
20
1.00017
30
3.93247
11
0.584043
21
0.499823
31
3.06644
12
0.420884
22
1.4997
32
3.06644
13
0.420884
23
1.4997
33
3.06644
  0
3DFACE
  8
2
10
0.584043
20
0.499823
30
3.06644
11
1.08369
21
1.00017
31
2.20042
12
0.420884
22
1.4997
32
3.06644
13
0.420884
23
1.4997
33
3.06644
  0
3DFACE
  8
2
10
1.08369
20
1.00017
30
2.20042
11
0.582984
21
1.99982
31
2.20042
12
0.420884
22
1.4997
32
3.06644
13
0.420884
23
1.4997
33
3.06644
  0
3DFACE
  8
2
10
0.582984
20
1.99982
30
2.20042
11
1.08263
21
2.50016
31
3.06644
12
0.420884
22
1.4997
32
3.06644
13
0.420884
23
1.4997
33
3.06644
  0
3DFACE
  8
2
10
1.08263
20
2.50016
30
3.06644
11
1.24579
21
1.50028
31
3.06644
12
0.582984
22
1.99982
32
3.93247
13
0.582984
23
1.99982
33
3.93247
  0
3DFACE
  8
2
10
0.582984
20
1.99982
30
3.93247
11
1.24579
21
1.50028
31
3.06644
12
1.08369
22
1.00017
32
3.93247
13
1.08369
23
1.00017
33
3.93247
  0
3DFACE
  8
2
10
1.08369
20
1.00017
30
3.93247
11
1.24579
21
1.50028
31
3.06644
12
0.584043
22
0.499823
32
3.06644
13
0.584043
23
0.499823
33
3.06644
  0
3DFACE
  8
2
10
0.584043
20
0.499823
30
3.06644
11
1.24579
21
1.50028
31
3.06644
12
1.08369
22
1.00017
32
2.20042
13
1.08369
23
1.00017
33
2.20042
  0
3DFACE
  8
2
10
1.08369
20
1.00017
30
2.20042
11
1.24579
21
1.50028
31
3.06644
12
0.582984
22
1.99982
32
2.20042
13
0.582984
23
1.99982
33
2.20042
  0
3DFACE
  8
2
10
0.582984
20
1.99982
30
2.20042
11
1.24579
21
1.50028
31
3.06644
12
1.08263
22
2.50016
32
3.06644
13
1.08263
23
2.50016
33
3.06644
  0
3DFACE
  8
2
10
1.08369
20
1.00017
30
2.20042
11
0.584043
21
0.499823
31
3.06644
12
0.421942
22
-0.000291049
32
2.20042
13
0.421942
23
-0.000291049
33
2.20042
  0
3DFACE
  8
2
10
0.584043
20
0.499823
30
3.06644
11
1.08475
21
-0.499823
31
3.06644
12
0.421942
22
-0.000291049
32
2.20042
13
0.421942
23
-0.000291049
33
2.20042
  0
3DFACE
  8
2
10
1.08475
20
-0.499823
30
3.06644
11
0.585101
21
-1.00017
31
2.20042
12
0.421942
22
-0.000291049
32
2.20042
13
0.421942
23
-0.000291049
33
2.20042
  0
3DFACE
  8
2
10
0.585101
20
-1.00017
30
2.20042
11
1.08475
21
-0.499823
31
1.3344
12
0.421942
22
-0.000291049
32
2.20042
13
0.421942
23
-0.000291049
33
2.20042
  0
3DFACE
  8
2
10
1.08475
20
-0.499823
30
1.3344
11
0.584043
21
0.499823
31
1.3344
12
0.421942
22
-0.000291049
32
2.20042
13
0.421942
23
-0.000291049
33
2.20042
  0
3DFACE
  8
2
10
0.584043
20
0.499823
30
1.3344
11
1.08369
21
1.00017
31
2.20042
12
0.421942
22
-0.000291049
32
2.20042
13
0.421942
23
-0.000291049
33
2.20042
  0
3DFACE
  8
2
10
1.08369
20
1.00017
30
2.20042
11
1.24685
21
0.000291049
31
2.20042
12
0.584043
22
0.499823
32
3.06644
13
0.584043
23
0.499823
33
3.06644
  0
3DFACE
  8
2
10
0.584043
20
0.499823
30
3.06644
11
1.24685
21
0.000291049
31
2.20042
12
1.08475
22
-0.499823
32
3.06644
13
1.08475
23
-0.499823
33
3.06644
  0
3DFACE
  8
2
10
1.08475
20
-0.499823
30
3.06644
11
1.24685
21
0.000291049
31
2.20042
12
0.585101
22
-1.00017
32
2.20042
13
0.585101
23
-1.00017
33
2.20042
  0
3DFACE
  8
2
10
0.585101
20
-1.00017
30
2.20042
11
1.24685
21
0.000291049
31
2.20042
12
1.08475
22
-0.499823
32
1.3344
13
1.08475
23
-0.499823
33
1.3344
  0
3DFACE
  8
2
10
1.08475
20
-0.499823
30
1.3344
11
1.24685
21
0.000291049
31
2.20042
12
0.584043
22
0.499823
32
1.3344
13
0.584043
23
0.499823
33
1.3344
  0
3DFACE
  8
2
10
0.584043
20
0.499823
30
1.3344
11
1.24685
21
0.000291049
31
2.20042
12
1.08369
22
1.00017
32
2.20042
13
1.08369
23
1.00017
33
2.20042
  0
3DFACE
  8
2
10
1.08475
20
-0.499823
30
4.79849
11
0.585101
21
-1.00017
31
5.66452
12
0.423
22
-1.50028
32
4.79849
13
0.423
23
-1.50028
33
4.79849
  0
3DFACE
  8
2
10
0.585101
20
-1.00017
30
5.66452
11
1.08581
21
-1.99982
31
5.66452
12
0.423
22
-1.50028
32
4.79849
13
0.423
23
-1.50028
33
4.79849
  0
3DFACE
  8
2
10
1.08581
20
-1.99982
30
5.66452
11
0.586159
21
-2.50016
31
4.79849
12
0.423
22
-1.50028
32
4.79849
13
0.423
23
-1.50028
33
4.79849
  0
3DFACE
  8
2
10
0.586159
20
-2.50016
30
4.79849
11
1.08581
21
-1.99982
31
3.93247
12
0.423
22
-1.50028
32
4.79849
13
0.423
23
-1.50028
33
4.79849
  0
3DFACE
  8
2
10
1.08581
20
-1.99982
30
3.93247
11
0.585101
21
-1.00017
31
3.93247
12
0.423
22
-1.50028
32
4.79849
13
0.423
23
-1.50028
33
4.79849
  0
3DFACE
  8
2
10
0.585101
20
-1.00017
30
3.93247
11
1.08475
21
-0.499823
31
4.79849
12
0.423
22
-1.50028
32
4.79849
13
0.423
23
-1.50028
33
4.79849
  0
3DFACE
  8
2
10
1.08475
20
-0.499823
30
4.79849
11
1.24791
21
-1.4997
31
4.79849
12
0.585101
22
-1.00017
32
5.66452
13
0.585101
23
-1.00017
33
5.66452
  0
3DFACE
  8
2
10
0.585101
20
-1.00017
30
5.66452
11
1.24791
21
-1.4997
31
4.79849
12
1.08581
22
-1.99982
32
5.66452
13
1.08581
23
-1.99982
33
5.66452
  0
3DFACE
  8
2
10
1.08581
20
-1.99982
30
5.66452
11
1.24791
21
-1.4997
31
4.79849
12
0.586159
22
-2.50016
32
4.79849
13
0.586159
23
-2.50016
33
4.79849
  0
3DFACE
  8
2
10
0.586159
20
-2.50016
30
4.79849
11
1.24791
21
-1.4997
31
4.79849
12
1.08581
22
-1.99982
32
3.93247
13
1.08581
23
-1.99982
33
3.93247
  0
3DFACE
  8
2
10
1.08581
20
-1.99982
30
3.93247
11
1.24791
21
-1.4997
31
4.79849
12
0.585101
22
-1.00017
32
3.93247
13
0.585101
23
-1.00017
33
3.93247
  0
3DFACE
  8
2
10
0.585101
20
-1.00017
30
3.93247
11
1.24791
21
-1.4997
31
4.79849
12
1.08475
22
-0.499823
32
4.79849
13
1.08475
23
-0.499823
33
4.79849
  0
3DFACE
  8
2
10
1.08475
20
-0.499823
30
3.06644
11
0.585101
21
-1.00017
31
3.93247
12
0.423
22
-1.50028
32
3.06644
13
0.423
23
-1.50028
33
3.06644
  0
3DFACE
  8
2
10
0.585101
20
-1.00017
30
3.93247
11
1.08581
21
-1.99982
31
3.93247
12
0.423
22
-1.50028
32
3.06644
13
0.423
23
-1.50028
33
3.06644
  0
3DFACE
  8
2
10
1.08581
20
-1.99982
30
3.93247
11
0.586159
21
-2.50016
31
3.06644
12
0.423
22
-1.50028
32
3.06644
13
0.423
23
-1.50028
33
3.06644
  0
3DFACE
  8
2
10
0.586159
20
-2.50016
30
3.06644
11
1.08581
21
-1.99982
31
2.20042
12
0.423
22
-1.50028
32
3.06644
13
0.423
23
-1.50028
33
3.06644
  0
3DFACE
  8
2
10
1.08581
20
-1.99982
30
2.20042
11
0.585101
21
-1.00017
31
2.20042
12
0.423
22
-1.50028
32
3.06644
13
0.423
23
-1.50028
33
3.06644
  0
3DFACE
  8
2
10
0.585101
20
-1.00017
30
2.20042
11
1.08475
21
-0.499823
31
3.06644
12
0.423
22
-1.50028
32
3.06644
13
0.423
23
-1.50028
33
3.06644
  0
3DFACE
  8
2
10
1.08475
20
-0.499823
30
3.06644
11
1.24791
21
-1.4997
31
3.06644
12
0.585101
22
-1.00017
32
3.93247
13
0.585101
23
-1.00017
33
3.93247
  0
3DFACE
  8
2
10
0.585101
20
-1.00017
30
3.93247
11
1.24791
21
-1.4997
31
3.06644
12
1.08581
22
-1.99982
32
3.93247
13
1.08581
23
-1.99982
33
3.93247
  0
3DFACE
  8
2
10
1.08581
20
-1.99982
30
3.93247
11
1.24791
21
-1.4997
31
3.06644
12
0.586159
22
-2.50016
32
3.06644
13
0.586159
23
-2.50016
33
3.06644
  0
3DFACE
  8
2
10
0.586159
20
-2.50016
30
3.06644
11
1.24791
21
-1.4997
31
3.06644
12
1.08581
22
-1.99982
32
2.20042
13
1.08581
23
-1.99982
33
2.20042
  0
3DFACE
  8
2
10
1.08581
20
-1.99982
30
2.20042
11
1.24791
21
-1.4997
31
3.06644
12
0.585101
22
-1.00017
32
2.20042
13
0.585101
23
-1.00017
33
2.20042
  0
3DFACE
  8
2
10
0.585101
20
-1.00017
30
2.20042
11
1.24791
21
-1.4997
31
3.06644
12
1.08475
22
-0.499823
32
3.06644
13
1.08475
23
-0.499823
33
3.06644
  0
3DFACE
  8
2
10
1.08581
20
-1.99982
30
5.66452
11
0.586159
21
-2.50016
31
6.53054
12
0.424057
22
-3.00028
32
5.66452
13
0.424057
23
-3.00028
33
5.66452
  0
3DFACE
  8
2
10
0.586159
20
-2.50016
30
6.53054
11
1.08687
21
-3.49981
31
6.53054
12
0.424057
22
-3.00028
32
5.66452
13
0.424057
23
-3.00028
33
5.66452
  0
3DFACE
  8
2
10
1.08687
20
-3.49981
30
6.53054
11
0.587217
21
-4.00016
31
5.66452
12
0.424057
22
-3.00028
32
5.66452
13
0.424057
23
-3.00028
33
5.66452
  0
3DFACE
  8
2
10
0.587217
20
-4.00016
30
5.66452
11
1.08687
21
-3.49981
31
4.79849
12
0.424057
22
-3.00028
32
5.66452
13
0.424057
23
-3.00028
33
5.66452
  0
3DFACE
  8
2
10
1.08687
20
-3.49981
30
4.79849
11
0.586159
21
-2.50016
31
4.79849
12
0.424057
22
-3.00028
32
5.66452
13
0.424057
23
-3.00028
33
5.66452
  0
3DFACE
  8
2
10
0.586159
20
-2.50016
30
4.79849
11
1.08581
21
-1.99982
31
5.66452
12
0.424057
22
-3.00028
32
5.66452
13
0.424057
23
-3.00028
33
5.66452
  0
3DFACE
  8
2
10
1.08581
20
-1.99982
30
5.66452
11
1.24897
21
-2.9997
31
5.66452
12
0.586159
22
-2.50016
32
6.53054
13
0.586159
23
-2.50016
33
6.53054
  0
3DFACE
  8
2
10
0.586159
20
-2.50016
30
6.53054
11
1.24897
21
-2.9997
31
5.66452
12
1.08687
22
-3.49981
32
6.53054
13
1.08687
23
-3.49981
33
6.53054
  0
3DFACE
  8
2
10
1.08687
20
-3.49981
30
6.53054
11
1.24897
21
-2.9997
31
5.66452
12
0.587217
22
-4.00016
32
5.66452
13
0.587217
23
-4.00016
33
5.66452
  0
3DFACE
  8
2
10
0.587217
20
-4.00016
30
5.66452
11
1.24897
21
-2.9997
31
5.66452
12
1.08687
22
-3.49981
32
4.79849
13
1.08687
23
-3.49981
33
4.79849
  0
3DFACE
  8
2
10
1.08687
20
-3.49981
30
4.79849
11
1.24897
21
-2.9997
31
5.66452
12
0.586159
22
-2.50016
32
4.79849
13
0.586159
23
-2.50016
33
4.79849
  0
3DFACE
  8
2
10
0.586159
20
-2.50016
30
4.79849
11
1.24897
21
-2.9997
31
5.66452
12
1.08581
22
-1.99982
32
5.66452
13
1.08581
23
-1.99982
33
5.66452
  0
3DFACE
  8
2
10
1.08581
20
-1.99982
30
3.93247
11
0.586159
21
-2.50016
31
4.79849
12
0.424057
22
-3.00028
32
3.93247
13
0.424057
23
-3.00028
33
3.93247
  0
3DFACE
  8
2
10
0.586159
20
-2.50016
30
4.79849
11
1.08687
21
-3.49981
31
4.79849
12
0.424057
22
-3.00028
32
3.93247
13
0.424057
23
-3.00028
33
3.93247
  0
3DFACE
  8
2
10
1.08687
20
-3.49981
30
4.79849
11
0.587217
21
-4.00016
31
3.93247
12
0.424057
22
-3.00028
32
3.93247
13
0.424057
23
-3.00028
33
3.93247
  0
3DFACE
  8
2
10
0.587217
20
-4.00016
30
3.93247
11
1.08687
21
-3.49981
31
3.06644
12
0.424057
22
-3.00028
32
3.93247
13
0.424057
23
-3.00028
33
3.93247
  0
3DFACE
  8
2
10
1.08687
20
-3.49981
30
3.06644
11
0.586159
21
-2.50016
31
3.06644
12
0.424057
22
-3.00028
32
3.93247
13
0.424057
23
-3.00028
33
3.93247
  0
3DFACE
  8
2
10
0.586159
20
-2.50016
30
3.06644
11
1.08581
21
-1.99982
31
3.93247
12
0.424057
22
-3.00028
32
3.93247
13
0.424057
23
-3.00028
33
3.93247
  0
3DFACE
  8
2
10
1.08581
20
-1.99982
30
3.93247
11
1.24897
21
-2.9997
31
3.93247
12
0.586159
22
-2.50016
32
4.79849
13
0.586159
23
-2.50016
33
4.79849
  0
3DFACE
  8
2
10
0.586159
20
-2.50016
30
4.79849
11
1.24897
21
-2.9997
31
3.93247
12
1.08687
22
-3.49981
32
4.79849
13
1.08687
23
-3.49981
33
4.79849
  0
3DFACE
  8
2
10
1.08687
20
-3.49981
30
4.79849
11
1.24897
21
-2.9997
31
3.93247
12
0.587217
22
-4.00016
32
3.93247
13
0.587217
23
-4.00016
33
3.93247
  0
3DFACE
  8
2
10
0.587217
20
-4.00016
30
3.93247
11
1.24897
21
-2.9997
31
3.93247
12
1.08687
22
-3.49981
32
3.06644
13
1.08687
23
-3.49981
33
3.06644
  0
3DFACE
  8
2
10
1.08687
20
-3.49981
30
3.06644
11
1.24897
21
-2.9997
31
3.93247
12
0.586159
22
-2.50016
32
3.06644
13
0.586159
23
-2.50016
33
3.06644
  0
3DFACE
  8
2
10
0.586159
20
-2.50016
30
3.06644
11
1.24897
21
-2.9997
31
3.93247
12
1.08581
22
-1.99982
32
3.93247
13
1.08581
23
-1.99982
33
3.93247
  0
3DFACE
  8
2
10
1.08581
20
-1.99982
30
2.20042
11
0.586159
21
-2.50016
31
3.06644
12
0.424057
22
-3.00028
32
2.20042
13
0.424057
23
-3.00028
33
2.20042
  0
3DFACE
  8
2
10
0.586159
20
-2.50016
30
3.06644
11
1.08687
21
-3.49981
31
3.06644
12
0.424057
22
-3.00028
32
2.20042
13
0.424057
23
-3.00028
33
2.20042
  0
3DFACE
  8
2
10
1.08687
20
-3.49981
30
3.06644
11
0.587217
21
-4.00016
31
2.20042
12
0.424057
22
-3.00028
32
2.20042
13
0.424057
23
-3.00028
33
2.20042
  0
3DFACE
  8
2
10
0.587217
20
-4.00016
30
2.20042
11
1.08687
21
-3.49981
31
1.3344
12
0.424057
22
-3.00028
32
2.20042
13
0.424057
23
-3.00028
33
2.20042
  0
3DFACE
  8
2
10
1.08687
20
-3.49981
30
1.3344
11
0.586159
21
-2.50016
31
1.3344
12
0.424057
22
-3.00028
32
2.20042
13
0.424057
23
-3.00028
33
2.20042
  0
3DFACE
  8
2
10
0.586159
20
-2.50016
30
1.3344
11
1.08581
21
-1.99982
31
2.20042
12
0.424057
22
-3.00028
32
2.20042
13
0.424057
23
-3.00028
33
2.20042
  0
3DFACE
  8
2
10
1.08581
20
-1.99982
30
2.20042
11
1.24897
21
-2.9997
31
2.20042
12
0.586159
22
-2.50016
32
3.06644
13
0.586159
23
-2.50016
33
3.06644
  0
3DFACE
  8
2
10
0.586159
20
-2.50016
30
3.06644
11
1.24897
21
-2.9997
31
2.20042
12
1.08687
22
-3.49981
32
3.06644
13
1.08687
23
-3.49981
33
3.06644
  0
3DFACE
  8
2
10
1.08687
20
-3.49981
30
3.06644
11
1.24897
21
-2.9997
31
2.20042
12
0.587217
22
-4.00016
32
2.20042
13
0.587217
23
-4.00016
33
2.20042
  0
3DFACE
  8
2
10
0.587217
20
-4.00016
30
2.20042
11
1.24897
21
-2.9997
31
2.20042
12
1.08687
22
-3.49981
32
1.3344
13
1.08687
23
-3.49981
33
1.3344
  0
3DFACE
  8
2
10
1.08687
20
-3.49981
30
1.3344
11
1.24897
21
-2.9997
31
2.20042
12
0.586159
22
-2.50016
32
1.3344
13
0.586159
23
-2.50016
33
1.3344
  0
3DFACE
  8
2
10
0.586159
20
-2.50016
30
1.3344
11
1.24897
21
-2.9997
31
2.20042
12
1.08581
22
-1.99982
32
2.20042
13
1.08581
23
-1.99982
33
2.20042
  0
3DFACE
  8
2
10
-3.91346
20
-3.99629
30
1.3344
11
-3.41311
21
-3.49663
31
0.468373
12
-2.913
22
-3.33453
32
1.3344
13
-2.913
23
-3.33453
33
1.3344
  0
3DFACE
  8
2
10
-3.41311
20
-3.49663
30
0.468373
11
-2.41347
21
-3.99734
31
0.468373
12
-2.913
22
-3.33453
32
1.3344
13
-2.913
23
-3.33453
33
1.3344
  0
3DFACE
  8
2
10
-2.41347
20
-3.99734
30
0.468373
11
-1.91312
21
-3.49769
31
1.3344
12
-2.913
22
-3.33453
32
1.3344
13
-2.913
23
-3.33453
33
1.3344
  0
3DFACE
  8
2
10
-1.91312
20
-3.49769
30
1.3344
11
-2.41347
21
-3.99734
31
2.20042
12
-2.913
22
-3.33453
32
1.3344
13
-2.913
23
-3.33453
33
1.3344
  0
3DFACE
  8
2
10
-2.41347
20
-3.99734
30
2.20042
11
-3.41311
21
-3.49663
31
2.20042
12
-2.913
22
-3.33453
32
1.3344
13
-2.913
23
-3.33453
33
1.3344
  0
3DFACE
  8
2
10
-3.41311
20
-3.49663
30
2.20042
11
-3.91346
21
-3.99629
31
1.3344
12
-2.913
22
-3.33453
32
1.3344
13
-2.913
23
-3.33453
33
1.3344
  0
3DFACE
  8
2
10
-3.91346
20
-3.99629
30
1.3344
11
-2.91358
21
-4.15944
31
1.3344
12
-3.41311
22
-3.49663
32
0.468373
13
-3.41311
23
-3.49663
33
0.468373
  0
3DFACE
  8
2
10
-3.41311
20
-3.49663
30
0.468373
11
-2.91358
21
-4.15944
31
1.3344
12
-2.41347
22
-3.99734
32
0.468373
13
-2.41347
23
-3.99734
33
0.468373
  0
3DFACE
  8
2
10
-2.41347
20
-3.99734
30
0.468373
11
-2.91358
21
-4.15944
31
1.3344
12
-1.91312
22
-3.49769
32
1.3344
13
-1.91312
23
-3.49769
33
1.3344
  0
3DFACE
  8
2
10
-1.91312
20
-3.49769
30
1.3344
11
-2.91358
21
-4.15944
31
1.3344
12
-2.41347
22
-3.99734
32
2.20042
13
-2.41347
23
-3.99734
33
2.20042
  0
3DFACE
  8
2
10
-2.41347
20
-3.99734
30
2.20042
11
-2.91358
21
-4.15944
31
1.3344
12
-3.41311
22
-3.49663
32
2.20042
13
-3.41311
23
-3.49663
33
2.20042
  0
3DFACE
  8
2
10
-3.41311
20
-3.49663
30
2.20042
11
-2.91358
21
-4.15944
31
1.3344
12
-3.91346
22
-3.99629
32
1.3344
13
-3.91346
23
-3.99629
33
1.3344
  0
3DFACE
  8
2
10
-5.41345
20
-3.99523
30
2.20042
11
-4.91311
21
-3.49558
31
1.3344
12
-4.41299
22
-3.33348
32
2.20042
13
-4.41299
23
-3.33348
33
2.20042
  0
3DFACE
  8
2
10
-4.91311
20
-3.49558
30
1.3344
11
-3.91346
21
-3.99629
31
1.3344
12
-4.41299
22
-3.33348
32
2.20042
13
-4.41299
23
-3.33348
33
2.20042
  0
3DFACE
  8
2
10
-3.91346
20
-3.99629
30
1.3344
11
-3.41311
21
-3.49663
31
2.20042
12
-4.41299
22
-3.33348
32
2.20042
13
-4.41299
23
-3.33348
33
2.20042
  0
3DFACE
  8
2
10
-3.41311
20
-3.49663
30
2.20042
11
-3.91346
21
-3.99629
31
3.06644
12
-4.41299
22
-3.33348
32
2.20042
13
-4.41299
23
-3.33348
33
2.20042
  0
3DFACE
  8
2
10
-3.91346
20
-3.99629
30
3.06644
11
-4.91311
21
-3.49558
31
3.06644
12
-4.41299
22
-3.33348
32
2.20042
13
-4.41299
23
-3.33348
33
2.20042
  0
3DFACE
  8
2
10
-4.91311
20
-3.49558
30
3.06644
11
-5.41345
21
-3.99523
31
2.20042
12
-4.41299
22
-3.33348
32
2.20042
13
-4.41299
23
-3.33348
33
2.20042
  0
3DFACE
  8
2
10
-5.41345
20
-3.99523
30
2.20042
11
-4.41357
21
-4.15839
31
2.20042
12
-4.91311
22
-3.49558
32
1.3344
13
-4.91311
23
-3.49558
33
1.3344
  0
3DFACE
  8
2
10
-4.91311
20
-3.49558
30
1.3344
11
-4.41357
21
-4.15839
31
2.20042
12
-3.91346
22
-3.99629
32
1.3344
13
-3.91346
23
-3.99629
33
1.3344
  0
3DFACE
  8
2
10
-3.91346
20
-3.99629
30
1.3344
11
-4.41357
21
-4.15839
31
2.20042
12
-3.41311
22
-3.49663
32
2.20042
13
-3.41311
23
-3.49663
33
2.20042
  0
3DFACE
  8
2
10
-3.41311
20
-3.49663
30
2.20042
11
-4.41357
21
-4.15839
31
2.20042
12
-3.91346
22
-3.99629
32
3.06644
13
-3.91346
23
-3.99629
33
3.06644
  0
3DFACE
  8
2
10
-3.91346
20
-3.99629
30
3.06644
11
-4.41357
21
-4.15839
31
2.20042
12
-4.91311
22
-3.49558
32
3.06644
13
-4.91311
23
-3.49558
33
3.06644
  0
3DFACE
  8
2
10
-4.91311
20
-3.49558
30
3.06644
11
-4.41357
21
-4.15839
31
2.20042
12
-5.41345
22
-3.99523
32
2.20042
13
-5.41345
23
-3.99523
33
2.20042
  0
3DFACE
  8
2
10
-3.91346
20
-3.99629
30
3.06644
11
-3.41311
21
-3.49663
31
2.20042
12
-2.913
22
-3.33453
32
3.06644
13
-2.913
23
-3.33453
33
3.06644
  0
3DFACE
  8
2
10
-3.41311
20
-3.49663
30
2.20042
11
-2.41347
21
-3.99734
31
2.20042
12
-2.913
22
-3.33453
32
3.06644
13
-2.913
23
-3.33453
33
3.06644
  0
3DFACE
  8
2
10
-2.41347
20
-3.99734
30
2.20042
11
-1.91312
21
-3.49769
31
3.06644
12
-2.913
22
-3.33453
32
3.06644
13
-2.913
23
-3.33453
33
3.06644
  0
3DFACE
  8
2
10
-1.91312
20
-3.49769
30
3.06644
11
-2.41347
21
-3.99734
31
3.93247
12
-2.913
22
-3.33453
32
3.06644
13
-2.913
23
-3.33453
33
3.06644
  0
3DFACE
  8
2
10
-2.41347
20
-3.99734
30
3.93247
11
-3.41311
21
-3.49663
31
3.93247
12
-2.913
22
-3.33453
32
3.06644
13
-2.913
23
-3.33453
33
3.06644
  0
3DFACE
  8
2
10
-3.41311
20
-3.49663
30
3.93247
11
-3.91346
21
-3.99629
31
3.06644
12
-2.913
22
-3.33453
32
3.06644
13
-2.913
23
-3.33453
33
3.06644
  0
3DFACE
  8
2
10
-3.91346
20
-3.99629
30
3.06644
11
-2.91358
21
-4.15944
31
3.06644
12
-3.41311
22
-3.49663
32
2.20042
13
-3.41311
23
-3.49663
33
2.20042
  0
3DFACE
  8
2
10
-3.41311
20
-3.49663
30
2.20042
11
-2.91358
21
-4.15944
31
3.06644
12
-2.41347
22
-3.99734
32
2.20042
13
-2.41347
23
-3.99734
33
2.20042
  0
3DFACE
  8
2
10
-2.41347
20
-3.99734
30
2.20042
11
-2.91358
21
-4.15944
31
3.06644
12
-1.91312
22
-3.49769
32
3.06644
13
-1.91312
23
-3.49769
33
3.06644
  0
3DFACE
  8
2
10
-1.91312
20
-3.49769
30
3.06644
11
-2.91358
21
-4.15944
31
3.06644
12
-2.41347
22
-3.99734
32
3.93247
13
-2.41347
23
-3.99734
33
3.93247
  0
3DFACE
  8
2
10
-2.41347
20
-3.99734
30
3.93247
11
-2.91358
21
-4.15944
31
3.06644
12
-3.41311
22
-3.49663
32
3.93247
13
-3.41311
23
-3.49663
33
3.93247
  0
3DFACE
  8
2
10
-3.41311
20
-3.49663
30
3.93247
11
-2.91358
21
-4.15944
31
3.06644
12
-3.91346
22
-3.99629
32
3.06644
13
-3.91346
23
-3.99629
33
3.06644
  0
3DFACE
  8
2
10
-5.41345
20
-3.99523
30
3.93247
11
-4.91311
21
-3.49558
31
3.06644
12
-4.41299
22
-3.33348
32
3.93247
13
-4.41299
23
-3.33348
33
3.93247
  0
3DFACE
  8
2
10
-4.91311
20
-3.49558
30
3.06644
11
-3.91346
21
-3.99629
31
3.06644
12
-4.41299
22
-3.33348
32
3.93247
13
-4.41299
23
-3.33348
33
3.93247
  0
3DFACE
  8
2
10
-3.91346
20
-3.99629
30
3.06644
11
-3.41311
21
-3.49663
31
3.93247
12
-4.41299
22
-3.33348
32
3.93247
13
-4.41299
23
-3.33348
33
3.93247
  0
3DFACE
  8
2
10
-3.41311
20
-3.49663
30
3.93247
11
-3.91346
21
-3.99629
31
4.79849
12
-4.41299
22
-3.33348
32
3.93247
13
-4.41299
23
-3.33348
33
3.93247
  0
3DFACE
  8
2
10
-3.91346
20
-3.99629
30
4.79849
11
-4.91311
21
-3.49558
31
4.79849
12
-4.41299
22
-3.33348
32
3.93247
13
-4.41299
23
-3.33348
33
3.93247
  0
3DFACE
  8
2
10
-4.91311
20
-3.49558
30
4.79849
11
-5.41345
21
-3.99523
31
3.93247
12
-4.41299
22
-3.33348
32
3.93247
13
-4.41299
23
-3.33348
33
3.93247
  0
3DFACE
  8
2
10
-5.41345
20
-3.99523
30
3.93247
11
-4.41357
21
-4.15839
31
3.93247
12
-4.91311
22
-3.49558
32
3.06644
13
-4.91311
23
-3.49558
33
3.06644
  0
3DFACE
  8
2
10
-4.91311
20
-3.49558
30
3.06644
11
-4.41357
21
-4.15839
31
3.93247
12
-3.91346
22
-3.99629
32
3.06644
13
-3.91346
23
-3.99629
33
3.06644
  0
3DFACE
  8
2
10
-3.91346
20
-3.99629
30
3.06644
11
-4.41357
21
-4.15839
31
3.93247
12
-3.41311
22
-3.49663
32
3.93247
13
-3.41311
23
-3.49663
33
3.93247
  0
3DFACE
  8
2
10
-3.41311
20
-3.49663
30
3.93247
11
-4.41357
21
-4.15839
31
3.93247
12
-3.91346
22
-3.99629
32
4.79849
13
-3.91346
23
-3.99629
33
4.79849
  0
3DFACE
  8
2
10
-3.91346
20
-3.99629
30
4.79849
11
-4.41357
21
-4.15839
31
3.93247
12
-4.91311
22
-3.49558
32
4.79849
13
-4.91311
23
-3.49558
33
4.79849
  0
3DFACE
  8
2
10
-4.91311
20
-3.49558
30
4.79849
11
-4.41357
21
-4.15839
31
3.93247
12
-5.41345
22
-3.99523
32
3.93247
13
-5.41345
23
-3.99523
33
3.93247
  0
3DFACE
  8
2
10
-3.91346
20
-3.99629
30
4.79849
11
-3.41311
21
-3.49663
31
3.93247
12
-2.913
22
-3.33453
32
4.79849
13
-2.913
23
-3.33453
33
4.79849
  0
3DFACE
  8
2
10
-3.41311
20
-3.49663
30
3.93247
11
-2.41347
21
-3.99734
31
3.93247
12
-2.913
22
-3.33453
32
4.79849
13
-2.913
23
-3.33453
33
4.79849
  0
3DFACE
  8
2
10
-2.41347
20
-3.99734
30
3.93247
11
-1.91312
21
-3.49769
31
4.79849
12
-2.913
22
-3.33453
32
4.79849
13
-2.913
23
-3.33453
33
4.79849
  0
3DFACE
  8
2
10
-1.91312
20
-3.49769
30
4.79849
11
-2.41347
21
-3.99734
31
5.66452
12
-2.913
22
-3.33453
32
4.79849
13
-2.913
23
-3.33453
33
4.79849
  0
3DFACE
  8
2
10
-2.41347
20
-3.99734
30
5.66452
11
-3.41311
21
-3.49663
31
5.66452
12
-2.913
22
-3.33453
32
4.79849
13
-2.913
23
-3.33453
33
4.79849
  0
3DFACE
  8
2
10
-3.41311
20
-3.49663
30
5.66452
11
-3.91346
21
-3.99629
31
4.79849
12
-2.913
22
-3.33453
32
4.79849
13
-2.913
23
-3.33453
33
4.79849
  0
3DFACE
  8
2
10
-3.91346
20
-3.99629
30
4.79849
11
-2.91358
21
-4.15944
31
4.79849
12
-3.41311
22
-3.49663
32
3.93247
13
-3.41311
23
-3.49663
33
3.93247
  0
3DFACE
  8
2
10
-3.41311
20
-3.49663
30
3.93247
11
-2.91358
21
-4.15944
31
4.79849
12
-2.41347
22
-3.99734
32
3.93247
13
-2.41347
23
-3.99734
33
3.93247
  0
3DFACE
  8
2
10
-2.41347
20
-3.99734
30
3.93247
11
-2.91358
21
-4.15944
31
4.79849
12
-1.91312
22
-3.49769
32
4.79849
13
-1.91312
23
-3.49769
33
4.79849
  0
3DFACE
  8
2
10
-1.91312
20
-3.49769
30
4.79849
11
-2.91358
21
-4.15944
31
4.79849
12
-2.41347
22
-3.99734
32
5.66452
13
-2.41347
23
-3.99734
33
5.66452
  0
3DFACE
  8
2
10
-2.41347
20
-3.99734
30
5.66452
11
-2.91358
21
-4.15944
31
4.79849
12
-3.41311
22
-3.49663
32
5.66452
13
-3.41311
23
-3.49663
33
5.66452
  0
3DFACE
  8
2
10
-3.41311
20
-3.49663
30
5.66452
11
-2.91358
21
-4.15944
31
4.79849
12
-3.91346
22
-3.99629
32
4.79849
13
-3.91346
23
-3.99629
33
4.79849
  0
3DFACE
  8
2
10
-2.41347
20
-3.99734
30
2.20042
11
-1.91312
21
-3.49769
31
1.3344
12
-1.41301
22
-3.33559
32
2.20042
13
-1.41301
23
-3.33559
33
2.20042
  0
3DFACE
  8
2
10
-1.91312
20
-3.49769
30
1.3344
11
-0.913473
21
-3.9984
31
1.3344
12
-1.41301
22
-3.33559
32
2.20042
13
-1.41301
23
-3.33559
33
2.20042
  0
3DFACE
  8
2
10
-0.913473
20
-3.9984
30
1.3344
11
-0.413126
21
-3.49875
31
2.20042
12
-1.41301
22
-3.33559
32
2.20042
13
-1.41301
23
-3.33559
33
2.20042
  0
3DFACE
  8
2
10
-0.413126
20
-3.49875
30
2.20042
11
-0.913473
21
-3.9984
31
3.06644
12
-1.41301
22
-3.33559
32
2.20042
13
-1.41301
23
-3.33559
33
2.20042
  0
3DFACE
  8
2
10
-0.913473
20
-3.9984
30
3.06644
11
-1.91312
21
-3.49769
31
3.06644
12
-1.41301
22
-3.33559
32
2.20042
13
-1.41301
23
-3.33559
33
2.20042
  0
3DFACE
  8
2
10
-1.91312
20
-3.49769
30
3.06644
11
-2.41347
21
-3.99734
31
2.20042
12
-1.41301
22
-3.33559
32
2.20042
13
-1.41301
23
-3.33559
33
2.20042
  0
3DFACE
  8
2
10
-2.41347
20
-3.99734
30
2.20042
11
-1.41359
21
-4.1605
31
2.20042
12
-1.91312
22
-3.49769
32
1.3344
13
-1.91312
23
-3.49769
33
1.3344
  0
3DFACE
  8
2
10
-1.91312
20
-3.49769
30
1.3344
11
-1.41359
21
-4.1605
31
2.20042
12
-0.913473
22
-3.9984
32
1.3344
13
-0.913473
23
-3.9984
33
1.3344
  0
3DFACE
  8
2
10
-0.913473
20
-3.9984
30
1.3344
11
-1.41359
21
-4.1605
31
2.20042
12
-0.413126
22
-3.49875
32
2.20042
13
-0.413126
23
-3.49875
33
2.20042
  0
3DFACE
  8
2
10
-0.413126
20
-3.49875
30
2.20042
11
-1.41359
21
-4.1605
31
2.20042
12
-0.913473
22
-3.9984
32
3.06644
13
-0.913473
23
-3.9984
33
3.06644
  0
3DFACE
  8
2
10
-0.913473
20
-3.9984
30
3.06644
11
-1.41359
21
-4.1605
31
2.20042
12
-1.91312
22
-3.49769
32
3.06644
13
-1.91312
23
-3.49769
33
3.06644
  0
3DFACE
  8
2
10
-1.91312
20
-3.49769
30
3.06644
11
-1.41359
21
-4.1605
31
2.20042
12
-2.41347
22
-3.99734
32
2.20042
13
-2.41347
23
-3.99734
33
2.20042
  0
3DFACE
  8
2
10
-2.41347
20
-3.99734
30
3.93247
11
-1.91312
21
-3.49769
31
3.06644
12
-1.41301
22
-3.33559
32
3.93247
13
-1.41301
23
-3.33559
33
3.93247
  0
3DFACE
  8
2
10
-1.91312
20
-3.49769
30
3.06644
11
-0.913473
21
-3.9984
31
3.06644
12
-1.41301
22
-3.33559
32
3.93247
13
-1.41301
23
-3.33559
33
3.93247
  0
3DFACE
  8
2
10
-0.913473
20
-3.9984
30
3.06644
11
-0.413126
21
-3.49875
31
3.93247
12
-1.41301
22
-3.33559
32
3.93247
13
-1.41301
23
-3.33559
33
3.93247
  0
3DFACE
  8
2
10
-0.413126
20
-3.49875
30
3.93247
11
-0.913473
21
-3.9984
31
4.79849
12
-1.41301
22
-3.33559
32
3.93247
13
-1.41301
23
-3.33559
33
3.93247
  0
3DFACE
  8
2
10
-0.913473
20
-3.9984
30
4.79849
11
-1.91312
21
-3.49769
31
4.79849
12
-1.41301
22
-3.33559
32
3.93247
13
-1.41301
23
-3.33559
33
3.93247
  0
3DFACE
  8
2
10
-1.91312
20
-3.49769
30
4.79849
11
-2.41347
21
-3.99734
31
3.93247
12
-1.41301
22
-3.33559
32
3.93247
13
-1.41301
23
-3.33559
33
3.93247
  0
3DFACE
  8
2
10
-2.41347
20
-3.99734
30
3.93247
11
-1.41359
21
-4.1605
31
3.93247
12
-1.91312
22
-3.49769
32
3.06644
13
-1.91312
23
-3.49769
33
3.06644
  0
3DFACE
  8
2
10
-1.91312
20
-3.49769
30
3.06644
11
-1.41359
21
-4.1605
31
3.93247
12
-0.913473
22
-3.9984
32
3.06644
13
-0.913473
23
-3.9984
33
3.06644
  0
3DFACE
  8
2
10
-0.913473
20
-3.9984
30
3.06644
11
-1.41359
21
-4.1605
31
3.93247
12
-0.413126
22
-3.49875
32
3.93247
13
-0.413126
23
-3.49875
33
3.93247
  0
3DFACE
  8
2
10
-0.413126
20
-3.49875
30
3.93247
11
-1.41359
21
-4.1605
31
3.93247
12
-0.913473
22
-3.9984
32
4.79849
13
-0.913473
23
-3.9984
33
4.79849
  0
3DFACE
  8
2
10
-0.913473
20
-3.9984
30
4.79849
11
-1.41359
21
-4.1605
31
3.93247
12
-1.91312
22
-3.49769
32
4.79849
13
-1.91312
23
-3.49769
33
4.79849
  0
3DFACE
  8
2
10
-1.91312
20
-3.49769
30
4.79849
11
-1.41359
21
-4.1605
31
3.93247
12
-2.41347
22
-3.99734
32
3.93247
13
-2.41347
23
-3.99734
33
3.93247
  0
3DFACE
  8
2
10
-0.913473
20
-3.9984
30
1.3344
11
-0.413126
21
-3.49875
31
0.468373
12
0.0869877
22
-3.33665
32
1.3344
13
0.0869877
23
-3.33665
33
1.3344
  0
3DFACE
  8
2
10
-0.413126
20
-3.49875
30
0.468373
11
0.58652
21
-3.99946
31
0.468373
12
0.0869877
22
-3.33665
32
1.3344
13
0.0869877
23
-3.33665
33
1.3344
  0
3DFACE
  8
2
10
0.58652
20
-3.99946
30
0.468373
11
1.08687
21
-3.49981
31
1.3344
12
0.0869877
22
-3.33665
32
1.3344
13
0.0869877
23
-3.33665
33
1.3344
  0
3DFACE
  8
2
10
1.08687
20
-3.49981
30
1.3344
11
0.58652
21
-3.99946
31
2.20042
12
0.0869877
22
-3.33665
32
1.3344
13
0.0869877
23
-3.33665
33
1.3344
  0
3DFACE
  8
2
10
0.58652
20
-3.99946
30
2.20042
11
-0.413126
21
-3.49875
31
2.20042
12
0.0869877
22
-3.33665
32
1.3344
13
0.0869877
23
-3.33665
33
1.3344
  0
3DFACE
  8
2
10
-0.413126
20
-3.49875
30
2.20042
11
-0.913473
21
-3.9984
31
1.3344
12
0.0869877
22
-3.33665
32
1.3344
13
0.0869877
23
-3.33665
33
1.3344
  0
3DFACE
  8
2
10
-0.913473
20
-3.9984
30
1.3344
11
0.086406
21
-4.16156
31
1.3344
12
-0.413126
22
-3.49875
32
0.468373
13
-0.413126
23
-3.49875
33
0.468373
  0
3DFACE
  8
2
10
-0.413126
20
-3.49875
30
0.468373
11
0.086406
21
-4.16156
31
1.3344
12
0.58652
22
-3.99946
32
0.468373
13
0.58652
23
-3.99946
33
0.468373
  0
3DFACE
  8
2
10
0.58652
20
-3.99946
30
0.468373
11
0.086406
21
-4.16156
31
1.3344
12
1.08687
22
-3.49981
32
1.3344
13
1.08687
23
-3.49981
33
1.3344
  0
3DFACE
  8
2
10
1.08687
20
-3.49981
30
1.3344
11
0.086406
21
-4.16156
31
1.3344
12
0.58652
22
-3.99946
32
2.20042
13
0.58652
23
-3.99946
33
2.20042
  0
3DFACE
  8
2
10
0.58652
20
-3.99946
30
2.20042
11
0.086406
21
-4.16156
31
1.3344
12
-0.413126
22
-3.49875
32
2.20042
13
-0.413126
23
-3.49875
33
2.20042
  0
3DFACE
  8
2
10
-0.413126
20
-3.49875
30
2.20042
11
0.086406
21
-4.16156
31
1.3344
12
-0.913473
22
-3.9984
32
1.3344
13
-0.913473
23
-3.9984
33
1.3344
  0
3DFACE
  8
2
10
-0.913473
20
-3.9984
30
3.06644
11
-0.413126
21
-3.49875
31
2.20042
12
0.0869877
22
-3.33665
32
3.06644
13
0.0869877
23
-3.33665
33
3.06644
  0
3DFACE
  8
2
10
-0.413126
20
-3.49875
30
2.20042
11
0.58652
21
-3.99946
31
2.20042
12
0.0869877
22
-3.33665
32
3.06644
13
0.0869877
23
-3.33665
33
3.06644
  0
3DFACE
  8
2
10
0.58652
20
-3.99946
30
2.20042
11
1.08687
21
-3.49981
31
3.06644
12
0.0869877
22
-3.33665
32
3.06644
13
0.0869877
23
-3.33665
33
3.06644
  0
3DFACE
  8
2
10
1.08687
20
-3.49981
30
3.06644
11
0.58652
21
-3.99946
31
3.93247
12
0.0869877
22
-3.33665
32
3.06644
13
0.0869877
23
-3.33665
33
3.06644
  0
3DFACE
  8
2
10
0.58652
20
-3.99946
30
3.93247
11
-0.413126
21
-3.49875
31
3.93247
12
0.0869877
22
-3.33665
32
3.06644
13
0.0869877
23
-3.33665
33
3.06644
  0
3DFACE
  8
2
10
-0.413126
20
-3.49875
30
3.93247
11
-0.913473
21
-3.9984
31
3.06644
12
0.0869877
22
-3.33665
32
3.06644
13
0.0869877
23
-3.33665
33
3.06644
  0
3DFACE
  8
2
10
-0.913473
20
-3.9984
30
3.06644
11
0.086406
21
-4.16156
31
3.06644
12
-0.413126
22
-3.49875
32
2.20042
13
-0.413126
23
-3.49875
33
2.20042
  0
3DFACE
  8
2
10
-0.413126
20
-3.49875
30
2.20042
11
0.086406
21
-4.16156
31
3.06644
12
0.58652
22
-3.99946
32
2.20042
13
0.58652
23
-3.99946
33
2.20042
  0
3DFACE
  8
2
10
0.58652
20
-3.99946
30
2.20042
11
0.086406
21
-4.16156
31
3.06644
12
1.08687
22
-3.49981
32
3.06644
13
1.08687
23
-3.49981
33
3.06644
  0
3DFACE
  8
2
10
1.08687
20
-3.49981
30
3.06644
11
0.086406
21
-4.16156
31
3.06644
12
0.58652
22
-3.99946
32
3.93247
13
0.58652
23
-3.99946
33
3.93247
  0
3DFACE
  8
2
10
0.58652
20
-3.99946
30
3.93247
11
0.086406
21
-4.16156
31
3.06644
12
-0.413126
22
-3.49875
32
3.93247
13
-0.413126
23
-3.49875
33
3.93247
  0
3DFACE
  8
2
10
-0.413126
20
-3.49875
30
3.93247
11
0.086406
21
-4.16156
31
3.06644
12
-0.913473
22
-3.9984
32
3.06644
13
-0.913473
23
-3.9984
33
3.06644
  0
3DFACE
  8
2
10
-0.913473
20
-3.9984
30
4.79849
11
-0.413126
21
-3.49875
31
3.93247
12
0.0869877
22
-3.33665
32
4.79849
13
0.0869877
23
-3.33665
33
4.79849
  0
3DFACE
  8
2
10
-0.413126
20
-3.49875
30
3.93247
11
0.58652
21
-3.99946
31
3.93247
12
0.0869877
22
-3.33665
32
4.79849
13
0.0869877
23
-3.33665
33
4.79849
  0
3DFACE
  8
2
10
0.58652
20
-3.99946
30
3.93247
11
1.08687
21
-3.49981
31
4.79849
12
0.0869877
22
-3.33665
32
4.79849
13
0.0869877
23
-3.33665
33
4.79849
  0
3DFACE
  8
2
10
1.08687
20
-3.49981
30
4.79849
11
0.58652
21
-3.99946
31
5.66452
12
0.0869877
22
-3.33665
32
4.79849
13
0.0869877
23
-3.33665
33
4.79849
  0
3DFACE
  8
2
10
0.58652
20
-3.99946
30
5.66452
11
-0.413126
21
-3.49875
31
5.66452
12
0.0869877
22
-3.33665
32
4.79849
13
0.0869877
23
-3.33665
33
4.79849
  0
3DFACE
  8
2
10
-0.413126
20
-3.49875
30
5.66452
11
-0.913473
21
-3.9984
31
4.79849
12
0.0869877
22
-3.33665
32
4.79849
13
0.0869877
23
-3.33665
33
4.79849
  0
3DFACE
  8
2
10
-0.913473
20
-3.9984
30
4.79849
11
0.086406
21
-4.16156
31
4.79849
12
-0.413126
22
-3.49875
32
3.93247
13
-0.413126
23
-3.49875
33
3.93247
  0
3DFACE
  8
2
10
-0.413126
20
-3.49875
30
3.93247
11
0.086406
21
-4.16156
31
4.79849
12
0.58652
22
-3.99946
32
3.93247
13
0.58652
23
-3.99946
33
3.93247
  0
3DFACE
  8
2
10
0.58652
20
-3.99946
30
3.93247
11
0.086406
21
-4.16156
31
4.79849
12
1.08687
22
-3.49981
32
4.79849
13
1.08687
23
-3.49981
33
4.79849
  0
3DFACE
  8
2
10
1.08687
20
-3.49981
30
4.79849
11
0.086406
21
-4.16156
31
4.79849
12
0.58652
22
-3.99946
32
5.66452
13
0.58652
23
-3.99946
33
5.66452
  0
3DFACE
  8
2
10
0.58652
20
-3.99946
30
5.66452
11
0.086406
21
-4.16156
31
4.79849
12
-0.413126
22
-3.49875
32
5.66452
13
-0.413126
23
-3.49875
33
5.66452
  0
3DFACE
  8
2
10
-0.413126
20
-3.49875
30
5.66452
11
0.086406
21
-4.16156
31
4.79849
12
-0.913473
22
-3.9984
32
4.79849
13
-0.913473
23
-3.9984
33
4.79849
  0
3DFACE
  8
2
10
-5.41381
20
-2.49593
30
4.79849
11
-4.91416
21
-1.99558
31
5.66452
12
-4.75206
22
-1.49547
32
4.79849
13
-4.75206
23
-1.49547
33
4.79849
  0
3DFACE
  8
2
10
-4.91416
20
-1.99558
30
5.66452
11
-5.41487
21
-0.995939
31
5.66452
12
-4.75206
22
-1.49547
32
4.79849
13
-4.75206
23
-1.49547
33
4.79849
  0
3DFACE
  8
2
10
-5.41487
20
-0.995939
30
5.66452
11
-4.91522
21
-0.495592
31
4.79849
12
-4.75206
22
-1.49547
32
4.79849
13
-4.75206
23
-1.49547
33
4.79849
  0
3DFACE
  8
2
10
-4.91522
20
-0.495592
30
4.79849
11
-5.41487
21
-0.995939
31
3.93247
12
-4.75206
22
-1.49547
32
4.79849
13
-4.75206
23
-1.49547
33
4.79849
  0
3DFACE
  8
2
10
-5.41487
20
-0.995939
30
3.93247
11
-4.91416
21
-1.99558
31
3.93247
12
-4.75206
22
-1.49547
32
4.79849
13
-4.75206
23
-1.49547
33
4.79849
  0
3DFACE
  8
2
10
-4.91416
20
-1.99558
30
3.93247
11
-5.41381
21
-2.49593
31
4.79849
12
-4.75206
22
-1.49547
32
4.79849
13
-4.75206
23
-1.49547
33
4.79849
  0
3DFACE
  8
2
10
-5.41381
20
-2.49593
30
4.79849
11
-5.57697
21
-1.49605
31
4.79849
12
-4.91416
22
-1.99558
32
5.66452
13
-4.91416
23
-1.99558
33
5.66452
  0
3DFACE
  8
2
10
-4.91416
20
-1.99558
30
5.66452
11
-5.57697
21
-1.49605
31
4.79849
12
-5.41487
22
-0.995939
32
5.66452
13
-5.41487
23
-0.995939
33
5.66452
  0
3DFACE
  8
2
10
-5.41487
20
-0.995939
30
5.66452
11
-5.57697
21
-1.49605
31
4.79849
12
-4.91522
22
-0.495592
32
4.79849
13
-4.91522
23
-0.495592
33
4.79849
  0
3DFACE
  8
2
10
-4.91522
20
-0.495592
30
4.79849
11
-5.57697
21
-1.49605
31
4.79849
12
-5.41487
22
-0.995939
32
3.93247
13
-5.41487
23
-0.995939
33
3.93247
  0
3DFACE
  8
2
10
-5.41487
20
-0.995939
30
3.93247
11
-5.57697
21
-1.49605
31
4.79849
12
-4.91416
22
-1.99558
32
3.93247
13
-4.91416
23
-1.99558
33
3.93247
  0
3DFACE
  8
2
10
-4.91416
20
-1.99558
30
3.93247
11
-5.57697
21
-1.49605
31
4.79849
12
-5.41381
22
-2.49593
32
4.79849
13
-5.41381
23
-2.49593
33
4.79849
  0
3DFACE
  8
2
10
-5.41276
20
-3.99592
30
3.93247
11
-4.91311
21
-3.49558
31
4.79849
12
-4.751
22
-2.99546
32
3.93247
13
-4.751
23
-2.99546
33
3.93247
  0
3DFACE
  8
2
10
-4.91311
20
-3.49558
30
4.79849
11
-5.41381
21
-2.49593
31
4.79849
12
-4.751
22
-2.99546
32
3.93247
13
-4.751
23
-2.99546
33
3.93247
  0
3DFACE
  8
2
10
-5.41381
20
-2.49593
30
4.79849
11
-4.91416
21
-1.99558
31
3.93247
12
-4.751
22
-2.99546
32
3.93247
13
-4.751
23
-2.99546
33
3.93247
  0
3DFACE
  8
2
10
-4.91416
20
-1.99558
30
3.93247
11
-5.41381
21
-2.49593
31
3.06644
12
-4.751
22
-2.99546
32
3.93247
13
-4.751
23
-2.99546
33
3.93247
  0
3DFACE
  8
2
10
-5.41381
20
-2.49593
30
3.06644
11
-4.91311
21
-3.49558
31
3.06644
12
-4.751
22
-2.99546
32
3.93247
13
-4.751
23
-2.99546
33
3.93247
  0
3DFACE
  8
2
10
-4.91311
20
-3.49558
30
3.06644
11
-5.41276
21
-3.99592
31
3.93247
12
-4.751
22
-2.99546
32
3.93247
13
-4.751
23
-2.99546
33
3.93247
  0
3DFACE
  8
2
10
-5.41276
20
-3.99592
30
3.93247
11
-5.57591
21
-2.99605
31
3.93247
12
-4.91311
22
-3.49558
32
4.79849
13
-4.91311
23
-3.49558
33
4.79849
  0
3DFACE
  8
2
10
-4.91311
20
-3.49558
30
4.79849
11
-5.57591
21
-2.99605
31
3.93247
12
-5.41381
22
-2.49593
32
4.79849
13
-5.41381
23
-2.49593
33
4.79849
  0
3DFACE
  8
2
10
-5.41381
20
-2.49593
30
4.79849
11
-5.57591
21
-2.99605
31
3.93247
12
-4.91416
22
-1.99558
32
3.93247
13
-4.91416
23
-1.99558
33
3.93247
  0
3DFACE
  8
2
10
-4.91416
20
-1.99558
30
3.93247
11
-5.57591
21
-2.99605
31
3.93247
12
-5.41381
22
-2.49593
32
3.06644
13
-5.41381
23
-2.49593
33
3.06644
  0
3DFACE
  8
2
10
-5.41381
20
-2.49593
30
3.06644
11
-5.57591
21
-2.99605
31
3.93247
12
-4.91311
22
-3.49558
32
3.06644
13
-4.91311
23
-3.49558
33
3.06644
  0
3DFACE
  8
2
10
-4.91311
20
-3.49558
30
3.06644
11
-5.57591
21
-2.99605
31
3.93247
12
-5.41276
22
-3.99592
32
3.93247
13
-5.41276
23
-3.99592
33
3.93247
  0
3DFACE
  8
2
10
-5.41381
20
-2.49593
30
3.06644
11
-4.91416
21
-1.99558
31
3.93247
12
-4.75206
22
-1.49547
32
3.06644
13
-4.75206
23
-1.49547
33
3.06644
  0
3DFACE
  8
2
10
-4.91416
20
-1.99558
30
3.93247
11
-5.41487
21
-0.995939
31
3.93247
12
-4.75206
22
-1.49547
32
3.06644
13
-4.75206
23
-1.49547
33
3.06644
  0
3DFACE
  8
2
10
-5.41487
20
-0.995939
30
3.93247
11
-4.91522
21
-0.495592
31
3.06644
12
-4.75206
22
-1.49547
32
3.06644
13
-4.75206
23
-1.49547
33
3.06644
  0
3DFACE
  8
2
10
-4.91522
20
-0.495592
30
3.06644
11
-5.41487
21
-0.995939
31
2.20042
12
-4.75206
22
-1.49547
32
3.06644
13
-4.75206
23
-1.49547
33
3.06644
  0
3DFACE
  8
2
10
-5.41487
20
-0.995939
30
2.20042
11
-4.91416
21
-1.99558
31
2.20042
12
-4.75206
22
-1.49547
32
3.06644
13
-4.75206
23
-1.49547
33
3.06644
  0
3DFACE
  8
2
10
-4.91416
20
-1.99558
30
2.20042
11
-5.41381
21
-2.49593
31
3.06644
12
-4.75206
22
-1.49547
32
3.06644
13
-4.75206
23
-1.49547
33
3.06644
  0
3DFACE
  8
2
10
-5.41381
20
-2.49593
30
3.06644
11
-5.57697
21
-1.49605
31
3.06644
12
-4.91416
22
-1.99558
32
3.93247
13
-4.91416
23
-1.99558
33
3.93247
  0
3DFACE
  8
2
10
-4.91416
20
-1.99558
30
3.93247
11
-5.57697
21
-1.49605
31
3.06644
12
-5.41487
22
-0.995939
32
3.93247
13
-5.41487
23
-0.995939
33
3.93247
  0
3DFACE
  8
2
10
-5.41487
20
-0.995939
30
3.93247
11
-5.57697
21
-1.49605
31
3.06644
12
-4.91522
22
-0.495592
32
3.06644
13
-4.91522
23
-0.495592
33
3.06644
  0
3DFACE
  8
2
10
-4.91522
20
-0.495592
30
3.06644
11
-5.57697
21
-1.49605
31
3.06644
12
-5.41487
22
-0.995939
32
2.20042
13
-5.41487
23
-0.995939
33
2.20042
  0
3DFACE
  8
2
10
-5.41487
20
-0.995939
30
2.20042
11
-5.57697
21
-1.49605
31
3.06644
12
-4.91416
22
-1.99558
32
2.20042
13
-4.91416
23
-1.99558
33
2.20042
  0
3DFACE
  8
2
10
-4.91416
20
-1.99558
30
2.20042
11
-5.57697
21
-1.49605
31
3.06644
12
-5.41381
22
-2.49593
32
3.06644
13
-5.41381
23
-2.49593
33
3.06644
  0
3DFACE
  8
2
10
-5.41276
20
-3.99592
30
2.20042
11
-4.91311
21
-3.49558
31
3.06644
12
-4.751
22
-2.99546
32
2.20042
13
-4.751
23
-2.99546
33
2.20042
  0
3DFACE
  8
2
10
-4.91311
20
-3.49558
30
3.06644
11
-5.41381
21
-2.49593
31
3.06644
12
-4.751
22
-2.99546
32
2.20042
13
-4.751
23
-2.99546
33
2.20042
  0
3DFACE
  8
2
10
-5.41381
20
-2.49593
30
3.06644
11
-4.91416
21
-1.99558
31
2.20042
12
-4.751
22
-2.99546
32
2.20042
13
-4.751
23
-2.99546
33
2.20042
  0
3DFACE
  8
2
10
-4.91416
20
-1.99558
30
2.20042
11
-5.41381
21
-2.49593
31
1.3344
12
-4.751
22
-2.99546
32
2.20042
13
-4.751
23
-2.99546
33
2.20042
  0
3DFACE
  8
2
10
-5.41381
20
-2.49593
30
1.3344
11
-4.91311
21
-3.49558
31
1.3344
12
-4.751
22
-2.99546
32
2.20042
13
-4.751
23
-2.99546
33
2.20042
  0
3DFACE
  8
2
10
-4.91311
20
-3.49558
30
1.3344
11
-5.41276
21
-3.99592
31
2.20042
12
-4.751
22
-2.99546
32
2.20042
13
-4.751
23
-2.99546
33
2.20042
  0
3DFACE
  8
2
10
-5.41276
20
-3.99592
30
2.20042
11
-5.57591
21
-2.99605
31
2.20042
12
-4.91311
22
-3.49558
32
3.06644
13
-4.91311
23
-3.49558
33
3.06644
  0
3DFACE
  8
2
10
-4.91311
20
-3.49558
30
3.06644
11
-5.57591
21
-2.99605
31
2.20042
12
-5.41381
22
-2.49593
32
3.06644
13
-5.41381
23
-2.49593
33
3.06644
  0
3DFACE
  8
2
10
-5.41381
20
-2.49593
30
3.06644
11
-5.57591
21
-2.99605
31
2.20042
12
-4.91416
22
-1.99558
32
2.20042
13
-4.91416
23
-1.99558
33
2.20042
  0
3DFACE
  8
2
10
-4.91416
20
-1.99558
30
2.20042
11
-5.57591
21
-2.99605
31
2.20042
12
-5.41381
22
-2.49593
32
1.3344
13
-5.41381
23
-2.49593
33
1.3344
  0
3DFACE
  8
2
10
-5.41381
20
-2.49593
30
1.3344
11
-5.57591
21
-2.99605
31
2.20042
12
-4.91311
22
-3.49558
32
1.3344
13
-4.91311
23
-3.49558
33
1.3344
  0
3DFACE
  8
2
10
-4.91311
20
-3.49558
30
1.3344
11
-5.57591
21
-2.99605
31
2.20042
12
-5.41276
22
-3.99592
32
2.20042
13
-5.41276
23
-3.99592
33
2.20042
  0
3DFACE
  8
2
10
-5.41381
20
-2.49593
30
1.3344
11
-4.91416
21
-1.99558
31
2.20042
12
-4.75206
22
-1.49547
32
1.3344
13
-4.75206
23
-1.49547
33
1.3344
  0
3DFACE
  8
2
10
-4.91416
20
-1.99558
30
2.20042
11
-5.41487
21
-0.995939
31
2.20042
12
-4.75206
22
-1.49547
32
1.3344
13
-4.75206
23
-1.49547
33
1.3344
  0
3DFACE
  8
2
10
-5.41487
20
-0.995939
30
2.20042
11
-4.91522
21
-0.495592
31
1.3344
12
-4.75206
22
-1.49547
32
1.3344
13
-4.75206
23
-1.49547
33
1.3344
  0
3DFACE
  8
2
10
-4.91522
20
-0.495592
30
1.3344
11
-5.41487
21
-0.995939
31
0.468373
12
-4.75206
22
-1.49547
32
1.3344
13
-4.75206
23
-1.49547
33
1.3344
  0
3DFACE
  8
2
10
-5.41487
20
-0.995939
30
0.468373
11
-4.91416
21
-1.99558
31
0.468373
12
-4.75206
22
-1.49547
32
1.3344
13
-4.75206
23
-1.49547
33
1.3344
  0
3DFACE
  8
2
10
-4.91416
20
-1.99558
30
0.468373
11
-5.41381
21
-2.49593
31
1.3344
12
-4.75206
22
-1.49547
32
1.3344
13
-4.75206
23
-1.49547
33
1.3344
  0
3DFACE
  8
2
10
-5.41381
20
-2.49593
30
1.3344
11
-5.57697
21
-1.49605
31
1.3344
12
-4.91416
22
-1.99558
32
2.20042
13
-4.91416
23
-1.99558
33
2.20042
  0
3DFACE
  8
2
10
-4.91416
20
-1.99558
30
2.20042
11
-5.57697
21
-1.49605
31
1.3344
12
-5.41487
22
-0.995939
32
2.20042
13
-5.41487
23
-0.995939
33
2.20042
  0
3DFACE
  8
2
10
-5.41487
20
-0.995939
30
2.20042
11
-5.57697
21
-1.49605
31
1.3344
12
-4.91522
22
-0.495592
32
1.3344
13
-4.91522
23
-0.495592
33
1.3344
  0
3DFACE
  8
2
10
-4.91522
20
-0.495592
30
1.3344
11
-5.57697
21
-1.49605
31
1.3344
12
-5.41487
22
-0.995939
32
0.468373
13
-5.41487
23
-0.995939
33
0.468373
  0
3DFACE
  8
2
10
-5.41487
20
-0.995939
30
0.468373
11
-5.57697
21
-1.49605
31
1.3344
12
-4.91416
22
-1.99558
32
0.468373
13
-4.91416
23
-1.99558
33
0.468373
  0
3DFACE
  8
2
10
-4.91416
20
-1.99558
30
0.468373
11
-5.57697
21
-1.49605
31
1.3344
12
-5.41381
22
-2.49593
32
1.3344
13
-5.41381
23
-2.49593
33
1.3344
  0
3DFACE
  8
2
10
-5.41487
20
-0.995939
30
3.93247
11
-4.91522
21
-0.495592
31
4.79849
12
-4.75312
22
0.00452232
32
3.93247
13
-4.75312
23
0.00452232
33
3.93247
  0
3DFACE
  8
2
10
-4.91522
20
-0.495592
30
4.79849
11
-5.41593
21
0.504054
31
4.79849
12
-4.75312
22
0.00452232
32
3.93247
13
-4.75312
23
0.00452232
33
3.93247
  0
3DFACE
  8
2
10
-5.41593
20
0.504054
30
4.79849
11
-4.91628
21
1.0044
31
3.93247
12
-4.75312
22
0.00452232
32
3.93247
13
-4.75312
23
0.00452232
33
3.93247
  0
3DFACE
  8
2
10
-4.91628
20
1.0044
30
3.93247
11
-5.41593
21
0.504054
31
3.06644
12
-4.75312
22
0.00452232
32
3.93247
13
-4.75312
23
0.00452232
33
3.93247
  0
3DFACE
  8
2
10
-5.41593
20
0.504054
30
3.06644
11
-4.91522
21
-0.495592
31
3.06644
12
-4.75312
22
0.00452232
32
3.93247
13
-4.75312
23
0.00452232
33
3.93247
  0
3DFACE
  8
2
10
-4.91522
20
-0.495592
30
3.06644
11
-5.41487
21
-0.995939
31
3.93247
12
-4.75312
22
0.00452232
32
3.93247
13
-4.75312
23
0.00452232
33
3.93247
  0
3DFACE
  8
2
10
-5.41487
20
-0.995939
30
3.93247
11
-5.57803
21
0.00394011
31
3.93247
12
-4.91522
22
-0.495592
32
4.79849
13
-4.91522
23
-0.495592
33
4.79849
  0
3DFACE
  8
2
10
-4.91522
20
-0.495592
30
4.79849
11
-5.57803
21
0.00394011
31
3.93247
12
-5.41593
22
0.504054
32
4.79849
13
-5.41593
23
0.504054
33
4.79849
  0
3DFACE
  8
2
10
-5.41593
20
0.504054
30
4.79849
11
-5.57803
21
0.00394011
31
3.93247
12
-4.91628
22
1.0044
32
3.93247
13
-4.91628
23
1.0044
33
3.93247
  0
3DFACE
  8
2
10
-4.91628
20
1.0044
30
3.93247
11
-5.57803
21
0.00394011
31
3.93247
12
-5.41593
22
0.504054
32
3.06644
13
-5.41593
23
0.504054
33
3.06644
  0
3DFACE
  8
2
10
-5.41593
20
0.504054
30
3.06644
11
-5.57803
21
0.00394011
31
3.93247
12
-4.91522
22
-0.495592
32
3.06644
13
-4.91522
23
-0.495592
33
3.06644
  0
3DFACE
  8
2
10
-4.91522
20
-0.495592
30
3.06644
11
-5.57803
21
0.00394011
31
3.93247
12
-5.41487
22
-0.995939
32
3.93247
13
-5.41487
23
-0.995939
33
3.93247
  0
3DFACE
  8
2
10
-5.41487
20
-0.995939
30
2.20042
11
-4.91522
21
-0.495592
31
3.06644
12
-4.75312
22
0.00452232
32
2.20042
13
-4.75312
23
0.00452232
33
2.20042
  0
3DFACE
  8
2
10
-4.91522
20
-0.495592
30
3.06644
11
-5.41593
21
0.504054
31
3.06644
12
-4.75312
22
0.00452232
32
2.20042
13
-4.75312
23
0.00452232
33
2.20042
  0
3DFACE
  8
2
10
-5.41593
20
0.504054
30
3.06644
11
-4.91628
21
1.0044
31
2.20042
12
-4.75312
22
0.00452232
32
2.20042
13
-4.75312
23
0.00452232
33
2.20042
  0
3DFACE
  8
2
10
-4.91628
20
1.0044
30
2.20042
11
-5.41593
21
0.504054
31
1.3344
12
-4.75312
22
0.00452232
32
2.20042
13
-4.75312
23
0.00452232
33
2.20042
  0
3DFACE
  8
2
10
-5.41593
20
0.504054
30
1.3344
11
-4.91522
21
-0.495592
31
1.3344
12
-4.75312
22
0.00452232
32
2.20042
13
-4.75312
23
0.00452232
33
2.20042
  0
3DFACE
  8
2
10
-4.91522
20
-0.495592
30
1.3344
11
-5.41487
21
-0.995939
31
2.20042
12
-4.75312
22
0.00452232
32
2.20042
13
-4.75312
23
0.00452232
33
2.20042
  0
3DFACE
  8
2
10
-5.41487
20
-0.995939
30
2.20042
11
-5.57803
21
0.00394011
31
2.20042
12
-4.91522
22
-0.495592
32
3.06644
13
-4.91522
23
-0.495592
33
3.06644
  0
3DFACE
  8
2
10
-4.91522
20
-0.495592
30
3.06644
11
-5.57803
21
0.00394011
31
2.20042
12
-5.41593
22
0.504054
32
3.06644
13
-5.41593
23
0.504054
33
3.06644
  0
3DFACE
  8
2
10
-5.41593
20
0.504054
30
3.06644
11
-5.57803
21
0.00394011
31
2.20042
12
-4.91628
22
1.0044
32
2.20042
13
-4.91628
23
1.0044
33
2.20042
  0
3DFACE
  8
2
10
-4.91628
20
1.0044
30
2.20042
11
-5.57803
21
0.00394011
31
2.20042
12
-5.41593
22
0.504054
32
1.3344
13
-5.41593
23
0.504054
33
1.3344
  0
3DFACE
  8
2
10
-5.41593
20
0.504054
30
1.3344
11
-5.57803
21
0.00394011
31
2.20042
12
-4.91522
22
-0.495592
32
1.3344
13
-4.91522
23
-0.495592
33
1.3344
  0
3DFACE
  8
2
10
-4.91522
20
-0.495592
30
1.3344
11
-5.57803
21
0.00394011
31
2.20042
12
-5.41487
22
-0.995939
32
2.20042
13
-5.41487
23
-0.995939
33
2.20042
  0
3DFACE
  8
2
10
-5.41593
20
0.504055
30
4.79849
11
-4.91628
21
1.0044
31
5.66452
12
-4.75418
22
1.50452
32
4.79849
13
-4.75418
23
1.50452
33
4.79849
  0
3DFACE
  8
2
10
-4.91628
20
1.0044
30
5.66452
11
-5.41699
21
2.00405
31
5.66452
12
-4.75418
22
1.50452
32
4.79849
13
-4.75418
23
1.50452
33
4.79849
  0
3DFACE
  8
2
10
-5.41699
20
2.00405
30
5.66452
11
-4.91734
21
2.50439
31
4.79849
12
-4.75418
22
1.50452
32
4.79849
13
-4.75418
23
1.50452
33
4.79849
  0
3DFACE
  8
2
10
-4.91734
20
2.50439
30
4.79849
11
-5.41699
21
2.00405
31
3.93247
12
-4.75418
22
1.50452
32
4.79849
13
-4.75418
23
1.50452
33
4.79849
  0
3DFACE
  8
2
10
-5.41699
20
2.00405
30
3.93247
11
-4.91628
21
1.0044
31
3.93247
12
-4.75418
22
1.50452
32
4.79849
13
-4.75418
23
1.50452
33
4.79849
  0
3DFACE
  8
2
10
-4.91628
20
1.0044
30
3.93247
11
-5.41593
21
0.504055
31
4.79849
12
-4.75418
22
1.50452
32
4.79849
13
-4.75418
23
1.50452
33
4.79849
  0
3DFACE
  8
2
10
-5.41593
20
0.504055
30
4.79849
11
-5.57909
21
1.50393
31
4.79849
12
-4.91628
22
1.0044
32
5.66452
13
-4.91628
23
1.0044
33
5.66452
  0
3DFACE
  8
2
10
-4.91628
20
1.0044
30
5.66452
11
-5.57909
21
1.50393
31
4.79849
12
-5.41699
22
2.00405
32
5.66452
13
-5.41699
23
2.00405
33
5.66452
  0
3DFACE
  8
2
10
-5.41699
20
2.00405
30
5.66452
11
-5.57909
21
1.50393
31
4.79849
12
-4.91734
22
2.50439
32
4.79849
13
-4.91734
23
2.50439
33
4.79849
  0
3DFACE
  8
2
10
-4.91734
20
2.50439
30
4.79849
11
-5.57909
21
1.50393
31
4.79849
12
-5.41699
22
2.00405
32
3.93247
13
-5.41699
23
2.00405
33
3.93247
  0
3DFACE
  8
2
10
-5.41699
20
2.00405
30
3.93247
11
-5.57909
21
1.50393
31
4.79849
12
-4.91628
22
1.0044
32
3.93247
13
-4.91628
23
1.0044
33
3.93247
  0
3DFACE
  8
2
10
-4.91628
20
1.0044
30
3.93247
11
-5.57909
21
1.50393
31
4.79849
12
-5.41593
22
0.504055
32
4.79849
13
-5.41593
23
0.504055
33
4.79849
  0
3DFACE
  8
2
10
-5.41593
20
0.504055
30
3.06644
11
-4.91628
21
1.0044
31
3.93247
12
-4.75418
22
1.50452
32
3.06644
13
-4.75418
23
1.50452
33
3.06644
  0
3DFACE
  8
2
10
-4.91628
20
1.0044
30
3.93247
11
-5.41699
21
2.00405
31
3.93247
12
-4.75418
22
1.50452
32
3.06644
13
-4.75418
23
1.50452
33
3.06644
  0
3DFACE
  8
2
10
-5.41699
20
2.00405
30
3.93247
11
-4.91734
21
2.50439
31
3.06644
12
-4.75418
22
1.50452
32
3.06644
13
-4.75418
23
1.50452
33
3.06644
  0
3DFACE
  8
2
10
-4.91734
20
2.50439
30
3.06644
11
-5.41699
21
2.00405
31
2.20042
12
-4.75418
22
1.50452
32
3.06644
13
-4.75418
23
1.50452
33
3.06644
  0
3DFACE
  8
2
10
-5.41699
20
2.00405
30
2.20042
11
-4.91628
21
1.0044
31
2.20042
12
-4.75418
22
1.50452
32
3.06644
13
-4.75418
23
1.50452
33
3.06644
  0
3DFACE
  8
2
10
-4.91628
20
1.0044
30
2.20042
11
-5.41593
21
0.504055
31
3.06644
12
-4.75418
22
1.50452
32
3.06644
13
-4.75418
23
1.50452
33
3.06644
  0
3DFACE
  8
2
10
-5.41593
20
0.504055
30
3.06644
11
-5.57909
21
1.50393
31
3.06644
12
-4.91628
22
1.0044
32
3.93247
13
-4.91628
23
1.0044
33
3.93247
  0
3DFACE
  8
2
10
-4.91628
20
1.0044
30
3.93247
11
-5.57909
21
1.50393
31
3.06644
12
-5.41699
22
2.00405
32
3.93247
13
-5.41699
23
2.00405
33
3.93247
  0
3DFACE
  8
2
10
-5.41699
20
2.00405
30
3.93247
11
-5.57909
21
1.50393
31
3.06644
12
-4.91734
22
2.50439
32
3.06644
13
-4.91734
23
2.50439
33
3.06644
  0
3DFACE
  8
2
10
-4.91734
20
2.50439
30
3.06644
11
-5.57909
21
1.50393
31
3.06644
12
-5.41699
22
2.00405
32
2.20042
13
-5.41699
23
2.00405
33
2.20042
  0
3DFACE
  8
2
10
-5.41699
20
2.00405
30
2.20042
11
-5.57909
21
1.50393
31
3.06644
12
-4.91628
22
1.0044
32
2.20042
13
-4.91628
23
1.0044
33
2.20042
  0
3DFACE
  8
2
10
-4.91628
20
1.0044
30
2.20042
11
-5.57909
21
1.50393
31
3.06644
12
-5.41593
22
0.504055
32
3.06644
13
-5.41593
23
0.504055
33
3.06644
  0
3DFACE
  8
2
10
-5.41593
20
0.504055
30
1.3344
11
-4.91628
21
1.0044
31
2.20042
12
-4.75418
22
1.50452
32
1.3344
13
-4.75418
23
1.50452
33
1.3344
  0
3DFACE
  8
2
10
-4.91628
20
1.0044
30
2.20042
11
-5.41699
21
2.00405
31
2.20042
12
-4.75418
22
1.50452
32
1.3344
13
-4.75418
23
1.50452
33
1.3344
  0
3DFACE
  8
2
10
-5.41699
20
2.00405
30
2.20042
11
-4.91734
21
2.50439
31
1.3344
12
-4.75418
22
1.50452
32
1.3344
13
-4.75418
23
1.50452
33
1.3344
  0
3DFACE
  8
2
10
-4.91734
20
2.50439
30
1.3344
11
-5.41699
21
2.00405
31
0.468373
12
-4.75418
22
1.50452
32
1.3344
13
-4.75418
23
1.50452
33
1.3344
  0
3DFACE
  8
2
10
-5.41699
20
2.00405
30
0.468373
11
-4.91628
21
1.0044
31
0.468373
12
-4.75418
22
1.50452
32
1.3344
13
-4.75418
23
1.50452
33
1.3344
  0
3DFACE
  8
2
10
-4.91628
20
1.0044
30
0.468373
11
-5.41593
21
0.504055
31
1.3344
12
-4.75418
22
1.50452
32
1.3344
13
-4.75418
23
1.50452
33
1.3344
  0
3DFACE
  8
2
10
-5.41593
20
0.504055
30
1.3344
11
-5.57909
21
1.50393
31
1.3344
12
-4.91628
22
1.0044
32
2.20042
13
-4.91628
23
1.0044
33
2.20042
  0
3DFACE
  8
2
10
-4.91628
20
1.0044
30
2.20042
11
-5.57909
21
1.50393
31
1.3344
12
-5.41699
22
2.00405
32
2.20042
13
-5.41699
23
2.00405
33
2.20042
  0
3DFACE
  8
2
10
-5.41699
20
2.00405
30
2.20042
11
-5.57909
21
1.50393
31
1.3344
12
-4.91734
22
2.50439
32
1.3344
13
-4.91734
23
2.50439
33
1.3344
  0
3DFACE
  8
2
10
-4.91734
20
2.50439
30
1.3344
11
-5.57909
21
1.50393
31
1.3344
12
-5.41699
22
2.00405
32
0.468373
13
-5.41699
23
2.00405
33
0.468373
  0
3DFACE
  8
2
10
-5.41699
20
2.00405
30
0.468373
11
-5.57909
21
1.50393
31
1.3344
12
-4.91628
22
1.0044
32
0.468373
13
-4.91628
23
1.0044
33
0.468373
  0
3DFACE
  8
2
10
-4.91628
20
1.0044
30
0.468373
11
-5.57909
21
1.50393
31
1.3344
12
-5.41593
22
0.504055
32
1.3344
13
-5.41593
23
0.504055
33
1.3344
  0
3DFACE
  8
2
10
-0.416661
20
2.50052
30
2.20042
11
-0.917008
21
2.00087
31
1.3344
12
-1.41712
22
1.83877
32
2.20042
13
-1.41712
23
1.83877
33
2.20042
  0
3DFACE
  8
2
10
-0.917008
20
2.00087
30
1.3344
11
-1.91665
21
2.50158
31
1.3344
12
-1.41712
22
1.83877
32
2.20042
13
-1.41712
23
1.83877
33
2.20042
  0
3DFACE
  8
2
10
-1.91665
20
2.50158
30
1.3344
11
-2.417
21
2.00193
31
2.20042
12
-1.41712
22
1.83877
32
2.20042
13
-1.41712
23
1.83877
33
2.20042
  0
3DFACE
  8
2
10
-2.417
20
2.00193
30
2.20042
11
-1.91665
21
2.50158
31
3.06644
12
-1.41712
22
1.83877
32
2.20042
13
-1.41712
23
1.83877
33
2.20042
  0
3DFACE
  8
2
10
-1.91665
20
2.50158
30
3.06644
11
-0.917008
21
2.00087
31
3.06644
12
-1.41712
22
1.83877
32
2.20042
13
-1.41712
23
1.83877
33
2.20042
  0
3DFACE
  8
2
10
-0.917008
20
2.00087
30
3.06644
11
-0.416661
21
2.50052
31
2.20042
12
-1.41712
22
1.83877
32
2.20042
13
-1.41712
23
1.83877
33
2.20042
  0
3DFACE
  8
2
10
-0.416661
20
2.50052
30
2.20042
11
-1.41654
21
2.66368
31
2.20042
12
-0.917008
22
2.00087
32
1.3344
13
-0.917008
23
2.00087
33
1.3344
  0
3DFACE
  8
2
10
-0.917008
20
2.00087
30
1.3344
11
-1.41654
21
2.66368
31
2.20042
12
-1.91665
22
2.50158
32
1.3344
13
-1.91665
23
2.50158
33
1.3344
  0
3DFACE
  8
2
10
-1.91665
20
2.50158
30
1.3344
11
-1.41654
21
2.66368
31
2.20042
12
-2.417
22
2.00193
32
2.20042
13
-2.417
23
2.00193
33
2.20042
  0
3DFACE
  8
2
10
-2.417
20
2.00193
30
2.20042
11
-1.41654
21
2.66368
31
2.20042
12
-1.91665
22
2.50158
32
3.06644
13
-1.91665
23
2.50158
33
3.06644
  0
3DFACE
  8
2
10
-1.91665
20
2.50158
30
3.06644
11
-1.41654
21
2.66368
31
2.20042
12
-0.917008
22
2.00087
32
3.06644
13
-0.917008
23
2.00087
33
3.06644
  0
3DFACE
  8
2
10
-0.917008
20
2.00087
30
3.06644
11
-1.41654
21
2.66368
31
2.20042
12
-0.416661
22
2.50052
32
2.20042
13
-0.416661
23
2.50052
33
2.20042
  0
3DFACE
  8
2
10
1.08333
20
2.49947
30
3.06644
11
0.582984
21
1.99982
31
2.20042
12
0.082871
22
1.83771
32
3.06644
13
0.082871
23
1.83771
33
3.06644
  0
3DFACE
  8
2
10
0.582984
20
1.99982
30
2.20042
11
-0.416661
21
2.50052
31
2.20042
12
0.082871
22
1.83771
32
3.06644
13
0.082871
23
1.83771
33
3.06644
  0
3DFACE
  8
2
10
-0.416661
20
2.50052
30
2.20042
11
-0.917008
21
2.00087
31
3.06644
12
0.082871
22
1.83771
32
3.06644
13
0.082871
23
1.83771
33
3.06644
  0
3DFACE
  8
2
10
-0.917008
20
2.00087
30
3.06644
11
-0.416661
21
2.50052
31
3.93247
12
0.082871
22
1.83771
32
3.06644
13
0.082871
23
1.83771
33
3.06644
  0
3DFACE
  8
2
10
-0.416661
20
2.50052
30
3.93247
11
0.582984
21
1.99982
31
3.93247
12
0.082871
22
1.83771
32
3.06644
13
0.082871
23
1.83771
33
3.06644
  0
3DFACE
  8
2
10
0.582984
20
1.99982
30
3.93247
11
1.08333
21
2.49947
31
3.06644
12
0.082871
22
1.83771
32
3.06644
13
0.082871
23
1.83771
33
3.06644
  0
3DFACE
  8
2
10
1.08333
20
2.49947
30
3.06644
11
0.0834527
21
2.66262
31
3.06644
12
0.582984
22
1.99982
32
2.20042
13
0.582984
23
1.99982
33
2.20042
  0
3DFACE
  8
2
10
0.582984
20
1.99982
30
2.20042
11
0.0834527
21
2.66262
31
3.06644
12
-0.416661
22
2.50052
32
2.20042
13
-0.416661
23
2.50052
33
2.20042
  0
3DFACE
  8
2
10
-0.416661
20
2.50052
30
2.20042
11
0.0834527
21
2.66262
31
3.06644
12
-0.917008
22
2.00087
32
3.06644
13
-0.917008
23
2.00087
33
3.06644
  0
3DFACE
  8
2
10
-0.917008
20
2.00087
30
3.06644
11
0.0834527
21
2.66262
31
3.06644
12
-0.416661
22
2.50052
32
3.93247
13
-0.416661
23
2.50052
33
3.93247
  0
3DFACE
  8
2
10
-0.416661
20
2.50052
30
3.93247
11
0.0834527
21
2.66262
31
3.06644
12
0.582984
22
1.99982
32
3.93247
13
0.582984
23
1.99982
33
3.93247
  0
3DFACE
  8
2
10
0.582984
20
1.99982
30
3.93247
11
0.0834527
21
2.66262
31
3.06644
12
1.08333
22
2.49947
32
3.06644
13
1.08333
23
2.49947
33
3.06644
  0
3DFACE
  8
2
10
-0.416661
20
2.50052
30
3.93247
11
-0.917008
21
2.00087
31
3.06644
12
-1.41712
22
1.83877
32
3.93247
13
-1.41712
23
1.83877
33
3.93247
  0
3DFACE
  8
2
10
-0.917008
20
2.00087
30
3.06644
11
-1.91665
21
2.50158
31
3.06644
12
-1.41712
22
1.83877
32
3.93247
13
-1.41712
23
1.83877
33
3.93247
  0
3DFACE
  8
2
10
-1.91665
20
2.50158
30
3.06644
11
-2.417
21
2.00193
31
3.93247
12
-1.41712
22
1.83877
32
3.93247
13
-1.41712
23
1.83877
33
3.93247
  0
3DFACE
  8
2
10
-2.417
20
2.00193
30
3.93247
11
-1.91665
21
2.50158
31
4.79849
12
-1.41712
22
1.83877
32
3.93247
13
-1.41712
23
1.83877
33
3.93247
  0
3DFACE
  8
2
10
-1.91665
20
2.50158
30
4.79849
11
-0.917008
21
2.00087
31
4.79849
12
-1.41712
22
1.83877
32
3.93247
13
-1.41712
23
1.83877
33
3.93247
  0
3DFACE
  8
2
10
-0.917008
20
2.00087
30
4.79849
11
-0.416661
21
2.50052
31
3.93247
12
-1.41712
22
1.83877
32
3.93247
13
-1.41712
23
1.83877
33
3.93247
  0
3DFACE
  8
2
10
-0.416661
20
2.50052
30
3.93247
11
-1.41654
21
2.66368
31
3.93247
12
-0.917008
22
2.00087
32
3.06644
13
-0.917008
23
2.00087
33
3.06644
  0
3DFACE
  8
2
10
-0.917008
20
2.00087
30
3.06644
11
-1.41654
21
2.66368
31
3.93247
12
-1.91665
22
2.50158
32
3.06644
13
-1.91665
23
2.50158
33
3.06644
  0
3DFACE
  8
2
10
-1.91665
20
2.50158
30
3.06644
11
-1.41654
21
2.66368
31
3.93247
12
-2.417
22
2.00193
32
3.93247
13
-2.417
23
2.00193
33
3.93247
  0
3DFACE
  8
2
10
-2.417
20
2.00193
30
3.93247
11
-1.41654
21
2.66368
31
3.93247
12
-1.91665
22
2.50158
32
4.79849
13
-1.91665
23
2.50158
33
4.79849
  0
3DFACE
  8
2
10
-1.91665
20
2.50158
30
4.79849
11
-1.41654
21
2.66368
31
3.93247
12
-0.917008
22
2.00087
32
4.79849
13
-0.917008
23
2.00087
33
4.79849
  0
3DFACE
  8
2
10
-0.917008
20
2.00087
30
4.79849
11
-1.41654
21
2.66368
31
3.93247
12
-0.416661
22
2.50052
32
3.93247
13
-0.416661
23
2.50052
33
3.93247
  0
3DFACE
  8
2
10
1.08333
20
2.49947
30
4.79849
11
0.582984
21
1.99982
31
3.93247
12
0.082871
22
1.83771
32
4.79849
13
0.082871
23
1.83771
33
4.79849
  0
3DFACE
  8
2
10
0.582984
20
1.99982
30
3.93247
11
-0.416661
21
2.50052
31
3.93247
12
0.082871
22
1.83771
32
4.79849
13
0.082871
23
1.83771
33
4.79849
  0
3DFACE
  8
2
10
-0.416661
20
2.50052
30
3.93247
11
-0.917008
21
2.00087
31
4.79849
12
0.082871
22
1.83771
32
4.79849
13
0.082871
23
1.83771
33
4.79849
  0
3DFACE
  8
2
10
-0.917008
20
2.00087
30
4.79849
11
-0.416661
21
2.50052
31
5.66452
12
0.082871
22
1.83771
32
4.79849
13
0.082871
23
1.83771
33
4.79849
  0
3DFACE
  8
2
10
-0.416661
20
2.50052
30
5.66452
11
0.582984
21
1.99982
31
5.66452
12
0.082871
22
1.83771
32
4.79849
13
0.082871
23
1.83771
33
4.79849
  0
3DFACE
  8
2
10
0.582984
20
1.99982
30
5.66452
11
1.08333
21
2.49947
31
4.79849
12
0.082871
22
1.83771
32
4.79849
13
0.082871
23
1.83771
33
4.79849
  0
3DFACE
  8
2
10
1.08333
20
2.49947
30
4.79849
11
0.0834527
21
2.66262
31
4.79849
12
0.582984
22
1.99982
32
3.93247
13
0.582984
23
1.99982
33
3.93247
  0
3DFACE
  8
2
10
0.582984
20
1.99982
30
3.93247
11
0.0834527
21
2.66262
31
4.79849
12
-0.416661
22
2.50052
32
3.93247
13
-0.416661
23
2.50052
33
3.93247
  0
3DFACE
  8
2
10
-0.416661
20
2.50052
30
3.93247
11
0.0834527
21
2.66262
31
4.79849
12
-0.917008
22
2.00087
32
4.79849
13
-0.917008
23
2.00087
33
4.79849
  0
3DFACE
  8
2
10
-0.917008
20
2.00087
30
4.79849
11
0.0834527
21
2.66262
31
4.79849
12
-0.416661
22
2.50052
32
5.66452
13
-0.416661
23
2.50052
33
5.66452
  0
3DFACE
  8
2
10
-0.416661
20
2.50052
30
5.66452
11
0.0834527
21
2.66262
31
4.79849
12
0.582984
22
1.99982
32
5.66452
13
0.582984
23
1.99982
33
5.66452
  0
3DFACE
  8
2
10
0.582984
20
1.99982
30
5.66452
11
0.0834527
21
2.66262
31
4.79849
12
1.08333
22
2.49947
32
4.79849
13
1.08333
23
2.49947
33
4.79849
  0
3DFACE
  8
2
10
-0.416661
20
2.50052
30
5.66452
11
-0.917008
21
2.00087
31
4.79849
12
-1.41712
22
1.83877
32
5.66452
13
-1.41712
23
1.83877
33
5.66452
  0
3DFACE
  8
2
10
-0.917008
20
2.00087
30
4.79849
11
-1.91665
21
2.50158
31
4.79849
12
-1.41712
22
1.83877
32
5.66452
13
-1.41712
23
1.83877
33
5.66452
  0
3DFACE
  8
2
10
-1.91665
20
2.50158
30
4.79849
11
-2.417
21
2.00193
31
5.66452
12
-1.41712
22
1.83877
32
5.66452
13
-1.41712
23
1.83877
33
5.66452
  0
3DFACE
  8
2
10
-2.417
20
2.00193
30
5.66452
11
-1.91665
21
2.50158
31
6.53054
12
-1.41712
22
1.83877
32
5.66452
13
-1.41712
23
1.83877
33
5.66452
  0
3DFACE
  8
2
10
-1.91665
20
2.50158
30
6.53054
11
-0.917008
21
2.00087
31
6.53054
12
-1.41712
22
1.83877
32
5.66452
13
-1.41712
23
1.83877
33
5.66452
  0
3DFACE
  8
2
10
-0.917008
20
2.00087
30
6.53054
11
-0.416661
21
2.50052
31
5.66452
12
-1.41712
22
1.83877
32
5.66452
13
-1.41712
23
1.83877
33
5.66452
  0
3DFACE
  8
2
10
-0.416661
20
2.50052
30
5.66452
11
-1.41654
21
2.66368
31
5.66452
12
-0.917008
22
2.00087
32
4.79849
13
-0.917008
23
2.00087
33
4.79849
  0
3DFACE
  8
2
10
-0.917008
20
2.00087
30
4.79849
11
-1.41654
21
2.66368
31
5.66452
12
-1.91665
22
2.50158
32
4.79849
13
-1.91665
23
2.50158
33
4.79849
  0
3DFACE
  8
2
10
-1.91665
20
2.50158
30
4.79849
11
-1.41654
21
2.66368
31
5.66452
12
-2.417
22
2.00193
32
5.66452
13
-2.417
23
2.00193
33
5.66452
  0
3DFACE
  8
2
10
-2.417
20
2.00193
30
5.66452
11
-1.41654
21
2.66368
31
5.66452
12
-1.91665
22
2.50158
32
6.53054
13
-1.91665
23
2.50158
33
6.53054
  0
3DFACE
  8
2
10
-1.91665
20
2.50158
30
6.53054
11
-1.41654
21
2.66368
31
5.66452
12
-0.917008
22
2.00087
32
6.53054
13
-0.917008
23
2.00087
33
6.53054
  0
3DFACE
  8
2
10
-0.917008
20
2.00087
30
6.53054
11
-1.41654
21
2.66368
31
5.66452
12
-0.416661
22
2.50052
32
5.66452
13
-0.416661
23
2.50052
33
5.66452
  0
3DFACE
  8
2
10
-1.91665
20
2.50158
30
3.06644
11
-2.417
21
2.00193
31
2.20042
12
-2.91711
22
1.83983
32
3.06644
13
-2.91711
23
1.83983
33
3.06644
  0
3DFACE
  8
2
10
-2.417
20
2.00193
30
2.20042
11
-3.41665
21
2.50264
31
2.20042
12
-2.91711
22
1.83983
32
3.06644
13
-2.91711
23
1.83983
33
3.06644
  0
3DFACE
  8
2
10
-3.41665
20
2.50264
30
2.20042
11
-3.91699
21
2.00299
31
3.06644
12
-2.91711
22
1.83983
32
3.06644
13
-2.91711
23
1.83983
33
3.06644
  0
3DFACE
  8
2
10
-3.91699
20
2.00299
30
3.06644
11
-3.41665
21
2.50264
31
3.93247
12
-2.91711
22
1.83983
32
3.06644
13
-2.91711
23
1.83983
33
3.06644
  0
3DFACE
  8
2
10
-3.41665
20
2.50264
30
3.93247
11
-2.417
21
2.00193
31
3.93247
12
-2.91711
22
1.83983
32
3.06644
13
-2.91711
23
1.83983
33
3.06644
  0
3DFACE
  8
2
10
-2.417
20
2.00193
30
3.93247
11
-1.91665
21
2.50158
31
3.06644
12
-2.91711
22
1.83983
32
3.06644
13
-2.91711
23
1.83983
33
3.06644
  0
3DFACE
  8
2
10
-1.91665
20
2.50158
30
3.06644
11
-2.91653
21
2.66474
31
3.06644
12
-2.417
22
2.00193
32
2.20042
13
-2.417
23
2.00193
33
2.20042
  0
3DFACE
  8
2
10
-2.417
20
2.00193
30
2.20042
11
-2.91653
21
2.66474
31
3.06644
12
-3.41665
22
2.50264
32
2.20042
13
-3.41665
23
2.50264
33
2.20042
  0
3DFACE
  8
2
10
-3.41665
20
2.50264
30
2.20042
11
-2.91653
21
2.66474
31
3.06644
12
-3.91699
22
2.00299
32
3.06644
13
-3.91699
23
2.00299
33
3.06644
  0
3DFACE
  8
2
10
-3.91699
20
2.00299
30
3.06644
11
-2.91653
21
2.66474
31
3.06644
12
-3.41665
22
2.50264
32
3.93247
13
-3.41665
23
2.50264
33
3.93247
  0
3DFACE
  8
2
10
-3.41665
20
2.50264
30
3.93247
11
-2.91653
21
2.66474
31
3.06644
12
-2.417
22
2.00193
32
3.93247
13
-2.417
23
2.00193
33
3.93247
  0
3DFACE
  8
2
10
-2.417
20
2.00193
30
3.93247
11
-2.91653
21
2.66474
31
3.06644
12
-1.91665
22
2.50158
32
3.06644
13
-1.91665
23
2.50158
33
3.06644
  0
3DFACE
  8
2
10
-1.91665
20
2.50158
30
4.79849
11
-2.417
21
2.00193
31
3.93247
12
-2.91711
22
1.83983
32
4.79849
13
-2.91711
23
1.83983
33
4.79849
  0
3DFACE
  8
2
10
-2.417
20
2.00193
30
3.93247
11
-3.41665
21
2.50264
31
3.93247
12
-2.91711
22
1.83983
32
4.79849
13
-2.91711
23
1.83983
33
4.79849
  0
3DFACE
  8
2
10
-3.41665
20
2.50264
30
3.93247
11
-3.91699
21
2.00299
31
4.79849
12
-2.91711
22
1.83983
32
4.79849
13
-2.91711
23
1.83983
33
4.79849
  0
3DFACE
  8
2
10
-3.91699
20
2.00299
30
4.79849
11
-3.41665
21
2.50264
31
5.66452
12
-2.91711
22
1.83983
32
4.79849
13
-2.91711
23
1.83983
33
4.79849
  0
3DFACE
  8
2
10
-3.41665
20
2.50264
30
5.66452
11
-2.417
21
2.00193
31
5.66452
12
-2.91711
22
1.83983
32
4.79849
13
-2.91711
23
1.83983
33
4.79849
  0
3DFACE
  8
2
10
-2.417
20
2.00193
30
5.66452
11
-1.91665
21
2.50158
31
4.79849
12
-2.91711
22
1.83983
32
4.79849
13
-2.91711
23
1.83983
33
4.79849
  0
3DFACE
  8
2
10
-1.91665
20
2.50158
30
4.79849
11
-2.91653
21
2.66474
31
4.79849
12
-2.417
22
2.00193
32
3.93247
13
-2.417
23
2.00193
33
3.93247
  0
3DFACE
  8
2
10
-2.417
20
2.00193
30
3.93247
11
-2.91653
21
2.66474
31
4.79849
12
-3.41665
22
2.50264
32
3.93247
13
-3.41665
23
2.50264
33
3.93247
  0
3DFACE
  8
2
10
-3.41665
20
2.50264
30
3.93247
11
-2.91653
21
2.66474
31
4.79849
12
-3.91699
22
2.00299
32
4.79849
13
-3.91699
23
2.00299
33
4.79849
  0
3DFACE
  8
2
10
-3.91699
20
2.00299
30
4.79849
11
-2.91653
21
2.66474
31
4.79849
12
-3.41665
22
2.50264
32
5.66452
13
-3.41665
23
2.50264
33
5.66452
  0
3DFACE
  8
2
10
-3.41665
20
2.50264
30
5.66452
11
-2.91653
21
2.66474
31
4.79849
12
-2.417
22
2.00193
32
5.66452
13
-2.417
23
2.00193
33
5.66452
  0
3DFACE
  8
2
10
-2.417
20
2.00193
30
5.66452
11
-2.91653
21
2.66474
31
4.79849
12
-1.91665
22
2.50158
32
4.79849
13
-1.91665
23
2.50158
33
4.79849
  0
3DFACE
  8
2
10
-3.41665
20
2.50264
30
2.20042
11
-3.91699
21
2.00299
31
1.3344
12
-4.41711
22
1.84089
32
2.20042
13
-4.41711
23
1.84089
33
2.20042
  0
3DFACE
  8
2
10
-3.91699
20
2.00299
30
1.3344
11
-4.91664
21
2.5037
31
1.3344
12
-4.41711
22
1.84089
32
2.20042
13
-4.41711
23
1.84089
33
2.20042
  0
3DFACE
  8
2
10
-4.91664
20
2.5037
30
1.3344
11
-5.41699
21
2.00405
31
2.20042
12
-4.41711
22
1.84089
32
2.20042
13
-4.41711
23
1.84089
33
2.20042
  0
3DFACE
  8
2
10
-5.41699
20
2.00405
30
2.20042
11
-4.91664
21
2.5037
31
3.06644
12
-4.41711
22
1.84089
32
2.20042
13
-4.41711
23
1.84089
33
2.20042
  0
3DFACE
  8
2
10
-4.91664
20
2.5037
30
3.06644
11
-3.91699
21
2.00299
31
3.06644
12
-4.41711
22
1.84089
32
2.20042
13
-4.41711
23
1.84089
33
2.20042
  0
3DFACE
  8
2
10
-3.91699
20
2.00299
30
3.06644
11
-3.41665
21
2.50264
31
2.20042
12
-4.41711
22
1.84089
32
2.20042
13
-4.41711
23
1.84089
33
2.20042
  0
3DFACE
  8
2
10
-3.41665
20
2.50264
30
2.20042
11
-4.41653
21
2.6658
31
2.20042
12
-3.91699
22
2.00299
32
1.3344
13
-3.91699
23
2.00299
33
1.3344
  0
3DFACE
  8
2
10
-3.91699
20
2.00299
30
1.3344
11
-4.41653
21
2.6658
31
2.20042
12
-4.91664
22
2.5037
32
1.3344
13
-4.91664
23
2.5037
33
1.3344
  0
3DFACE
  8
2
10
-4.91664
20
2.5037
30
1.3344
11
-4.41653
21
2.6658
31
2.20042
12
-5.41699
22
2.00405
32
2.20042
13
-5.41699
23
2.00405
33
2.20042
  0
3DFACE
  8
2
10
-5.41699
20
2.00405
30
2.20042
11
-4.41653
21
2.6658
31
2.20042
12
-4.91664
22
2.5037
32
3.06644
13
-4.91664
23
2.5037
33
3.06644
  0
3DFACE
  8
2
10
-4.91664
20
2.5037
30
3.06644
11
-4.41653
21
2.6658
31
2.20042
12
-3.91699
22
2.00299
32
3.06644
13
-3.91699
23
2.00299
33
3.06644
  0
3DFACE
  8
2
10
-3.91699
20
2.00299
30
3.06644
11
-4.41653
21
2.6658
31
2.20042
12
-3.41665
22
2.50264
32
2.20042
13
-3.41665
23
2.50264
33
2.20042
  0
3DFACE
  8
2
10
-3.41665
20
2.50264
30
3.93247
11
-3.91699
21
2.00299
31
3.06644
12
-4.41711
22
1.84089
32
3.93247
13
-4.41711
23
1.84089
33
3.93247
  0
3DFACE
  8
2
10
-3.91699
20
2.00299
30
3.06644
11
-4.91664
21
2.5037
31
3.06644
12
-4.41711
22
1.84089
32
3.93247
13
-4.41711
23
1.84089
33
3.93247
  0
3DFACE
  8
2
10
-4.91664
20
2.5037
30
3.06644
11
-5.41699
21
2.00405
31
3.93247
12
-4.41711
22
1.84089
32
3.93247
13
-4.41711
23
1.84089
33
3.93247
  0
3DFACE
  8
2
10
-5.41699
20
2.00405
30
3.93247
11
-4.91664
21
2.5037
31
4.79849
12
-4.41711
22
1.84089
32
3.93247
13
-4.41711
23
1.84089
33
3.93247
  0
3DFACE
  8
2
10
-4.91664
20
2.5037
30
4.79849
11
-3.91699
21
2.00299
31
4.79849
12
-4.41711
22
1.84089
32
3.93247
13
-4.41711
23
1.84089
33
3.93247
  0
3DFACE
  8
2
10
-3.91699
20
2.00299
30
4.79849
11
-3.41665
21
2.50264
31
3.93247
12
-4.41711
22
1.84089
32
3.93247
13
-4.41711
23
1.84089
33
3.93247
  0
3DFACE
  8
2
10
-3.41665
20
2.50264
30
3.93247
11
-4.41653
21
2.6658
31
3.93247
12
-3.91699
22
2.00299
32
3.06644
13
-3.91699
23
2.00299
33
3.06644
  0
3DFACE
  8
2
10
-3.91699
20
2.00299
30
3.06644
11
-4.41653
21
2.6658
31
3.93247
12
-4.91664
22
2.5037
32
3.06644
13
-4.91664
23
2.5037
33
3.06644
  0
3DFACE
  8
2
10
-4.91664
20
2.5037
30
3.06644
11
-4.41653
21
2.6658
31
3.93247
12
-5.41699
22
2.00405
32
3.93247
13
-5.41699
23
2.00405
33
3.93247
  0
3DFACE
  8
2
10
-5.41699
20
2.00405
30
3.93247
11
-4.41653
21
2.6658
31
3.93247
12
-4.91664
22
2.5037
32
4.79849
13
-4.91664
23
2.5037
33
4.79849
  0
3DFACE
  8
2
10
-4.91664
20
2.5037
30
4.79849
11
-4.41653
21
2.6658
31
3.93247
12
-3.91699
22
2.00299
32
4.79849
13
-3.91699
23
2.00299
33
4.79849
  0
3DFACE
  8
2
10
-3.91699
20
2.00299
30
4.79849
11
-4.41653
21
2.6658
31
3.93247
12
-3.41665
22
2.50264
32
3.93247
13
-3.41665
23
2.50264
33
3.93247
  0
3DFACE
  8
2
10
-3.41665
20
2.50264
30
5.66452
11
-3.91699
21
2.00299
31
4.79849
12
-4.41711
22
1.84089
32
5.66452
13
-4.41711
23
1.84089
33
5.66452
  0
3DFACE
  8
2
10
-3.91699
20
2.00299
30
4.79849
11
-4.91664
21
2.5037
31
4.79849
12
-4.41711
22
1.84089
32
5.66452
13
-4.41711
23
1.84089
33
5.66452
  0
3DFACE
  8
2
10
-4.91664
20
2.5037
30
4.79849
11
-5.41699
21
2.00405
31
5.66452
12
-4.41711
22
1.84089
32
5.66452
13
-4.41711
23
1.84089
33
5.66452
  0
3DFACE
  8
2
10
-5.41699
20
2.00405
30
5.66452
11
-4.91664
21
2.5037
31
6.53054
12
-4.41711
22
1.84089
32
5.66452
13
-4.41711
23
1.84089
33
5.66452
  0
3DFACE
  8
2
10
-4.91664
20
2.5037
30
6.53054
11
-3.91699
21
2.00299
31
6.53054
12
-4.41711
22
1.84089
32
5.66452
13
-4.41711
23
1.84089
33
5.66452
  0
3DFACE
  8
2
10
-3.91699
20
2.00299
30
6.53054
11
-3.41665
21
2.50264
31
5.66452
12
-4.41711
22
1.84089
32
5.66452
13
-4.41711
23
1.84089
33
5.66452
  0
3DFACE
  8
2
10
-3.41665
20
2.50264
30
5.66452
11
-4.41653
21
2.6658
31
5.66452
12
-3.91699
22
2.00299
32
4.79849
13
-3.91699
23
2.00299
33
4.79849
  0
3DFACE
  8
2
10
-3.91699
20
2.00299
30
4.79849
11
-4.41653
21
2.6658
31
5.66452
12
-4.91664
22
2.5037
32
4.79849
13
-4.91664
23
2.5037
33
4.79849
  0
3DFACE
  8
2
10
-4.91664
20
2.5037
30
4.79849
11
-4.41653
21
2.6658
31
5.66452
12
-5.41699
22
2.00405
32
5.66452
13
-5.41699
23
2.00405
33
5.66452
  0
3DFACE
  8
2
10
-5.41699
20
2.00405
30
5.66452
11
-4.41653
21
2.6658
31
5.66452
12
-4.91664
22
2.5037
32
6.53054
13
-4.91664
23
2.5037
33
6.53054
  0
3DFACE
  8
2
10
-4.91664
20
2.5037
30
6.53054
11
-4.41653
21
2.6658
31
5.66452
12
-3.91699
22
2.00299
32
6.53054
13
-3.91699
23
2.00299
33
6.53054
  0
3DFACE
  8
2
10
-3.91699
20
2.00299
30
6.53054
11
-4.41653
21
2.6658
31
5.66452
12
-3.41665
22
2.50264
32
5.66452
13
-3.41665
23
2.50264
33
5.66452
  0
ENDSEC
  0
EOF
