999
DXF by Paul Bourke
  0
SECTION
  2
HEADER
  9
$ACADVER
  1
AC1006
  9
$INSBASE
 10
0.0
 20
0.0
 30
0.0
  9
$EXTMIN
 10
0.0
 20
0.0
  9
$EXTMAX
 10
1000.0
 20
1000.0
  9
$LINMIN
 10
0.0
 20
0.0
  9
$LINMAX
 10
1000.0
 20
1000.0
  0
ENDSEC
  0
SECTION
  2
TABLES
  0
TABLE
  2
LTYPE
 70
1
  0
LTYPE
  2
CONTINUOUS
 70
64
  3
Solid line
 72
65
 73
0
 40
0.000000
  0
ENDTAB
  0
TABLE
  2
LAYER
 70
6
  0
LAYER
  2
1
 70
64
 62
7
  6
CONTINUOUS
  0
ENDTAB
  0
TABLE
  2
STYLE
 70
0
  0
ENDTAB
  0
ENDSEC
  0
SECTION
  2
BLOCKS
  0
ENDSEC
  0
SECTION
  2
ENTITIES
  0
3DFACE
  8
2
10
-0.862901
20
-0.518015
30
0.232677
11
0.000813082
21
-0.0242754
31
0.333768
12
-0.000141623
22
-0.888624
32
-0.204855
13
-0.000141623
23
-0.888624
33
-0.204855
  0
3DFACE
  8
2
10
-0.862901
20
-0.518015
30
0.232677
11
-0.000141623
21
-0.888624
31
-0.204855
12
-0.863536
22
-1.42827
32
-0.18138
13
-0.863536
23
-1.42827
33
-0.18138
  0
3DFACE
  8
2
10
-0.862901
20
-0.518015
30
0.232677
11
-0.863536
21
-1.42827
31
-0.18138
12
-1.72747
22
-0.889316
32
-0.200683
13
-1.72747
23
-0.889316
33
-0.200683
  0
3DFACE
  8
2
10
-0.862901
20
-0.518015
30
0.232677
11
-1.72747
21
-0.889316
31
-0.200683
12
-1.72651
22
-0.0249671
32
0.33794
13
-1.72651
23
-0.0249671
33
0.33794
  0
3DFACE
  8
2
10
-0.862901
20
-0.518015
30
0.232677
11
-1.72651
21
-0.0249671
31
0.33794
12
-0.863117
22
0.514675
32
0.314465
13
-0.863117
23
0.514675
33
0.314465
  0
3DFACE
  8
2
10
-0.862901
20
-0.518015
30
0.232677
11
-0.863117
21
0.514675
31
0.314465
12
0.000813082
22
-0.0242754
32
0.333768
13
0.000813082
23
-0.0242754
33
0.333768
  0
3DFACE
  8
2
10
-0.863752
20
-0.395576
30
-0.0995927
11
-0.000141623
21
-0.888624
31
-0.204855
12
0.000813082
22
-0.0242754
32
0.333768
13
0.000813082
23
-0.0242754
33
0.333768
  0
3DFACE
  8
2
10
-0.863752
20
-0.395576
30
-0.0995927
11
-0.863536
21
-1.42827
31
-0.18138
12
-0.000141623
22
-0.888624
32
-0.204855
13
-0.000141623
23
-0.888624
33
-0.204855
  0
3DFACE
  8
2
10
-0.863752
20
-0.395576
30
-0.0995927
11
-1.72747
21
-0.889316
31
-0.200683
12
-0.863536
22
-1.42827
32
-0.18138
13
-0.863536
23
-1.42827
33
-0.18138
  0
3DFACE
  8
2
10
-0.863752
20
-0.395576
30
-0.0995927
11
-1.72651
21
-0.0249671
31
0.33794
12
-1.72747
22
-0.889316
32
-0.200683
13
-1.72747
23
-0.889316
33
-0.200683
  0
3DFACE
  8
2
10
-0.863752
20
-0.395576
30
-0.0995927
11
-0.863117
21
0.514675
31
0.314465
12
-1.72651
22
-0.0249671
32
0.33794
13
-1.72651
23
-0.0249671
33
0.33794
  0
3DFACE
  8
2
10
-0.863752
20
-0.395576
30
-0.0995927
11
0.000813082
21
-0.0242754
31
0.333768
12
-0.863117
22
0.514675
32
0.314465
13
-0.863117
23
0.514675
33
0.314465
  0
3DFACE
  8
2
10
9.03026e-06
20
0.998693
30
0.17045
11
0.000813082
21
-0.0242754
31
0.333768
12
-0.863117
22
0.514675
32
0.314465
13
-0.863117
23
0.514675
33
0.314465
  0
3DFACE
  8
2
10
9.03026e-06
20
0.998693
30
0.17045
11
-0.863117
21
0.514675
31
0.314465
12
-0.864907
22
1.33365
32
-0.290921
13
-0.864907
23
1.33365
33
-0.290921
  0
3DFACE
  8
2
10
9.03026e-06
20
0.998693
30
0.17045
11
-0.864907
21
1.33365
31
-0.290921
12
-0.00151213
22
1.87329
32
-0.314397
13
-0.00151213
23
1.87329
33
-0.314397
  0
3DFACE
  8
2
10
9.03026e-06
20
0.998693
30
0.17045
11
-0.00151213
21
1.87329
31
-0.314397
12
0.862418
22
1.33434
32
-0.295093
13
0.862418
23
1.33434
33
-0.295093
  0
3DFACE
  8
2
10
9.03026e-06
20
0.998693
30
0.17045
11
0.862418
21
1.33434
31
-0.295093
12
0.864208
22
0.515367
32
0.310293
13
0.864208
23
0.515367
33
0.310293
  0
3DFACE
  8
2
10
9.03026e-06
20
0.998693
30
0.17045
11
0.864208
21
0.515367
31
0.310293
12
0.000813082
22
-0.0242754
32
0.333768
13
0.000813082
23
-0.0242754
33
0.333768
  0
3DFACE
  8
2
10
-0.000708076
20
0.850322
30
-0.151079
11
-0.863117
21
0.514675
31
0.314465
12
0.000813082
22
-0.0242754
32
0.333768
13
0.000813082
23
-0.0242754
33
0.333768
  0
3DFACE
  8
2
10
-0.000708076
20
0.850322
30
-0.151079
11
-0.864907
21
1.33365
31
-0.290921
12
-0.863117
22
0.514675
32
0.314465
13
-0.863117
23
0.514675
33
0.314465
  0
3DFACE
  8
2
10
-0.000708076
20
0.850322
30
-0.151079
11
-0.00151213
21
1.87329
31
-0.314397
12
-0.864907
22
1.33365
32
-0.290921
13
-0.864907
23
1.33365
33
-0.290921
  0
3DFACE
  8
2
10
-0.000708076
20
0.850322
30
-0.151079
11
0.862418
21
1.33434
31
-0.295093
12
-0.00151213
22
1.87329
32
-0.314397
13
-0.00151213
23
1.87329
33
-0.314397
  0
3DFACE
  8
2
10
-0.000708076
20
0.850322
30
-0.151079
11
0.864208
21
0.515367
31
0.310293
12
0.862418
22
1.33434
32
-0.295093
13
0.862418
23
1.33434
33
-0.295093
  0
3DFACE
  8
2
10
-0.000708076
20
0.850322
30
-0.151079
11
0.000813082
21
-0.0242754
31
0.333768
12
0.864208
22
0.515367
32
0.310293
13
0.864208
23
0.515367
33
0.310293
  0
3DFACE
  8
2
10
0.864424
20
-0.517324
30
0.228506
11
0.000813082
21
-0.0242754
31
0.333768
12
0.864208
22
0.515367
32
0.310293
13
0.864208
23
0.515367
33
0.310293
  0
3DFACE
  8
2
10
0.864424
20
-0.517324
30
0.228506
11
0.864208
21
0.515367
31
0.310293
12
1.72814
22
-0.0235837
32
0.329596
13
1.72814
23
-0.0235837
33
0.329596
  0
3DFACE
  8
2
10
0.864424
20
-0.517324
30
0.228506
11
1.72814
21
-0.0235837
31
0.329596
12
1.72718
22
-0.887932
32
-0.209027
13
1.72718
23
-0.887932
33
-0.209027
  0
3DFACE
  8
2
10
0.864424
20
-0.517324
30
0.228506
11
1.72718
21
-0.887932
31
-0.209027
12
0.863788
22
-1.42757
32
-0.185552
13
0.863788
23
-1.42757
33
-0.185552
  0
3DFACE
  8
2
10
0.864424
20
-0.517324
30
0.228506
11
0.863788
21
-1.42757
31
-0.185552
12
-0.000141623
22
-0.888624
32
-0.204855
13
-0.000141623
23
-0.888624
33
-0.204855
  0
3DFACE
  8
2
10
0.864424
20
-0.517324
30
0.228506
11
-0.000141623
21
-0.888624
31
-0.204855
12
0.000813082
22
-0.0242754
32
0.333768
13
0.000813082
23
-0.0242754
33
0.333768
  0
3DFACE
  8
2
10
0.863572
20
-0.394884
30
-0.103764
11
0.864208
21
0.515367
31
0.310293
12
0.000813082
22
-0.0242754
32
0.333768
13
0.000813082
23
-0.0242754
33
0.333768
  0
3DFACE
  8
2
10
0.863572
20
-0.394884
30
-0.103764
11
1.72814
21
-0.0235837
31
0.329596
12
0.864208
22
0.515367
32
0.310293
13
0.864208
23
0.515367
33
0.310293
  0
3DFACE
  8
2
10
0.863572
20
-0.394884
30
-0.103764
11
1.72718
21
-0.887932
31
-0.209027
12
1.72814
22
-0.0235837
32
0.329596
13
1.72814
23
-0.0235837
33
0.329596
  0
3DFACE
  8
2
10
0.863572
20
-0.394884
30
-0.103764
11
0.863788
21
-1.42757
31
-0.185552
12
1.72718
22
-0.887932
32
-0.209027
13
1.72718
23
-0.887932
33
-0.209027
  0
3DFACE
  8
2
10
0.863572
20
-0.394884
30
-0.103764
11
-0.000141623
21
-0.888624
31
-0.204855
12
0.863788
22
-1.42757
32
-0.185552
13
0.863788
23
-1.42757
33
-0.185552
  0
3DFACE
  8
2
10
0.863572
20
-0.394884
30
-0.103764
11
0.000813082
21
-0.0242754
31
0.333768
12
-0.000141623
22
-0.888624
32
-0.204855
13
-0.000141623
23
-0.888624
33
-0.204855
  0
ENDSEC
  0
EOF
