999
DXF by Paul Bourke
  0
SECTION
  2
HEADER
  9
$ACADVER
  1
AC1006
  9
$INSBASE
 10
0.0
 20
0.0
 30
0.0
  9
$EXTMIN
 10
0.0
 20
0.0
  9
$EXTMAX
 10
1000.0
 20
1000.0
  9
$LINMIN
 10
0.0
 20
0.0
  9
$LINMAX
 10
1000.0
 20
1000.0
  0
ENDSEC
  0
SECTION
  2
TABLES
  0
TABLE
  2
LTYPE
 70
1
  0
LTYPE
  2
CONTINUOUS
 70
64
  3
Solid line
 72
65
 73
0
 40
0.000000
  0
ENDTAB
  0
TABLE
  2
LAYER
 70
6
  0
LAYER
  2
1
 70
64
 62
7
  6
CONTINUOUS
  0
ENDTAB
  0
TABLE
  2
STYLE
 70
0
  0
ENDTAB
  0
ENDSEC
  0
SECTION
  2
BLOCKS
  0
ENDSEC
  0
SECTION
  2
ENTITIES
  0
3DFACE
  8
2
10
-0.861651
20
-0.531964
30
0.301463
11
-1.81306e-05
21
-0.0420997
31
0.434209
12
2.00191e-05
22
-0.803424
32
-0.267776
13
2.00191e-05
23
-0.803424
33
-0.267776
  0
3DFACE
  8
2
10
-0.861651
20
-0.531964
30
0.301463
11
2.00191e-05
21
-0.803424
31
-0.267776
12
-0.861619
22
-1.37684
32
-0.233504
13
-0.861619
23
-1.37684
33
-0.233504
  0
3DFACE
  8
2
10
-0.861651
20
-0.531964
30
0.301463
11
-0.861619
21
-1.37684
31
-0.233504
12
-1.72327
22
-0.803443
32
-0.26785
13
-1.72327
23
-0.803443
33
-0.26785
  0
3DFACE
  8
2
10
-0.861651
20
-0.531964
30
0.301463
11
-1.72327
21
-0.803443
31
-0.26785
12
-1.72331
22
-0.0421182
32
0.434136
13
-1.72331
23
-0.0421182
33
0.434136
  0
3DFACE
  8
2
10
-0.861651
20
-0.531964
30
0.301463
11
-1.72331
21
-0.0421182
31
0.434136
12
-0.861667
22
0.531295
32
0.399863
13
-0.861667
23
0.531295
33
0.399863
  0
3DFACE
  8
2
10
-0.861651
20
-0.531964
30
0.301463
11
-0.861667
21
0.531295
31
0.399863
12
-1.81306e-05
22
-0.0420997
32
0.434209
13
-1.81306e-05
23
-0.0420997
33
0.434209
  0
3DFACE
  8
2
10
-0.861635
20
-0.313579
30
-0.135103
11
2.00191e-05
21
-0.803424
31
-0.267776
12
-1.81306e-05
22
-0.0420997
32
0.434209
13
-1.81306e-05
23
-0.0420997
33
0.434209
  0
3DFACE
  8
2
10
-0.861635
20
-0.313579
30
-0.135103
11
-0.861619
21
-1.37684
31
-0.233504
12
2.00191e-05
22
-0.803424
32
-0.267776
13
2.00191e-05
23
-0.803424
33
-0.267776
  0
3DFACE
  8
2
10
-0.861635
20
-0.313579
30
-0.135103
11
-1.72327
21
-0.803443
31
-0.26785
12
-0.861619
22
-1.37684
32
-0.233504
13
-0.861619
23
-1.37684
33
-0.233504
  0
3DFACE
  8
2
10
-0.861635
20
-0.313579
30
-0.135103
11
-1.72331
21
-0.0421182
31
0.434136
12
-1.72327
22
-0.803443
32
-0.26785
13
-1.72327
23
-0.803443
33
-0.26785
  0
3DFACE
  8
2
10
-0.861635
20
-0.313579
30
-0.135103
11
-0.861667
21
0.531295
31
0.399863
12
-1.72331
22
-0.0421182
32
0.434136
13
-1.72331
23
-0.0421182
33
0.434136
  0
3DFACE
  8
2
10
-0.861635
20
-0.313579
30
-0.135103
11
-1.81306e-05
21
-0.0420997
31
0.434209
12
-0.861667
22
0.531295
32
0.399863
13
-0.861667
23
0.531295
33
0.399863
  0
3DFACE
  8
2
10
-1.97669e-05
20
1.00184
30
0.209725
11
-1.81306e-05
21
-0.0420997
31
0.434209
12
-0.861667
22
0.531295
32
0.399863
13
-0.861667
23
0.531295
33
0.399863
  0
3DFACE
  8
2
10
-1.97669e-05
20
1.00184
30
0.209725
11
-0.861667
21
0.531295
31
0.399863
12
-0.86164
22
1.20348
32
-0.387896
13
-0.86164
23
1.20348
33
-0.387896
  0
3DFACE
  8
2
10
-1.97669e-05
20
1.00184
30
0.209725
11
-0.86164
21
1.20348
31
-0.387896
12
-1.12129e-06
22
1.77689
32
-0.422169
13
-1.12129e-06
23
1.77689
33
-0.422169
  0
3DFACE
  8
2
10
-1.97669e-05
20
1.00184
30
0.209725
11
-1.12129e-06
21
1.77689
31
-0.422169
12
0.861648
22
1.2035
32
-0.387823
13
0.861648
23
1.2035
33
-0.387823
  0
3DFACE
  8
2
10
-1.97669e-05
20
1.00184
30
0.209725
11
0.861648
21
1.2035
31
-0.387823
12
0.861621
22
0.531313
32
0.399937
13
0.861621
23
0.531313
33
0.399937
  0
3DFACE
  8
2
10
-1.97669e-05
20
1.00184
30
0.209725
11
0.861621
21
0.531313
31
0.399937
12
-1.81306e-05
22
-0.0420997
32
0.434209
13
-1.81306e-05
23
-0.0420997
33
0.434209
  0
3DFACE
  8
2
10
5.15062e-07
20
0.732955
30
-0.197685
11
-0.861667
21
0.531295
31
0.399863
12
-1.81306e-05
22
-0.0420997
32
0.434209
13
-1.81306e-05
23
-0.0420997
33
0.434209
  0
3DFACE
  8
2
10
5.15062e-07
20
0.732955
30
-0.197685
11
-0.86164
21
1.20348
31
-0.387896
12
-0.861667
22
0.531295
32
0.399863
13
-0.861667
23
0.531295
33
0.399863
  0
3DFACE
  8
2
10
5.15062e-07
20
0.732955
30
-0.197685
11
-1.12129e-06
21
1.77689
31
-0.422169
12
-0.86164
22
1.20348
32
-0.387896
13
-0.86164
23
1.20348
33
-0.387896
  0
3DFACE
  8
2
10
5.15062e-07
20
0.732955
30
-0.197685
11
0.861648
21
1.2035
31
-0.387823
12
-1.12129e-06
22
1.77689
32
-0.422169
13
-1.12129e-06
23
1.77689
33
-0.422169
  0
3DFACE
  8
2
10
5.15062e-07
20
0.732955
30
-0.197685
11
0.861621
21
0.531313
31
0.399937
12
0.861648
22
1.2035
32
-0.387823
13
0.861648
23
1.2035
33
-0.387823
  0
3DFACE
  8
2
10
5.15062e-07
20
0.732955
30
-0.197685
11
-1.81306e-05
21
-0.0420997
31
0.434209
12
0.861621
22
0.531313
32
0.399937
13
0.861621
23
0.531313
33
0.399937
  0
3DFACE
  8
2
10
0.861637
20
-0.531945
30
0.301536
11
-1.81306e-05
21
-0.0420997
31
0.434209
12
0.861621
22
0.531313
32
0.399937
13
0.861621
23
0.531313
33
0.399937
  0
3DFACE
  8
2
10
0.861637
20
-0.531945
30
0.301536
11
0.861621
21
0.531313
31
0.399937
12
1.72327
22
-0.0420812
32
0.434283
13
1.72327
23
-0.0420812
33
0.434283
  0
3DFACE
  8
2
10
0.861637
20
-0.531945
30
0.301536
11
1.72327
21
-0.0420812
31
0.434283
12
1.72331
22
-0.803406
32
-0.267703
13
1.72331
23
-0.803406
33
-0.267703
  0
3DFACE
  8
2
10
0.861637
20
-0.531945
30
0.301536
11
1.72331
21
-0.803406
31
-0.267703
12
0.861669
22
-1.37682
32
-0.23343
13
0.861669
23
-1.37682
33
-0.23343
  0
3DFACE
  8
2
10
0.861637
20
-0.531945
30
0.301536
11
0.861669
21
-1.37682
31
-0.23343
12
2.00191e-05
22
-0.803424
32
-0.267776
13
2.00191e-05
23
-0.803424
33
-0.267776
  0
3DFACE
  8
2
10
0.861637
20
-0.531945
30
0.301536
11
2.00191e-05
21
-0.803424
31
-0.267776
12
-1.81306e-05
22
-0.0420997
32
0.434209
13
-1.81306e-05
23
-0.0420997
33
0.434209
  0
3DFACE
  8
2
10
0.861653
20
-0.31356
30
-0.13503
11
0.861621
21
0.531313
31
0.399937
12
-1.81306e-05
22
-0.0420997
32
0.434209
13
-1.81306e-05
23
-0.0420997
33
0.434209
  0
3DFACE
  8
2
10
0.861653
20
-0.31356
30
-0.13503
11
1.72327
21
-0.0420812
31
0.434283
12
0.861621
22
0.531313
32
0.399937
13
0.861621
23
0.531313
33
0.399937
  0
3DFACE
  8
2
10
0.861653
20
-0.31356
30
-0.13503
11
1.72331
21
-0.803406
31
-0.267703
12
1.72327
22
-0.0420812
32
0.434283
13
1.72327
23
-0.0420812
33
0.434283
  0
3DFACE
  8
2
10
0.861653
20
-0.31356
30
-0.13503
11
0.861669
21
-1.37682
31
-0.23343
12
1.72331
22
-0.803406
32
-0.267703
13
1.72331
23
-0.803406
33
-0.267703
  0
3DFACE
  8
2
10
0.861653
20
-0.31356
30
-0.13503
11
2.00191e-05
21
-0.803424
31
-0.267776
12
0.861669
22
-1.37682
32
-0.23343
13
0.861669
23
-1.37682
33
-0.23343
  0
3DFACE
  8
2
10
0.861653
20
-0.31356
30
-0.13503
11
-1.81306e-05
21
-0.0420997
31
0.434209
12
2.00191e-05
22
-0.803424
32
-0.267776
13
2.00191e-05
23
-0.803424
33
-0.267776
  0
ENDSEC
  0
EOF
