999
DXF Paul Bourke
  0
SECTION
  2
HEADER
  9
$ACADVER
  1
AC1006
  9
$INSBASE
 10
0.0
 20
0.0
 30
0.0
  9
$EXTMIN
 10
0.0
 20
0.0
  9
$EXTMAX
 10
1000.0
 20
1000.0
  9
$LINMIN
 10
0.0
 20
0.0
  9
$LINMAX
 10
1000.0
 20
1000.0
  0
ENDSEC
  0
SECTION
  2
TABLES
  0
TABLE
  2
LTYPE
 70
1
  0
LTYPE
  2
CONTINUOUS
 70
64
  3
Solid line
 72
65
 73
0
 40
0.000000
  0
ENDTAB
  0
TABLE
  2
LAYER
 70
6
  0
LAYER
  2
1
 70
64
 62
7
  6
CONTINUOUS
  0
ENDTAB
  0
TABLE
  2
STYLE
 70
0
  0
ENDTAB
  0
ENDSEC
  0
SECTION
  2
BLOCKS
  0
ENDSEC
  0
SECTION
  2
ENTITIES
  0
3DFACE
  8
2
10
-0.854818
20
-0.581496
30
0.439469
11
-2.44149e-15
21
-0.0953479
31
0.62098
12
1.01017e-16
22
-0.56105
32
-0.379509
13
1.01017e-16
23
-0.56105
33
-0.379509
  0
3DFACE
  8
2
10
-0.854818
20
-0.581496
30
0.439469
11
1.01017e-16
21
-0.56105
31
-0.379509
12
-0.854818
22
-1.25448
32
-0.300185
13
-0.854818
23
-1.25448
33
-0.300185
  0
3DFACE
  8
2
10
-0.854818
20
-0.581496
30
0.439469
11
-0.854818
21
-1.25448
31
-0.300185
12
-1.70964
22
-0.56105
32
-0.379509
13
-1.70964
23
-0.56105
33
-0.379509
  0
3DFACE
  8
2
10
-0.854818
20
-0.581496
30
0.439469
11
-1.70964
21
-0.56105
31
-0.379509
12
-1.70964
22
-0.0953479
32
0.62098
13
-1.70964
23
-0.0953479
33
0.62098
  0
3DFACE
  8
2
10
-0.854818
20
-0.581496
30
0.439469
11
-1.70964
21
-0.0953479
31
0.62098
12
-0.854818
22
0.598086
32
0.541656
13
-0.854818
23
0.598086
33
0.541656
  0
3DFACE
  8
2
10
-0.854818
20
-0.581496
30
0.439469
11
-0.854818
21
0.598086
31
0.541656
12
-2.44149e-15
22
-0.0953479
32
0.62098
13
-2.44149e-15
23
-0.0953479
33
0.62098
  0
3DFACE
  8
2
10
-0.854818
20
-0.0749017
30
-0.197998
11
1.01017e-16
21
-0.56105
31
-0.379509
12
-2.44149e-15
22
-0.0953479
32
0.62098
13
-2.44149e-15
23
-0.0953479
33
0.62098
  0
3DFACE
  8
2
10
-0.854818
20
-0.0749017
30
-0.197998
11
-0.854818
21
-1.25448
31
-0.300185
12
1.01017e-16
22
-0.56105
32
-0.379509
13
1.01017e-16
23
-0.56105
33
-0.379509
  0
3DFACE
  8
2
10
-0.854818
20
-0.0749017
30
-0.197998
11
-1.70964
21
-0.56105
31
-0.379509
12
-0.854818
22
-1.25448
32
-0.300185
13
-0.854818
23
-1.25448
33
-0.300185
  0
3DFACE
  8
2
10
-0.854818
20
-0.0749017
30
-0.197998
11
-1.70964
21
-0.0953479
31
0.62098
12
-1.70964
22
-0.56105
32
-0.379509
13
-1.70964
23
-0.56105
33
-0.379509
  0
3DFACE
  8
2
10
-0.854818
20
-0.0749017
30
-0.197998
11
-0.854818
21
0.598086
31
0.541656
12
-1.70964
22
-0.0953479
32
0.62098
13
-1.70964
23
-0.0953479
33
0.62098
  0
3DFACE
  8
2
10
-0.854818
20
-0.0749017
30
-0.197998
11
-2.44149e-15
21
-0.0953479
31
0.62098
12
-0.854818
22
0.598086
32
0.541656
13
-0.854818
23
0.598086
33
0.541656
  0
3DFACE
  8
2
10
-3.97778e-16
20
1.03068
30
0.255047
11
-2.44149e-15
21
-0.0953479
31
0.62098
12
-0.854818
22
0.598086
32
0.541656
13
-0.854818
23
0.598086
33
0.541656
  0
3DFACE
  8
2
10
-3.97778e-16
20
1.03068
30
0.255047
11
-0.854818
21
0.598086
31
0.541656
12
-0.854818
22
0.825817
32
-0.538156
13
-0.854818
23
0.825817
33
-0.538156
  0
3DFACE
  8
2
10
-3.97778e-16
20
1.03068
30
0.255047
11
-0.854818
21
0.825817
31
-0.538156
12
1.30094e-16
22
1.51925
32
-0.61748
13
1.30094e-16
23
1.51925
33
-0.61748
  0
3DFACE
  8
2
10
-3.97778e-16
20
1.03068
30
0.255047
11
1.30094e-16
21
1.51925
31
-0.61748
12
0.854818
22
0.825817
32
-0.538156
13
0.854818
23
0.825817
33
-0.538156
  0
3DFACE
  8
2
10
-3.97778e-16
20
1.03068
30
0.255047
11
0.854818
21
0.825817
31
-0.538156
12
0.854818
22
0.598086
32
0.541656
13
0.854818
23
0.598086
33
0.541656
  0
3DFACE
  8
2
10
-3.97778e-16
20
1.03068
30
0.255047
11
0.854818
21
0.598086
31
0.541656
12
-2.44149e-15
22
-0.0953479
32
0.62098
13
-2.44149e-15
23
-0.0953479
33
0.62098
  0
3DFACE
  8
2
10
-4.739e-16
20
0.393218
30
-0.251548
11
-0.854818
21
0.598086
31
0.541656
12
-2.44149e-15
22
-0.0953479
32
0.62098
13
-2.44149e-15
23
-0.0953479
33
0.62098
  0
3DFACE
  8
2
10
-4.739e-16
20
0.393218
30
-0.251548
11
-0.854818
21
0.825817
31
-0.538156
12
-0.854818
22
0.598086
32
0.541656
13
-0.854818
23
0.598086
33
0.541656
  0
3DFACE
  8
2
10
-4.739e-16
20
0.393218
30
-0.251548
11
1.30094e-16
21
1.51925
31
-0.61748
12
-0.854818
22
0.825817
32
-0.538156
13
-0.854818
23
0.825817
33
-0.538156
  0
3DFACE
  8
2
10
-4.739e-16
20
0.393218
30
-0.251548
11
0.854818
21
0.825817
31
-0.538156
12
1.30094e-16
22
1.51925
32
-0.61748
13
1.30094e-16
23
1.51925
33
-0.61748
  0
3DFACE
  8
2
10
-4.739e-16
20
0.393218
30
-0.251548
11
0.854818
21
0.598086
31
0.541656
12
0.854818
22
0.825817
32
-0.538156
13
0.854818
23
0.825817
33
-0.538156
  0
3DFACE
  8
2
10
-4.739e-16
20
0.393218
30
-0.251548
11
-2.44149e-15
21
-0.0953479
31
0.62098
12
0.854818
22
0.598086
32
0.541656
13
0.854818
23
0.598086
33
0.541656
  0
3DFACE
  8
2
10
0.854818
20
-0.581496
30
0.439469
11
-2.44149e-15
21
-0.0953479
31
0.62098
12
0.854818
22
0.598086
32
0.541656
13
0.854818
23
0.598086
33
0.541656
  0
3DFACE
  8
2
10
0.854818
20
-0.581496
30
0.439469
11
0.854818
21
0.598086
31
0.541656
12
1.70964
22
-0.0953479
32
0.62098
13
1.70964
23
-0.0953479
33
0.62098
  0
3DFACE
  8
2
10
0.854818
20
-0.581496
30
0.439469
11
1.70964
21
-0.0953479
31
0.62098
12
1.70964
22
-0.56105
32
-0.379509
13
1.70964
23
-0.56105
33
-0.379509
  0
3DFACE
  8
2
10
0.854818
20
-0.581496
30
0.439469
11
1.70964
21
-0.56105
31
-0.379509
12
0.854818
22
-1.25448
32
-0.300185
13
0.854818
23
-1.25448
33
-0.300185
  0
3DFACE
  8
2
10
0.854818
20
-0.581496
30
0.439469
11
0.854818
21
-1.25448
31
-0.300185
12
1.01017e-16
22
-0.56105
32
-0.379509
13
1.01017e-16
23
-0.56105
33
-0.379509
  0
3DFACE
  8
2
10
0.854818
20
-0.581496
30
0.439469
11
1.01017e-16
21
-0.56105
31
-0.379509
12
-2.44149e-15
22
-0.0953479
32
0.62098
13
-2.44149e-15
23
-0.0953479
33
0.62098
  0
3DFACE
  8
2
10
0.854818
20
-0.0749017
30
-0.197998
11
0.854818
21
0.598086
31
0.541656
12
-2.44149e-15
22
-0.0953479
32
0.62098
13
-2.44149e-15
23
-0.0953479
33
0.62098
  0
3DFACE
  8
2
10
0.854818
20
-0.0749017
30
-0.197998
11
1.70964
21
-0.0953479
31
0.62098
12
0.854818
22
0.598086
32
0.541656
13
0.854818
23
0.598086
33
0.541656
  0
3DFACE
  8
2
10
0.854818
20
-0.0749017
30
-0.197998
11
1.70964
21
-0.56105
31
-0.379509
12
1.70964
22
-0.0953479
32
0.62098
13
1.70964
23
-0.0953479
33
0.62098
  0
3DFACE
  8
2
10
0.854818
20
-0.0749017
30
-0.197998
11
0.854818
21
-1.25448
31
-0.300185
12
1.70964
22
-0.56105
32
-0.379509
13
1.70964
23
-0.56105
33
-0.379509
  0
3DFACE
  8
2
10
0.854818
20
-0.0749017
30
-0.197998
11
1.01017e-16
21
-0.56105
31
-0.379509
12
0.854818
22
-1.25448
32
-0.300185
13
0.854818
23
-1.25448
33
-0.300185
  0
3DFACE
  8
2
10
0.854818
20
-0.0749017
30
-0.197998
11
-2.44149e-15
21
-0.0953479
31
0.62098
12
1.01017e-16
22
-0.56105
32
-0.379509
13
1.01017e-16
23
-0.56105
33
-0.379509
  0
ENDSEC
  0
EOF
