999
DXF by Paul Bourke
  0
SECTION
  2
HEADER
  9
$ACADVER
  1
AC1006
  9
$INSBASE
 10
0.0
 20
0.0
 30
0.0
  9
$EXTMIN
 10
0.0
 20
0.0
  9
$EXTMAX
 10
1000.0
 20
1000.0
  9
$LINMIN
 10
0.0
 20
0.0
  9
$LINMAX
 10
1000.0
 20
1000.0
  0
ENDSEC
  0
SECTION
  2
TABLES
  0
TABLE
  2
LTYPE
 70
1
  0
LTYPE
  2
CONTINUOUS
 70
64
  3
Solid line
 72
65
 73
0
 40
0.000000
  0
ENDTAB
  0
TABLE
  2
LAYER
 70
6
  0
LAYER
  2
1
 70
64
 62
7
  6
CONTINUOUS
  0
ENDTAB
  0
TABLE
  2
STYLE
 70
0
  0
ENDTAB
  0
ENDSEC
  0
SECTION
  2
BLOCKS
  0
ENDSEC
  0
SECTION
  2
ENTITIES
  0
3DFACE
  8
2
10
-0.841807
20
-0.687329
30
0.58068
11
6.06517e-16
21
-0.188241
31
0.786282
12
3.08998e-17
22
-0.209069
32
-0.49943
13
3.08998e-17
23
-0.209069
33
-0.49943
  0
3DFACE
  8
2
10
-0.841807
20
-0.687329
30
0.58068
11
3.08998e-17
21
-0.209069
31
-0.49943
12
-0.841807
22
-1.16049
32
-0.300298
13
-0.841807
23
-1.16049
33
-0.300298
  0
3DFACE
  8
2
10
-0.841807
20
-0.687329
30
0.58068
11
-0.841807
21
-1.16049
31
-0.300298
12
-1.68361
22
-0.209069
32
-0.49943
13
-1.68361
23
-0.209069
33
-0.49943
  0
3DFACE
  8
2
10
-0.841807
20
-0.687329
30
0.58068
11
-1.68361
21
-0.209069
31
-0.49943
12
-1.68361
22
-0.188241
32
0.786282
13
-1.68361
23
-0.188241
33
0.786282
  0
3DFACE
  8
2
10
-0.841807
20
-0.687329
30
0.58068
11
-1.68361
21
-0.188241
31
0.786282
12
-0.841807
22
0.763176
32
0.58715
13
-0.841807
23
0.763176
33
0.58715
  0
3DFACE
  8
2
10
-0.841807
20
-0.687329
30
0.58068
11
-0.841807
21
0.763176
31
0.58715
12
6.06517e-16
22
-0.188241
32
0.786282
13
6.06517e-16
23
-0.188241
33
0.786282
  0
3DFACE
  8
2
10
-0.841807
20
0.290019
30
-0.293827
11
3.08998e-17
21
-0.209069
31
-0.49943
12
6.06517e-16
22
-0.188241
32
0.786282
13
6.06517e-16
23
-0.188241
33
0.786282
  0
3DFACE
  8
2
10
-0.841807
20
0.290019
30
-0.293827
11
-0.841807
21
-1.16049
31
-0.300298
12
3.08998e-17
22
-0.209069
32
-0.49943
13
3.08998e-17
23
-0.209069
33
-0.49943
  0
3DFACE
  8
2
10
-0.841807
20
0.290019
30
-0.293827
11
-1.68361
21
-0.209069
31
-0.49943
12
-0.841807
22
-1.16049
32
-0.300298
13
-0.841807
23
-1.16049
33
-0.300298
  0
3DFACE
  8
2
10
-0.841807
20
0.290019
30
-0.293827
11
-1.68361
21
-0.188241
31
0.786282
12
-1.68361
22
-0.209069
32
-0.49943
13
-1.68361
23
-0.209069
33
-0.49943
  0
3DFACE
  8
2
10
-0.841807
20
0.290019
30
-0.293827
11
-0.841807
21
0.763176
31
0.58715
12
-1.68361
22
-0.188241
32
0.786282
13
-1.68361
23
-0.188241
33
0.786282
  0
3DFACE
  8
2
10
-0.841807
20
0.290019
30
-0.293827
11
6.06517e-16
21
-0.188241
31
0.786282
12
-0.841807
22
0.763176
32
0.58715
13
-0.841807
23
0.763176
33
0.58715
  0
3DFACE
  8
2
10
6.76159e-16
20
1.13792
30
0.198655
11
6.06517e-16
21
-0.188241
31
0.786282
12
-0.841807
22
0.763176
32
0.58715
13
-0.841807
23
0.763176
33
0.58715
  0
3DFACE
  8
2
10
6.76159e-16
20
1.13792
30
0.198655
11
-0.841807
21
0.763176
31
0.58715
12
-0.841807
22
0.266644
32
-0.598996
13
-0.841807
23
0.266644
33
-0.598996
  0
3DFACE
  8
2
10
6.76159e-16
20
1.13792
30
0.198655
11
-0.841807
21
0.266644
31
-0.598996
12
3.08713e-16
22
1.21806
32
-0.798128
13
3.08713e-16
23
1.21806
33
-0.798128
  0
3DFACE
  8
2
10
6.76159e-16
20
1.13792
30
0.198655
11
3.08713e-16
21
1.21806
31
-0.798128
12
0.841807
22
0.266644
32
-0.598996
13
0.841807
23
0.266644
33
-0.598996
  0
3DFACE
  8
2
10
6.76159e-16
20
1.13792
30
0.198655
11
0.841807
21
0.266644
31
-0.598996
12
0.841807
22
0.763176
32
0.58715
13
0.841807
23
0.763176
33
0.58715
  0
3DFACE
  8
2
10
6.76159e-16
20
1.13792
30
0.198655
11
0.841807
21
0.763176
31
0.58715
12
6.06517e-16
22
-0.188241
32
0.786282
13
6.06517e-16
23
-0.188241
33
0.786282
  0
3DFACE
  8
2
10
2.14559e-16
20
-0.108099
30
-0.210501
11
-0.841807
21
0.763176
31
0.58715
12
6.06517e-16
22
-0.188241
32
0.786282
13
6.06517e-16
23
-0.188241
33
0.786282
  0
3DFACE
  8
2
10
2.14559e-16
20
-0.108099
30
-0.210501
11
-0.841807
21
0.266644
31
-0.598996
12
-0.841807
22
0.763176
32
0.58715
13
-0.841807
23
0.763176
33
0.58715
  0
3DFACE
  8
2
10
2.14559e-16
20
-0.108099
30
-0.210501
11
3.08713e-16
21
1.21806
31
-0.798128
12
-0.841807
22
0.266644
32
-0.598996
13
-0.841807
23
0.266644
33
-0.598996
  0
3DFACE
  8
2
10
2.14559e-16
20
-0.108099
30
-0.210501
11
0.841807
21
0.266644
31
-0.598996
12
3.08713e-16
22
1.21806
32
-0.798128
13
3.08713e-16
23
1.21806
33
-0.798128
  0
3DFACE
  8
2
10
2.14559e-16
20
-0.108099
30
-0.210501
11
0.841807
21
0.763176
31
0.58715
12
0.841807
22
0.266644
32
-0.598996
13
0.841807
23
0.266644
33
-0.598996
  0
3DFACE
  8
2
10
2.14559e-16
20
-0.108099
30
-0.210501
11
6.06517e-16
21
-0.188241
31
0.786282
12
0.841807
22
0.763176
32
0.58715
13
0.841807
23
0.763176
33
0.58715
  0
3DFACE
  8
2
10
0.841807
20
-0.687329
30
0.58068
11
6.06517e-16
21
-0.188241
31
0.786282
12
0.841807
22
0.763176
32
0.58715
13
0.841807
23
0.763176
33
0.58715
  0
3DFACE
  8
2
10
0.841807
20
-0.687329
30
0.58068
11
0.841807
21
0.763176
31
0.58715
12
1.68361
22
-0.188241
32
0.786282
13
1.68361
23
-0.188241
33
0.786282
  0
3DFACE
  8
2
10
0.841807
20
-0.687329
30
0.58068
11
1.68361
21
-0.188241
31
0.786282
12
1.68361
22
-0.209069
32
-0.49943
13
1.68361
23
-0.209069
33
-0.49943
  0
3DFACE
  8
2
10
0.841807
20
-0.687329
30
0.58068
11
1.68361
21
-0.209069
31
-0.49943
12
0.841807
22
-1.16049
32
-0.300298
13
0.841807
23
-1.16049
33
-0.300298
  0
3DFACE
  8
2
10
0.841807
20
-0.687329
30
0.58068
11
0.841807
21
-1.16049
31
-0.300298
12
3.08998e-17
22
-0.209069
32
-0.49943
13
3.08998e-17
23
-0.209069
33
-0.49943
  0
3DFACE
  8
2
10
0.841807
20
-0.687329
30
0.58068
11
3.08998e-17
21
-0.209069
31
-0.49943
12
6.06517e-16
22
-0.188241
32
0.786282
13
6.06517e-16
23
-0.188241
33
0.786282
  0
3DFACE
  8
2
10
0.841807
20
0.290019
30
-0.293827
11
0.841807
21
0.763176
31
0.58715
12
6.06517e-16
22
-0.188241
32
0.786282
13
6.06517e-16
23
-0.188241
33
0.786282
  0
3DFACE
  8
2
10
0.841807
20
0.290019
30
-0.293827
11
1.68361
21
-0.188241
31
0.786282
12
0.841807
22
0.763176
32
0.58715
13
0.841807
23
0.763176
33
0.58715
  0
3DFACE
  8
2
10
0.841807
20
0.290019
30
-0.293827
11
1.68361
21
-0.209069
31
-0.49943
12
1.68361
22
-0.188241
32
0.786282
13
1.68361
23
-0.188241
33
0.786282
  0
3DFACE
  8
2
10
0.841807
20
0.290019
30
-0.293827
11
0.841807
21
-1.16049
31
-0.300298
12
1.68361
22
-0.209069
32
-0.49943
13
1.68361
23
-0.209069
33
-0.49943
  0
3DFACE
  8
2
10
0.841807
20
0.290019
30
-0.293827
11
3.08998e-17
21
-0.209069
31
-0.49943
12
0.841807
22
-1.16049
32
-0.300298
13
0.841807
23
-1.16049
33
-0.300298
  0
3DFACE
  8
2
10
0.841807
20
0.290019
30
-0.293827
11
6.06517e-16
21
-0.188241
31
0.786282
12
3.08998e-17
22
-0.209069
32
-0.49943
13
3.08998e-17
23
-0.209069
33
-0.49943
  0
ENDSEC
  0
EOF
