999
DXF by Paul Bourke
  0
SECTION
  2
HEADER
  9
$ACADVER
  1
AC1006
  9
$INSBASE
 10
0.0
 20
0.0
 30
0.0
  9
$EXTMIN
 10
0.0
 20
0.0
  9
$EXTMAX
 10
1000.0
 20
1000.0
  9
$LINMIN
 10
0.0
 20
0.0
  9
$LINMAX
 10
1000.0
 20
1000.0
  0
ENDSEC
  0
SECTION
  2
TABLES
  0
TABLE
  2
LTYPE
 70
1
  0
LTYPE
  2
CONTINUOUS
 70
64
  3
Solid line
 72
65
 73
0
 40
0.000000
  0
ENDTAB
  0
TABLE
  2
LAYER
 70
6
  0
LAYER
  2
1
 70
64
 62
7
  6
CONTINUOUS
  0
ENDTAB
  0
TABLE
  2
STYLE
 70
0
  0
ENDTAB
  0
ENDSEC
  0
SECTION
  2
BLOCKS
  0
ENDSEC
  0
SECTION
  2
ENTITIES
  0
3DFACE
  8
2
10
-1.58576e-16
20
0.986273
30
0.242166
11
0.85394
21
0.492793
31
0.759141
12
-2.01824e-16
22
-0.000375762
32
0.925193
13
-2.01824e-16
23
-0.000375762
33
0.925193
  0
3DFACE
  8
2
10
0.85394
20
0.492793
30
0.759141
11
0.85394
21
-0.492793
31
0.240859
12
-2.01824e-16
22
-0.000375762
32
0.925193
13
-2.01824e-16
23
-0.000375762
33
0.925193
  0
3DFACE
  8
2
10
0.85394
20
-0.492793
30
0.240859
11
-1.16835e-16
21
-0.986273
31
0.757834
12
-2.01824e-16
22
-0.000375762
32
0.925193
13
-2.01824e-16
23
-0.000375762
33
0.925193
  0
3DFACE
  8
2
10
-1.16835e-16
20
-0.986273
30
0.757834
11
-0.85394
21
-0.492793
31
0.240859
12
-2.01824e-16
22
-0.000375762
32
0.925193
13
-2.01824e-16
23
-0.000375762
33
0.925193
  0
3DFACE
  8
2
10
-0.85394
20
-0.492793
30
0.240859
11
-0.85394
21
0.492793
31
0.759141
12
-2.01824e-16
22
-0.000375762
32
0.925193
13
-2.01824e-16
23
-0.000375762
33
0.925193
  0
3DFACE
  8
2
10
-0.85394
20
0.492793
30
0.759141
11
-1.58576e-16
21
0.986273
31
0.242166
12
-2.01824e-16
22
-0.000375762
32
0.925193
13
-2.01824e-16
23
-0.000375762
33
0.925193
  0
3DFACE
  8
2
10
-1.58576e-16
20
0.986273
30
0.242166
11
-4.26078e-17
21
0.000375762
31
0.0748069
12
0.85394
22
0.492793
32
0.759141
13
0.85394
23
0.492793
33
0.759141
  0
3DFACE
  8
2
10
0.85394
20
0.492793
30
0.759141
11
-4.26078e-17
21
0.000375762
31
0.0748069
12
0.85394
22
-0.492793
32
0.240859
13
0.85394
23
-0.492793
33
0.240859
  0
3DFACE
  8
2
10
0.85394
20
-0.492793
30
0.240859
11
-4.26078e-17
21
0.000375762
31
0.0748069
12
-1.16835e-16
22
-0.986273
32
0.757834
13
-1.16835e-16
23
-0.986273
33
0.757834
  0
3DFACE
  8
2
10
-1.16835e-16
20
-0.986273
30
0.757834
11
-4.26078e-17
21
0.000375762
31
0.0748069
12
-0.85394
22
-0.492793
32
0.240859
13
-0.85394
23
-0.492793
33
0.240859
  0
3DFACE
  8
2
10
-0.85394
20
-0.492793
30
0.240859
11
-4.26078e-17
21
0.000375762
31
0.0748069
12
-0.85394
22
0.492793
32
0.759141
13
-0.85394
23
0.492793
33
0.759141
  0
3DFACE
  8
2
10
-0.85394
20
0.492793
30
0.759141
11
-4.26078e-17
21
0.000375762
31
0.0748069
12
-1.58576e-16
22
0.986273
32
0.242166
13
-1.58576e-16
23
0.986273
33
0.242166
  0
3DFACE
  8
2
10
0.85394
20
0.492793
30
0.759141
11
1.70788
21
0.000375792
31
0.0748069
12
1.70788
22
0.986273
32
0.242166
13
1.70788
23
0.986273
33
0.242166
  0
3DFACE
  8
2
10
0.85394
20
-0.492793
30
0.240859
11
1.70788
21
0.000375792
31
0.0748069
12
0.85394
22
0.492793
32
0.759141
13
0.85394
23
0.492793
33
0.759141
  0
3DFACE
  8
2
10
1.70788
20
-0.986273
30
0.757834
11
1.70788
21
0.000375792
31
0.0748069
12
0.85394
22
-0.492793
32
0.240859
13
0.85394
23
-0.492793
33
0.240859
  0
3DFACE
  8
2
10
2.56182
20
-0.492793
30
0.240859
11
1.70788
21
0.000375792
31
0.0748069
12
1.70788
22
-0.986273
32
0.757834
13
1.70788
23
-0.986273
33
0.757834
  0
3DFACE
  8
2
10
2.56182
20
0.492793
30
0.759141
11
1.70788
21
0.000375792
31
0.0748069
12
2.56182
22
-0.492793
32
0.240859
13
2.56182
23
-0.492793
33
0.240859
  0
3DFACE
  8
2
10
1.70788
20
0.986273
30
0.242166
11
1.70788
21
0.000375792
31
0.0748069
12
2.56182
22
0.492793
32
0.759141
13
2.56182
23
0.492793
33
0.759141
  0
3DFACE
  8
2
10
0.85394
20
0.492793
30
0.759141
11
1.70788
21
0.986273
31
0.242166
12
1.70788
22
-0.000375732
32
0.925193
13
1.70788
23
-0.000375732
33
0.925193
  0
3DFACE
  8
2
10
0.85394
20
-0.492793
30
0.240859
11
0.85394
21
0.492793
31
0.759141
12
1.70788
22
-0.000375732
32
0.925193
13
1.70788
23
-0.000375732
33
0.925193
  0
3DFACE
  8
2
10
1.70788
20
-0.986273
30
0.757834
11
0.85394
21
-0.492793
31
0.240859
12
1.70788
22
-0.000375732
32
0.925193
13
1.70788
23
-0.000375732
33
0.925193
  0
3DFACE
  8
2
10
2.56182
20
-0.492793
30
0.240859
11
1.70788
21
-0.986273
31
0.757834
12
1.70788
22
-0.000375732
32
0.925193
13
1.70788
23
-0.000375732
33
0.925193
  0
3DFACE
  8
2
10
2.56182
20
0.492793
30
0.759141
11
2.56182
21
-0.492793
31
0.240859
12
1.70788
22
-0.000375732
32
0.925193
13
1.70788
23
-0.000375732
33
0.925193
  0
3DFACE
  8
2
10
1.70788
20
0.986273
30
0.242166
11
2.56182
21
0.492793
31
0.759141
12
1.70788
22
-0.000375732
32
0.925193
13
1.70788
23
-0.000375732
33
0.925193
  0
3DFACE
  8
2
10
2.56182
20
2.46534
30
0.243473
11
3.41576
21
1.97186
31
0.760448
12
2.56182
22
1.47869
32
0.9265
13
2.56182
23
1.47869
33
0.9265
  0
3DFACE
  8
2
10
3.41576
20
1.97186
30
0.760448
11
3.41576
21
0.986273
31
0.242166
12
2.56182
22
1.47869
32
0.9265
13
2.56182
23
1.47869
33
0.9265
  0
3DFACE
  8
2
10
3.41576
20
0.986273
30
0.242166
11
2.56182
21
0.492793
31
0.759141
12
2.56182
22
1.47869
32
0.9265
13
2.56182
23
1.47869
33
0.9265
  0
3DFACE
  8
2
10
2.56182
20
0.492793
30
0.759141
11
1.70788
21
0.986273
31
0.242166
12
2.56182
22
1.47869
32
0.9265
13
2.56182
23
1.47869
33
0.9265
  0
3DFACE
  8
2
10
1.70788
20
0.986273
30
0.242166
11
1.70788
21
1.97186
31
0.760448
12
2.56182
22
1.47869
32
0.9265
13
2.56182
23
1.47869
33
0.9265
  0
3DFACE
  8
2
10
1.70788
20
1.97186
30
0.760448
11
2.56182
21
2.46534
31
0.243473
12
2.56182
22
1.47869
32
0.9265
13
2.56182
23
1.47869
33
0.9265
  0
3DFACE
  8
2
10
2.56182
20
2.46534
30
0.243473
11
2.56182
21
1.47944
31
0.0761139
12
3.41576
22
1.97186
32
0.760448
13
3.41576
23
1.97186
33
0.760448
  0
3DFACE
  8
2
10
3.41576
20
1.97186
30
0.760448
11
2.56182
21
1.47944
31
0.0761139
12
3.41576
22
0.986273
32
0.242166
13
3.41576
23
0.986273
33
0.242166
  0
3DFACE
  8
2
10
3.41576
20
0.986273
30
0.242166
11
2.56182
21
1.47944
31
0.0761139
12
2.56182
22
0.492793
32
0.759141
13
2.56182
23
0.492793
33
0.759141
  0
3DFACE
  8
2
10
2.56182
20
0.492793
30
0.759141
11
2.56182
21
1.47944
31
0.0761139
12
1.70788
22
0.986273
32
0.242166
13
1.70788
23
0.986273
33
0.242166
  0
3DFACE
  8
2
10
1.70788
20
0.986273
30
0.242166
11
2.56182
21
1.47944
31
0.0761139
12
1.70788
22
1.97186
32
0.760448
13
1.70788
23
1.97186
33
0.760448
  0
3DFACE
  8
2
10
1.70788
20
1.97186
30
0.760448
11
2.56182
21
1.47944
31
0.0761139
12
2.56182
22
2.46534
32
0.243473
13
2.56182
23
2.46534
33
0.243473
  0
3DFACE
  8
2
10
3.41576
20
0.986273
30
0.242166
11
4.2697
21
0.492793
31
0.759141
12
3.41576
22
-0.000375732
32
0.925193
13
3.41576
23
-0.000375732
33
0.925193
  0
3DFACE
  8
2
10
4.2697
20
0.492793
30
0.759141
11
4.2697
21
-0.492793
31
0.240859
12
3.41576
22
-0.000375732
32
0.925193
13
3.41576
23
-0.000375732
33
0.925193
  0
3DFACE
  8
2
10
4.2697
20
-0.492793
30
0.240859
11
3.41576
21
-0.986273
31
0.757834
12
3.41576
22
-0.000375732
32
0.925193
13
3.41576
23
-0.000375732
33
0.925193
  0
3DFACE
  8
2
10
3.41576
20
-0.986273
30
0.757834
11
2.56182
21
-0.492793
31
0.240859
12
3.41576
22
-0.000375732
32
0.925193
13
3.41576
23
-0.000375732
33
0.925193
  0
3DFACE
  8
2
10
2.56182
20
-0.492793
30
0.240859
11
2.56182
21
0.492793
31
0.759141
12
3.41576
22
-0.000375732
32
0.925193
13
3.41576
23
-0.000375732
33
0.925193
  0
3DFACE
  8
2
10
2.56182
20
0.492793
30
0.759141
11
3.41576
21
0.986273
31
0.242166
12
3.41576
22
-0.000375732
32
0.925193
13
3.41576
23
-0.000375732
33
0.925193
  0
3DFACE
  8
2
10
3.41576
20
0.986273
30
0.242166
11
3.41576
21
0.000375792
31
0.0748069
12
4.2697
22
0.492793
32
0.759141
13
4.2697
23
0.492793
33
0.759141
  0
3DFACE
  8
2
10
4.2697
20
0.492793
30
0.759141
11
3.41576
21
0.000375792
31
0.0748069
12
4.2697
22
-0.492793
32
0.240859
13
4.2697
23
-0.492793
33
0.240859
  0
3DFACE
  8
2
10
4.2697
20
-0.492793
30
0.240859
11
3.41576
21
0.000375792
31
0.0748069
12
3.41576
22
-0.986273
32
0.757834
13
3.41576
23
-0.986273
33
0.757834
  0
3DFACE
  8
2
10
3.41576
20
-0.986273
30
0.757834
11
3.41576
21
0.000375792
31
0.0748069
12
2.56182
22
-0.492793
32
0.240859
13
2.56182
23
-0.492793
33
0.240859
  0
3DFACE
  8
2
10
2.56182
20
-0.492793
30
0.240859
11
3.41576
21
0.000375792
31
0.0748069
12
2.56182
22
0.492793
32
0.759141
13
2.56182
23
0.492793
33
0.759141
  0
3DFACE
  8
2
10
2.56182
20
0.492793
30
0.759141
11
3.41576
21
0.000375792
31
0.0748069
12
3.41576
22
0.986273
32
0.242166
13
3.41576
23
0.986273
33
0.242166
  0
3DFACE
  8
2
10
2.56182
20
-0.492793
30
0.240859
11
3.41576
21
-0.986273
31
0.757834
12
2.56182
22
-1.47944
32
0.923886
13
2.56182
23
-1.47944
33
0.923886
  0
3DFACE
  8
2
10
3.41576
20
-0.986273
30
0.757834
11
3.41576
21
-1.97186
31
0.239552
12
2.56182
22
-1.47944
32
0.923886
13
2.56182
23
-1.47944
33
0.923886
  0
3DFACE
  8
2
10
3.41576
20
-1.97186
30
0.239552
11
2.56182
21
-2.46534
31
0.756527
12
2.56182
22
-1.47944
32
0.923886
13
2.56182
23
-1.47944
33
0.923886
  0
3DFACE
  8
2
10
2.56182
20
-2.46534
30
0.756527
11
1.70788
21
-1.97186
31
0.239552
12
2.56182
22
-1.47944
32
0.923886
13
2.56182
23
-1.47944
33
0.923886
  0
3DFACE
  8
2
10
1.70788
20
-1.97186
30
0.239552
11
1.70788
21
-0.986273
31
0.757834
12
2.56182
22
-1.47944
32
0.923886
13
2.56182
23
-1.47944
33
0.923886
  0
3DFACE
  8
2
10
1.70788
20
-0.986273
30
0.757834
11
2.56182
21
-0.492793
31
0.240859
12
2.56182
22
-1.47944
32
0.923886
13
2.56182
23
-1.47944
33
0.923886
  0
3DFACE
  8
2
10
2.56182
20
-0.492793
30
0.240859
11
2.56182
21
-1.47869
31
0.0734999
12
3.41576
22
-0.986273
32
0.757834
13
3.41576
23
-0.986273
33
0.757834
  0
3DFACE
  8
2
10
3.41576
20
-0.986273
30
0.757834
11
2.56182
21
-1.47869
31
0.0734999
12
3.41576
22
-1.97186
32
0.239552
13
3.41576
23
-1.97186
33
0.239552
  0
3DFACE
  8
2
10
3.41576
20
-1.97186
30
0.239552
11
2.56182
21
-1.47869
31
0.0734999
12
2.56182
22
-2.46534
32
0.756527
13
2.56182
23
-2.46534
33
0.756527
  0
3DFACE
  8
2
10
2.56182
20
-2.46534
30
0.756527
11
2.56182
21
-1.47869
31
0.0734999
12
1.70788
22
-1.97186
32
0.239552
13
1.70788
23
-1.97186
33
0.239552
  0
3DFACE
  8
2
10
1.70788
20
-1.97186
30
0.239552
11
2.56182
21
-1.47869
31
0.0734999
12
1.70788
22
-0.986273
32
0.757834
13
1.70788
23
-0.986273
33
0.757834
  0
3DFACE
  8
2
10
1.70788
20
-0.986273
30
0.757834
11
2.56182
21
-1.47869
31
0.0734999
12
2.56182
22
-0.492793
32
0.240859
13
2.56182
23
-0.492793
33
0.240859
  0
3DFACE
  8
2
10
0.85394
20
2.46534
30
0.243473
11
1.70788
21
1.97186
31
0.760448
12
0.85394
22
1.47869
32
0.9265
13
0.85394
23
1.47869
33
0.9265
  0
3DFACE
  8
2
10
1.70788
20
1.97186
30
0.760448
11
1.70788
21
0.986273
31
0.242166
12
0.85394
22
1.47869
32
0.9265
13
0.85394
23
1.47869
33
0.9265
  0
3DFACE
  8
2
10
1.70788
20
0.986273
30
0.242166
11
0.85394
21
0.492793
31
0.759141
12
0.85394
22
1.47869
32
0.9265
13
0.85394
23
1.47869
33
0.9265
  0
3DFACE
  8
2
10
0.85394
20
0.492793
30
0.759141
11
0
21
0.986273
31
0.242166
12
0.85394
22
1.47869
32
0.9265
13
0.85394
23
1.47869
33
0.9265
  0
3DFACE
  8
2
10
0
20
0.986273
30
0.242166
11
0
21
1.97186
31
0.760448
12
0.85394
22
1.47869
32
0.9265
13
0.85394
23
1.47869
33
0.9265
  0
3DFACE
  8
2
10
0
20
1.97186
30
0.760448
11
0.85394
21
2.46534
31
0.243473
12
0.85394
22
1.47869
32
0.9265
13
0.85394
23
1.47869
33
0.9265
  0
3DFACE
  8
2
10
0.85394
20
2.46534
30
0.243473
11
0.85394
21
1.47944
31
0.0761139
12
1.70788
22
1.97186
32
0.760448
13
1.70788
23
1.97186
33
0.760448
  0
3DFACE
  8
2
10
1.70788
20
1.97186
30
0.760448
11
0.85394
21
1.47944
31
0.0761139
12
1.70788
22
0.986273
32
0.242166
13
1.70788
23
0.986273
33
0.242166
  0
3DFACE
  8
2
10
1.70788
20
0.986273
30
0.242166
11
0.85394
21
1.47944
31
0.0761139
12
0.85394
22
0.492793
32
0.759141
13
0.85394
23
0.492793
33
0.759141
  0
3DFACE
  8
2
10
0.85394
20
0.492793
30
0.759141
11
0.85394
21
1.47944
31
0.0761139
12
0
22
0.986273
32
0.242166
13
0
23
0.986273
33
0.242166
  0
3DFACE
  8
2
10
0
20
0.986273
30
0.242166
11
0.85394
21
1.47944
31
0.0761139
12
0
22
1.97186
32
0.760448
13
0
23
1.97186
33
0.760448
  0
3DFACE
  8
2
10
0
20
1.97186
30
0.760448
11
0.85394
21
1.47944
31
0.0761139
12
0.85394
22
2.46534
32
0.243473
13
0.85394
23
2.46534
33
0.243473
  0
3DFACE
  8
2
10
0.85394
20
-0.492793
30
0.240859
11
1.70788
21
-0.986273
31
0.757834
12
0.85394
22
-1.47944
32
0.923886
13
0.85394
23
-1.47944
33
0.923886
  0
3DFACE
  8
2
10
1.70788
20
-0.986273
30
0.757834
11
1.70788
21
-1.97186
31
0.239552
12
0.85394
22
-1.47944
32
0.923886
13
0.85394
23
-1.47944
33
0.923886
  0
3DFACE
  8
2
10
1.70788
20
-1.97186
30
0.239552
11
0.85394
21
-2.46534
31
0.756527
12
0.85394
22
-1.47944
32
0.923886
13
0.85394
23
-1.47944
33
0.923886
  0
3DFACE
  8
2
10
0.85394
20
-2.46534
30
0.756527
11
0
21
-1.97186
31
0.239552
12
0.85394
22
-1.47944
32
0.923886
13
0.85394
23
-1.47944
33
0.923886
  0
3DFACE
  8
2
10
0
20
-1.97186
30
0.239552
11
0
21
-0.986273
31
0.757834
12
0.85394
22
-1.47944
32
0.923886
13
0.85394
23
-1.47944
33
0.923886
  0
3DFACE
  8
2
10
0
20
-0.986273
30
0.757834
11
0.85394
21
-0.492793
31
0.240859
12
0.85394
22
-1.47944
32
0.923886
13
0.85394
23
-1.47944
33
0.923886
  0
3DFACE
  8
2
10
0.85394
20
-0.492793
30
0.240859
11
0.85394
21
-1.47869
31
0.0734999
12
1.70788
22
-0.986273
32
0.757834
13
1.70788
23
-0.986273
33
0.757834
  0
3DFACE
  8
2
10
1.70788
20
-0.986273
30
0.757834
11
0.85394
21
-1.47869
31
0.0734999
12
1.70788
22
-1.97186
32
0.239552
13
1.70788
23
-1.97186
33
0.239552
  0
3DFACE
  8
2
10
1.70788
20
-1.97186
30
0.239552
11
0.85394
21
-1.47869
31
0.0734999
12
0.85394
22
-2.46534
32
0.756527
13
0.85394
23
-2.46534
33
0.756527
  0
3DFACE
  8
2
10
0.85394
20
-2.46534
30
0.756527
11
0.85394
21
-1.47869
31
0.0734999
12
0
22
-1.97186
32
0.239552
13
0
23
-1.97186
33
0.239552
  0
3DFACE
  8
2
10
0
20
-1.97186
30
0.239552
11
0.85394
21
-1.47869
31
0.0734999
12
0
22
-0.986273
32
0.757834
13
0
23
-0.986273
33
0.757834
  0
3DFACE
  8
2
10
0
20
-0.986273
30
0.757834
11
0.85394
21
-1.47869
31
0.0734999
12
0.85394
22
-0.492793
32
0.240859
13
0.85394
23
-0.492793
33
0.240859
  0
ENDSEC
  0
EOF
